<svg width="24" height="25" viewBox="0 0 24 25" fill="none" xmlns="http://www.w3.org/2000/svg">
<g id="vuesax/linear/star">
<g id="vuesax/linear/star_2">
<g id="star">
<path id="Vector" d="M13.7309 4.01001L15.4909 7.53001C15.7309 8.02002 16.3709 8.49001 16.9109 8.58001L20.1009 9.11001C22.1409 9.45001 22.6209 10.93 21.1509 12.39L18.6709 14.87C18.2509 15.29 18.0209 16.1 18.1509 16.68L18.8609 19.75C19.4209 22.18 18.1309 23.12 15.9809 21.85L12.9909 20.08C12.4509 19.76 11.5609 19.76 11.0109 20.08L8.02089 21.85C5.88089 23.12 4.58089 22.17 5.14089 19.75L5.85089 16.68C5.98089 16.1 5.75089 15.29 5.33089 14.87L2.85089 12.39C1.39089 10.93 1.86089 9.45001 3.90089 9.11001L7.09089 8.58001C7.62089 8.49001 8.26089 8.02002 8.50089 7.53001L10.2609 4.01001C11.2209 2.10001 12.7809 2.10001 13.7309 4.01001Z" stroke="#0F7A9D" stroke-width="1.5" stroke-linecap="round" stroke-linejoin="round"/>
</g>
</g>
</g>
</svg>
