<svg width="130" height="51" viewBox="0 0 130 51" fill="none" xmlns="http://www.w3.org/2000/svg">
<g id="&#235;&#160;&#136;&#236;&#157;&#180;&#236;&#150;&#180; 1">
<g id="Group">
<g id="Group_2">
<path id="Vector" d="M31.5338 33.3071C31.5338 33.3071 31.9497 33.0399 31.964 33.0616C32.0501 33.2132 28.6228 36.868 28.716 37.0341C28.8307 37.2364 33.0754 34.3256 33.1543 34.4556C33.4554 34.9756 26.902 39.9305 26.988 40.075C27.0812 40.2411 33.943 35.3368 34.2441 35.8568C34.5668 36.4202 25.891 42.1046 26.1061 42.473C26.522 43.2025 34.8822 36.6658 35.1834 37.193C35.3268 37.4458 25.4465 43.4914 25.8695 44.2281C26.0057 44.4665 35.6064 37.8142 35.9291 38.3776C36.2517 38.941 25.7261 45.0804 26.1348 45.7955C26.4861 46.4094 36.3521 39.1649 36.6461 39.6849C36.9616 40.2339 26.6439 46.9439 26.816 47.2473C27.1171 47.7673 37.0404 40.6817 37.3057 41.144C37.6571 41.7579 27.1816 47.5145 27.576 48.2079C27.7265 48.4752 37.4276 41.8446 37.7001 42.3213C38.1374 43.0797 28.7949 48.8797 29.096 49.3997C29.2753 49.7175 37.865 44.0187 37.9869 44.2281C38.288 44.7554 30.4583 49.6308 30.6806 50.0209C30.8885 50.382 37.5423 45.5644 37.7431 45.911C37.9654 46.2939 32.9392 49.8692 33.0826 50.1148C33.1543 50.2376 36.5529 47.9623 36.6102 48.0635" stroke="#00D9BF" stroke-width="0.85" stroke-linecap="round" stroke-linejoin="round"/>
<path id="Vector_2" d="M34.5166 41.3101C34.9038 44.4521 32.5448 47.9913 28.6658 47.9913C24.7868 47.9913 22.0335 44.4521 22.4207 41.3101C23.0087 36.5719 28.4005 30.6997 28.4005 30.6997C28.4005 30.6997 33.9286 36.5719 34.5166 41.3101Z" stroke="#003D60" stroke-width="3" stroke-miterlimit="10"/>
<path id="Vector_3" d="M27.7982 34.4989C27.7982 34.4989 26.228 36.413 25.6114 38.8687" stroke="#003D60" stroke-linecap="square" stroke-linejoin="round"/>
</g>
<g id="Group_3">
<path id="Vector_4" d="M45.4079 5.60022C45.4079 5.60022 45.8237 5.33297 45.8381 5.35464C45.9241 5.50632 42.504 9.1611 42.5972 9.32C42.7119 9.52224 46.9566 6.61142 47.0283 6.74144C47.3294 7.26148 40.7904 12.2092 40.8692 12.3608C40.9624 12.527 47.817 7.62985 48.111 8.1499C48.4336 8.71328 39.7794 14.3832 39.9945 14.7588C40.4103 15.4883 48.7491 8.96608 49.0502 9.49335C49.1937 9.73893 39.3492 15.7773 39.765 16.514C39.9013 16.7523 49.4733 10.1217 49.7959 10.6779C50.1186 11.2341 39.636 17.3591 40.0375 18.0741C40.3888 18.6881 50.2118 11.4724 50.5058 11.9852C50.8212 12.5342 40.5609 19.2153 40.733 19.5187C41.027 20.0388 50.9001 12.9892 51.1654 13.4515C51.5167 14.0582 41.1058 19.7932 41.5002 20.4793C41.6508 20.7466 51.2873 14.1593 51.5598 14.6288C51.99 15.38 42.7406 21.1366 43.0418 21.6567C43.221 21.9673 51.7103 16.3334 51.8322 16.5429C52.1334 17.0629 44.4327 21.8806 44.6478 22.2634C44.8486 22.6173 51.359 17.9008 51.5526 18.2475C51.7605 18.6086 47.014 22.0684 47.1502 22.2995C47.2147 22.4079 50.262 20.371 50.3122 20.4577" stroke="#02B9B9" stroke-width="0.85" stroke-linecap="round" stroke-linejoin="round"/>
<path id="Vector_5" d="M48.3763 13.5671C48.7634 16.6946 46.4117 20.2193 42.547 20.2193C38.6824 20.2193 35.9434 16.6946 36.3306 13.5671C36.9185 8.85053 42.2889 3 42.2889 3C42.2889 3 47.7883 8.85053 48.3763 13.5671Z" stroke="#003D60" stroke-width="3" stroke-miterlimit="10"/>
</g>
<g id="Group_4">
<path id="Vector_6" d="M20.8218 18.2402H28.759V20.8549H17.7817V3.95337H20.8218V18.233V18.2402Z" fill="black"/>
<path id="Vector_7" d="M61.4329 19.9376C60.1781 19.2081 59.203 18.1897 58.5004 16.8751C57.7977 15.5605 57.4464 14.0726 57.4464 12.4041C57.4464 10.7357 57.7905 9.24775 58.486 7.93318C59.1815 6.61862 60.1495 5.60019 61.4042 4.87068C62.659 4.14117 64.0786 3.78003 65.6776 3.78003C66.8248 3.78003 67.9003 4.00394 68.9113 4.44453C69.9151 4.88513 70.8113 5.5063 71.5857 6.30081L69.6211 8.39545C69.1909 7.81039 68.6173 7.33369 67.9075 6.97254C67.1976 6.6114 66.4519 6.43083 65.6632 6.43083C64.6164 6.43083 63.713 6.6764 62.9314 7.16034C62.1571 7.65149 61.5548 8.34489 61.1318 9.24775C60.7087 10.1506 60.4936 11.1979 60.4936 12.4041C60.4936 13.6104 60.7087 14.6577 61.1318 15.5605C61.5548 16.4634 62.1643 17.1568 62.953 17.6407C63.7417 18.1319 64.6594 18.3702 65.7062 18.3702C66.538 18.3702 67.2765 18.1969 67.9075 17.8502C68.5384 17.5035 69.069 17.0629 69.4849 16.5212L71.5857 18.5003C70.7826 19.3237 69.9079 19.9593 68.9614 20.3926C68.015 20.826 66.9395 21.0355 65.7278 21.021C64.1145 21.021 62.6877 20.6599 61.4329 19.9304V19.9376Z" fill="black"/>
<path id="Vector_8" d="M94.3506 20.8477H91.0882L89.3889 16.4995H82.4124L80.6916 20.8477H77.4293L84.1404 3.95337H87.7828L94.3577 20.8477H94.3506ZM88.3564 13.8632L85.9616 7.64426L83.4378 13.8632H88.3564Z" fill="black"/>
<path id="Vector_9" d="M104.281 18.2402H112.218V20.8549H101.241V3.95337H104.281V18.233V18.2402Z" fill="black"/>
<path id="Vector_10" d="M13.8884 47.883H10.8483V40.5156H3.0401V47.883H0V30.9886H3.0401V37.9082H10.8483V30.9886H13.8884V47.883Z" fill="black"/>
<path id="Vector_11" d="M48.0393 45.2683H55.9765V47.883H44.9992V30.9886H48.0393V45.2683Z" fill="black"/>
<path id="Vector_12" d="M66.33 30.9886V47.883H63.2899V30.9886H66.33Z" fill="black"/>
<path id="Vector_13" d="M74.1095 30.9886H79.989C81.6166 30.9886 83.0577 31.3426 84.3268 32.0576C85.5959 32.7727 86.5854 33.7695 87.3024 35.0551C88.0194 36.3408 88.3779 37.7998 88.3779 39.4394C88.3779 41.079 88.0194 42.538 87.3024 43.8237C86.5854 45.1094 85.5959 46.1061 84.3268 46.8212C83.0577 47.5363 81.6166 47.8902 79.989 47.8902H74.1095V30.9959V30.9886ZM82.7996 44.5171C83.6098 44.0404 84.2408 43.3687 84.6782 42.4875C85.1155 41.6063 85.3378 40.5951 85.3378 39.4322C85.3378 38.2693 85.1155 37.2581 84.6782 36.3769C84.2408 35.4957 83.6098 34.824 82.7996 34.3473C81.9894 33.8706 81.0358 33.6394 79.9459 33.6394L77.1496 33.6611V45.1961L79.9459 45.2177C81.0358 45.2177 81.9822 44.9794 82.7996 44.5099V44.5171Z" fill="black"/>
<path id="Vector_14" d="M110.254 47.883H106.991L105.292 43.5348H98.3156L96.5948 47.883H93.3324L100.044 30.9886H103.686L110.261 47.883H110.254ZM104.26 40.8984L101.865 34.6795L99.3409 40.8984H104.26Z" fill="black"/>
<path id="Vector_15" d="M123.332 41.2812V47.883H120.292V41.2812L113.652 30.9886H117.273L121.812 38.421L126.372 30.9886H129.993L123.332 41.2812Z" fill="black"/>
</g>
</g>
<path id="Vector_16" d="M34.8822 5.67247C34.9038 5.70859 36.2015 4.84906 36.2302 4.8924C36.2589 4.94296 34.3445 6.20696 34.3732 6.25752C34.4162 6.33698 37.0333 4.62515 37.0691 4.69016C37.1336 4.80573 34.1796 6.56089 34.2154 6.61867C34.2513 6.67645 36.9544 4.88518 37.0117 4.99352C37.0691 5.10186 34.1079 6.79202 34.1509 6.87147C34.2154 6.98704 36.9042 5.15242 36.9544 5.2391C36.9902 5.30411 34.0792 6.90036 34.1366 7.0087C34.1724 7.06649 36.8612 5.30411 36.9114 5.39078C36.9616 5.47745 34.0792 7.06649 34.1366 7.16761C34.1868 7.25428 36.8182 5.49912 36.8612 5.5858C36.9114 5.67247 34.1294 7.29762 34.1652 7.3554C34.2083 7.43485 36.7465 5.75192 36.7895 5.83138C36.8397 5.91805 34.1222 7.31207 34.1796 7.40596C34.2154 7.46375 36.7249 5.82415 36.768 5.9036C36.8253 6.00472 34.2369 7.5432 34.2871 7.62265C34.323 7.68043 36.6174 6.19974 36.6461 6.2503C36.6963 6.32975 34.3086 7.62265 34.3517 7.68765C34.3947 7.75266 36.56 6.31531 36.5959 6.38031C36.6461 6.45977 34.366 7.68043 34.4019 7.74544C34.4305 7.796 36.517 6.45254 36.5457 6.5031C36.5815 6.56811 34.5811 7.80322 34.617 7.86823C34.6385 7.90434 36.3521 6.81369 36.3736 6.8498C36.4095 6.91481 34.6098 7.81767 34.6456 7.87545C34.6815 7.94046 36.3306 6.82813 36.3593 6.87869C36.3808 6.91481 34.7819 7.861 34.8105 7.91156C34.8321 7.9549 36.2087 7.04482 36.2302 7.08816C36.2517 7.11705 34.8105 7.87545 34.8321 7.91879C34.8536 7.96212 36.1944 7.07371 36.2159 7.11705C36.2446 7.16038 35.0543 7.86823 35.0758 7.91156C35.0902 7.94046 36.0008 7.32651 36.0223 7.36262C36.0295 7.37707 35.1762 7.861 35.1906 7.88267C35.1977 7.89712 35.9004 7.42763 35.9219 7.45652" stroke="#02B9B9" stroke-width="0.28" stroke-linecap="round" stroke-linejoin="round"/>
<path id="Vector_17" d="M33.5845 9.13948C33.5845 9.13948 33.8498 8.97335 33.8569 8.98058C33.8713 9.00224 32.8746 9.80398 32.889 9.82565C32.9033 9.85454 33.8856 9.22615 33.8928 9.2406C33.9286 9.3056 32.5448 10.2735 32.5592 10.2879C32.5663 10.3024 33.8856 9.43562 33.9215 9.4934C33.9573 9.55118 32.3942 10.5479 32.4158 10.5841C32.4588 10.6635 33.9071 9.64508 33.9358 9.70286C33.9501 9.72453 32.3369 10.6635 32.3799 10.743C32.3942 10.7646 33.9143 9.78231 33.943 9.83287C33.9717 9.89066 32.3154 10.8513 32.3512 10.9235C32.3871 10.9813 33.9143 9.94844 33.943 9.999C33.9717 10.0496 32.3369 11.1041 32.3512 11.133C32.3799 11.1836 33.9215 10.1651 33.943 10.2085C33.9788 10.2662 32.3225 11.1258 32.3584 11.1908C32.3727 11.2124 33.9143 10.2301 33.943 10.2735C33.9932 10.3529 32.3871 11.3858 32.4229 11.4364C32.4373 11.4652 33.9071 10.5479 33.9215 10.5624C33.9573 10.6202 32.4373 11.4725 32.4588 11.5158C32.4803 11.5591 33.8784 10.6346 33.9071 10.678C33.943 10.743 32.4803 11.5447 32.5018 11.5808C32.5161 11.6097 33.8784 10.7502 33.8856 10.7718C33.9071 10.8152 32.6237 11.6892 32.6524 11.7397C32.6595 11.7542 33.7924 11.0608 33.7996 11.0752C33.8282 11.1258 32.6452 11.7108 32.6667 11.7542C32.6954 11.8047 33.7637 11.068 33.7852 11.1041C33.7852 11.1185 32.7671 11.7758 32.7886 11.8119C32.8029 11.8336 33.6777 11.263 33.692 11.2847C33.6992 11.2991 32.7958 11.7903 32.8029 11.8119C32.8173 11.8336 33.6633 11.2775 33.6777 11.3063C33.6992 11.3425 32.975 11.7975 32.9965 11.8264C33.0037 11.8408 33.4913 11.5086 33.5056 11.5303" stroke="#02B9B9" stroke-width="0.28" stroke-linecap="round" stroke-linejoin="round"/>
</g>
</svg>
