<svg width="30" height="30" viewBox="0 0 30 30" fill="none" xmlns="http://www.w3.org/2000/svg">
<g id="Actions / Toggle / star / 24">
<path id="Fill" fill-rule="evenodd" clip-rule="evenodd" d="M15 6.11246L17.5875 11.3437L18.0187 12.2812L18.9562 12.4218L24.7312 13.2562L20.625 17.2875L19.9219 17.9718L20.0906 18.9093L21.075 24.6562L15.9094 21.9468L15 21.5625L14.1281 22.0218L8.96249 24.6937L9.89999 18.9468L10.0687 18.0093L9.37499 17.2875L5.23124 13.2093L11.0062 12.375L11.9437 12.2343L12.375 11.2968L15 6.11246ZM15.8967 3.6921C15.5299 2.94882 14.47 2.94882 14.1032 3.6921L10.9672 10.0468C10.8215 10.3422 10.5396 10.5469 10.2135 10.594L3.20625 11.6068C2.38578 11.7254 2.0576 12.7335 2.651 13.3124L7.72374 18.261C7.95929 18.4908 8.06671 18.8218 8.011 19.1461L6.8117 26.1283C6.6714 26.9451 7.52857 27.5682 8.26229 27.1828L14.535 23.888C14.8261 23.735 15.1739 23.735 15.465 23.888L21.7377 27.1828C22.4714 27.5683 23.3286 26.9451 23.1883 26.1283L21.989 19.1466C21.9333 18.822 22.0409 18.4908 22.2768 18.261L27.3485 13.3202C27.9422 12.7419 27.6149 11.7337 26.7947 11.6144L19.7857 10.5944C19.4601 10.547 19.1786 10.3425 19.033 10.0474L15.8967 3.6921Z" fill="#3B4B54"/>
</g>
</svg>
