<?xml version="1.0" encoding="utf-8"?>
<!-- Generator: Adobe Illustrator 27.7.0, SVG Export Plug-In . SVG Version: 6.00 Build 0)  -->
<svg version="1.1" id="레이어_1" xmlns="http://www.w3.org/2000/svg" xmlns:xlink="http://www.w3.org/1999/xlink" x="0px"
	 y="0px" viewBox="0 0 281 281" style="enable-background:new 0 0 281 281;" xml:space="preserve">
<style type="text/css">
	.st0{fill:#00D9BF;}
	.st1{clip-path:url(#SVGID_00000074400977773411428160000013098305245484418208_);}
	.st2{fill:#231F20;}
	.st3{clip-path:url(#SVGID_00000074400977773411428160000013098305245484418208_);fill:#231F20;}
	.st4{clip-path:url(#SVGID_00000074400977773411428160000013098305245484418208_);fill:#FFFFFF;}
	.st5{fill:#FFFFFF;}
</style>
<g>
	<g>
		<path d="M141.81,167.56c-0.83,4.37-3.25,8.34-6.35,11.5c-3.18,3.06-7.06,5.15-10.79,7.46c2.64-3.49,6.32-5.84,9.38-8.88
			C137.09,174.65,139.54,171.21,141.81,167.56L141.81,167.56z"/>
	</g>
	<g>
		<path class="st0" d="M114.5,247.5c0,0,7-8,6-11c0,0,0.35-1.76,2.17,0.12l13.39,29.91c0,0-9.35,13.39-13.96,4.18
			C122.11,270.71,112.5,248.5,114.5,247.5z"/>
		<path class="st0" d="M90.6,201.92c0,0,0.32-7.91,9.11-4.17c0,0,9.79,15.75,9.79,17.75l-3,4c0,0-4-9-7-9c0,0-1,1,1,9
			C100.5,219.5,91.7,206.34,90.6,201.92z"/>
		<g>
			<path class="st0" d="M227.19,110.46c0.29-1.91,1.44-3.67,3.07-4.71c1.63-1.04,3.71-1.34,5.56-0.8c0.76,0.22,1.53,0.63,1.85,1.35
				c0.27,0.6,0.15,1.33-0.17,1.9c-0.33,0.57-0.84,1.01-1.39,1.38C233.65,111.2,230.32,111.37,227.19,110.46z"/>
			<path d="M227.1,110.52c-0.43-2.5,1.3-5.17,3.69-5.99c1.23-0.4,2.51-0.28,3.67-0.14c1.24,0.21,2.47,0.3,3.46,1.27
				c1.11,1.14,0.61,3.09-0.44,4.04C234.79,112.45,230.21,112.53,227.1,110.52L227.1,110.52z M227.27,110.41
				c2.1-0.11,4.33-0.12,6.3-0.83c1.46-0.53,3.93-1.36,3.46-3.27c-0.4-0.88-1.67-1.26-2.62-1.27c-1.64,0.01-2.91,0.99-4.18,1.82
				C228.96,107.76,228.09,109.1,227.27,110.41L227.27,110.41z"/>
		</g>
		<g>
			<path class="st0" d="M195.25,125.24c-0.67-1.47-0.61-3.17-1.05-4.73c-0.44-1.56-1.75-3.14-3.35-2.92
				c-1.18,0.17-2.03,1.28-2.35,2.43c-0.79,2.87,1.37,6.18,4.31,6.61c-2.05,1.23-3.61,3.26-4.27,5.56c-0.2,0.68-0.31,1.45,0.04,2.06
				c0.32,0.56,0.97,0.87,1.6,0.95c1.55,0.2,3.08-0.75,3.94-2.05c0.86-1.3,1.16-2.89,1.28-4.45c0.49,1.36,1.19,2.64,2.08,3.78
				c0.45,0.58,0.96,1.13,1.63,1.43c1.86,0.84,4.15-0.89,4.33-2.92c0.17-2.03-1.29-3.93-3.11-4.85S196.4,125.1,195.25,125.24z"/>
			<path d="M195.25,125.24c-0.9-1.64-0.83-3.67-1.58-5.22c-1.32-2.75-4.2-2.45-4.59,0.64c-0.28,2.31,1.63,4.81,3.87,5.08
				c0,0,2.47,0.31,2.47,0.31l-2.14,1.34c-1.92,1.21-3.42,3.29-3.9,5.49c-0.34,1.31,1.07,1.54,2.09,1.18
				c3.54-1.32,2.94-6.68,3.42-9.78c0.96,2.71,1.93,6.78,4.2,8.68c1.27,1.03,3.16-0.17,3.62-1.56
				C203.67,127.52,198.72,125.02,195.25,125.24L195.25,125.24z M195.25,125.24c3.9-0.84,9.63,1.78,8.68,6.53
				c-0.46,1.75-2.09,3.15-3.95,3.13c-1.86-0.01-3.15-1.76-4.01-3.06c-0.58-0.89-1.06-1.84-1.43-2.83l1.8-0.24
				c-0.1,1.77-0.44,3.73-1.72,5.36c-1.32,1.66-3.67,2.73-5.78,1.66c-3.83-2.31,0.75-8.55,3.52-9.93c0,0,0.33,1.65,0.33,1.65
				c-3.23-0.53-5.52-3.88-4.99-7.06c0.26-1.55,1.4-3.22,3.11-3.4c1.68-0.18,2.99,1.32,3.48,2.7
				C194.94,121.63,194.61,123.49,195.25,125.24L195.25,125.24z"/>
		</g>
		<g>
			<path class="st0" d="M261.15,158.03c-0.14-1.73-0.43-3.46-0.84-5.15c-0.11-0.46-0.25-0.95-0.6-1.27
				c-0.55-0.51-1.47-0.44-2.08,0.01c-0.61,0.44-0.96,1.16-1.19,1.88c-0.88,2.74-0.3,5.89,1.49,8.14c-2.92-0.36-5.92,1.91-6.36,4.82
				c-0.07,0.48-0.08,0.98,0.11,1.42c0.47,1.06,1.88,1.31,3.02,1.13c2.8-0.43,5.24-2.66,5.91-5.42c0.3,2.39,3.09,3.99,5.41,3.37
				s3.92-3.03,3.95-5.44c0.01-1.01-0.22-2.05-0.82-2.87c-0.61-0.83-1.56-1.37-2.55-1.67c-2.31-0.72-5.28,0.03-6.29,2.23
				C260.31,158.66,260.31,158.09,261.15,158.03z"/>
			<path d="M261.15,158.03c-0.26-1.63-0.61-3.24-1.06-4.81c-0.21-0.81-0.51-1.51-1.14-1.54c-0.64-0.07-1.22,0.33-1.55,0.94
				c-1.33,2.66-0.72,6.25,1.17,8.5c0,0,1.27,1.52,1.27,1.52l-2.02-0.19c-1.54-0.14-3.14,0.58-4.18,1.76
				c-0.71,0.82-1.24,1.99-1.15,3.03c0.04,0.26,0.13,0.38,0.31,0.52c2.45,1.27,6.37-1.7,6.87-4.4c0,0,1.3-5.07,1.3-5.07l0.6,5.17
				c0.09,0.82,0.65,1.59,1.42,2.1c3.8,2.54,7.85-3.05,5.68-6.52c-1.81-2.53-6.65-2.71-8.26,0.21c0,0-0.26,0.48-0.26,0.48
				C260.22,159.04,260.14,157.97,261.15,158.03L261.15,158.03z M261.15,158.03c-0.68,0.05-0.81,0.61-0.73,1.19
				c0,0-0.22-0.05-0.22-0.05c0.94-2.35,3.86-3.19,6.2-2.72c6.23,1.06,5.17,10.16-0.42,11.42c-2.79,0.58-5.91-1.18-6.34-4.15
				c0,0,1.9,0.11,1.9,0.11c-0.91,3.99-5.94,7.86-9.93,5.49c-2.05-1.66-0.81-4.76,0.66-6.34c1.44-1.54,3.58-2.46,5.74-2.17
				l-0.75,1.34c-1.62-2.17-2.26-4.97-1.73-7.6c0.31-1.7,1.38-4.11,3.55-3.68c1.06,0.18,1.44,1.34,1.55,2.21
				C260.97,154.72,261.14,156.38,261.15,158.03L261.15,158.03z"/>
		</g>
		<g>
			<path class="st0" d="M199.09,137.6c4.42,1.21,7.93,5.52,8.22,10.1c-1.34-1.47-2.88-3.51-4.13-5.03
				C201.94,141.12,200.27,139.21,199.09,137.6L199.09,137.6z"/>
		</g>
		<g>
			<path class="st0" d="M222.08,101.78c-0.46,2.42-1.13,5.9-1.3,8.31c-0.26,2.39-0.23,5.96-0.22,8.41
				C217.59,113.4,218.25,106.27,222.08,101.78L222.08,101.78z"/>
		</g>
		<g>
			<path class="st0" d="M238.36,173.56c0.29-4.78,4.13-9.27,8.82-10.26C244.04,166.69,241.23,169.94,238.36,173.56L238.36,173.56z"
				/>
		</g>
		<g>
			<path class="st0" d="M220.22,99.78c1.57-0.41,3.05-1.17,4.3-2.2c0.31-0.25,0.61-0.54,0.73-0.93c0.24-0.77-0.39-1.54-1.07-1.98
				c-1.23-0.79-2.86-1.02-4.18-0.4c-1.32,0.62-2.21,2.17-1.89,3.59S220.07,100.34,220.22,99.78z"/>
			<path d="M220.22,99.78c1.53-0.83,2.88-1.81,3.96-2.94c0.24-0.28,0.27-0.44,0.24-0.53c-0.25-0.7-1.25-1.14-2.06-1.32
				c-1.33-0.29-2.65,0.16-3.34,1.35c-0.69,1.08-0.29,2.57,0.7,3.36C219.87,99.81,220.08,99.98,220.22,99.78L220.22,99.78z
				 M220.22,99.78c0,0.12-0.13,0.21-0.25,0.23c-0.86,0.01-1.56-0.62-2.06-1.28c-1.93-3.09,1.65-6.57,4.86-5.68
				c1.54,0.35,3.38,1.38,3.4,3.31C225.94,98.62,222.07,99.74,220.22,99.78L220.22,99.78z"/>
		</g>
		<g>
			<path class="st0" d="M202.22,122.78c1.57-0.41,3.05-1.17,4.3-2.2c0.31-0.25,0.61-0.54,0.73-0.93c0.24-0.77-0.39-1.54-1.07-1.98
				c-1.23-0.79-2.86-1.02-4.18-0.4c-1.32,0.62-2.21,2.17-1.89,3.59S202.07,123.34,202.22,122.78z"/>
			<path d="M202.22,122.78c1.53-0.83,2.88-1.81,3.96-2.94c0.24-0.28,0.27-0.44,0.24-0.53c-0.25-0.7-1.25-1.14-2.06-1.32
				c-1.33-0.29-2.65,0.16-3.34,1.35c-0.69,1.08-0.29,2.57,0.7,3.36C201.87,122.81,202.08,122.98,202.22,122.78L202.22,122.78z
				 M202.22,122.78c0,0.12-0.13,0.21-0.25,0.23c-0.86,0.01-1.56-0.62-2.06-1.28c-1.93-3.09,1.65-6.57,4.86-5.68
				c1.54,0.35,3.38,1.38,3.4,3.31C207.94,121.62,204.07,122.74,202.22,122.78L202.22,122.78z"/>
		</g>
		<g>
			<path class="st0" d="M250.79,147.3c1.52-1.65,2.77-3.55,3.68-5.6c-0.84-1.1-2.61-0.71-3.74,0.09c-1.01,0.71-1.89,1.78-1.87,3.02
				S250.21,147.21,250.79,147.3z"/>
			<path d="M250.79,147.3c1.31-1.85,2.4-3.77,3.25-5.8l0.06,0.48c-1.09-1.15-3.19,0.02-4.09,1.06
				C248.64,144.37,249.17,146.45,250.79,147.3L250.79,147.3z M250.79,147.3c-3.87-1.3-2.19-5.55,0.98-6.58
				c1.11-0.41,2.6-0.22,3.25,0.92C254.04,143.82,252.6,145.8,250.79,147.3L250.79,147.3z"/>
		</g>
		<g>
			<defs>
				<circle id="SVGID_1_" cx="140.5" cy="139.5" r="140.5"/>
			</defs>
			<clipPath id="SVGID_00000047773493284401936620000014103195036882511517_">
				<use xlink:href="#SVGID_1_"  style="overflow:visible;"/>
			</clipPath>
			<g style="clip-path:url(#SVGID_00000047773493284401936620000014103195036882511517_);">
				<path d="M110.33,215.59c-3.97-5.95-7.6-12.02-10.96-18.34C103.88,202.8,107.57,208.99,110.33,215.59L110.33,215.59z"/>
			</g>
			<path style="clip-path:url(#SVGID_00000047773493284401936620000014103195036882511517_);" d="M98.81,98.33
				c-0.9-3.09-4.23-4.94-7.22-3.76c-2.25,0.89-3.85,3.08-4.43,5.44c-0.6,2.45-0.23,5.05,0.58,7.43c1.07,3.17,3.01,6.2,5.95,7.79
				c2.95,1.59,6.99,1.38,9.12-1.24c0,0,4.68,7.57,3.02,10.33c0,0-11.61-7.19-16.59,3.32c0,0-26.24-14.1-5.43-53.37
				c0,0,18.65-32.43,72.35-13.55c1.97,0.69,4.2,3.17,5.38,4.89c4.4,6.38,13.19,23.52-0.83,44.12c-17.83,26.21,0,0,0,0
				s-3.35-59.27-33.26-42.52c0,0-2.26,15.9-22.72,26.83c0,0-1.66,13.14,6.64,21.44C111.37,115.49,104.05,116.24,98.81,98.33z"/>
			<path style="clip-path:url(#SVGID_00000047773493284401936620000014103195036882511517_);" d="M116.36,197.9
				c3.05-4.53,2.46-10.71-0.27-15.42c-2.73-4.72-7.27-8.2-11.99-11.1c-4.71-2.9-9.74-5.38-14.12-8.73c-4.38-3.36-8.17-7.8-9.3-13.1
				c-1.62-7.65,2.65-15.43,8.33-20.97c1.61-2.48,4.89-3.84,8.02-3.8c3.14,0.04,6.13,1.31,8.82,1.28
				c9.75,8.72,16.3,20.73,18.21,33.44C125.98,172.2,123.25,185.52,116.36,197.9z"/>
			<g style="clip-path:url(#SVGID_00000047773493284401936620000014103195036882511517_);">
				<path d="M156.22,85.79c3.95,8.93,5.59,19.21,3.04,28.84c-2.57,9.72-9.78,18.61-19.7,21.5c-21.39,5.93-40.12-12.81-39.09-33.66
					c1.6,19.53,18.22,36.17,38.25,30.79c8.97-2.54,15.52-10.56,18.31-19.27C159.89,104.86,158.91,94.92,156.22,85.79L156.22,85.79z"
					/>
			</g>
			<g style="clip-path:url(#SVGID_00000047773493284401936620000014103195036882511517_);">
				<path d="M137.04,135.58c0.82,5.6-0.55,11.62-3.74,16.3C135.23,146.53,136.45,141.23,137.04,135.58L137.04,135.58z"/>
			</g>
			<g style="clip-path:url(#SVGID_00000047773493284401936620000014103195036882511517_);">
				<path d="M138.63,141.89c6.12-1.66,11.47,4.99,7.45,10.41c-5.2,6.28-15.15,9.52-23.08,8.72c3.2-0.87,6.25-1.86,9.17-3.11
					c3.89-1.89,13.44-5.95,12.8-10.81C144.59,144.1,141.61,142.24,138.63,141.89L138.63,141.89z"/>
			</g>
			<g style="clip-path:url(#SVGID_00000047773493284401936620000014103195036882511517_);">
				<path d="M127.5,62.85c1.36,14.07-10.41,24.98-21.13,32.13c0,0,0.6-0.86,0.6-0.86c-0.49,1.99-0.6,4.05-0.45,6.1
					c0.5,6.17,3.81,12.15,8.96,15.64c0,0,4.55,3.11,4.55,3.11l-5.35-0.95c-3.96-0.7-7.49-2.89-10-5.83
					c-2.46-2.91-4.01-6.68-3.87-10.49c0.26,1.85,0.86,3.61,1.71,5.2c2.46,4.67,7.33,8.19,12.51,8.79c0,0-0.8,2.16-0.8,2.16
					c-8.36-4.9-12.63-15.69-9.98-25C114.92,85.83,126.62,76.61,127.5,62.85L127.5,62.85z"/>
			</g>
			<g style="clip-path:url(#SVGID_00000047773493284401936620000014103195036882511517_);">
				<path d="M98.43,96.66c-2.06-2.91-6.47-2.7-8.57-0.08c-2.16,2.45-2.37,6.01-1.48,9.21c0.83,3.19,2.47,6.35,5.18,8.29
					c2.69,1.92,6.75,2.21,9.31-0.22c-2.09,3.25-7.01,3.48-10.15,1.54c-3.32-1.95-5.29-5.5-6.27-9.1
					c-1.34-4.51-0.06-10.52,4.75-12.38C93.82,92.86,97.42,93.99,98.43,96.66L98.43,96.66z"/>
			</g>
			<g style="clip-path:url(#SVGID_00000047773493284401936620000014103195036882511517_);">
				<path d="M92.39,100.75c3.91,1.03,7.08,5.35,6.8,9.32c0,0,0.02-0.11,0.02-0.11l0.02,0.11C97.83,106.34,95.71,103.11,92.39,100.75
					L92.39,100.75z"/>
			</g>
			<g style="clip-path:url(#SVGID_00000047773493284401936620000014103195036882511517_);">
				<path d="M96.37,104.07c-1.58,1.43-2.62,2.6-3.83,4.36C92.29,106.29,94.22,104.11,96.37,104.07L96.37,104.07z"/>
			</g>
			<g style="clip-path:url(#SVGID_00000047773493284401936620000014103195036882511517_);">
				<path d="M133.72,64.75c4.98-5.72,14.46,3.33,17.81,7.41c4.4,5.42,7.29,12.35,7.19,19.36c-1.18-3.26-2.44-6.35-4.03-9.27
					c-3.14-5.82-7.34-10.95-12.38-15.26C139.92,64.92,136.84,62.86,133.72,64.75L133.72,64.75z"/>
			</g>
			<g style="clip-path:url(#SVGID_00000047773493284401936620000014103195036882511517_);">
				<path d="M158.35,61.7c11.6,7.99,15.77,24.69,10.04,37.45c-1.82,4.27-4.58,8.14-8.12,11c2.61-3.71,4.61-7.66,5.93-11.81
					C170.37,85.69,166.93,71.76,158.35,61.7L158.35,61.7z"/>
			</g>
			<g style="clip-path:url(#SVGID_00000047773493284401936620000014103195036882511517_);">
				<path class="st0" d="M89.09,127.59c0.63-7.58,12.14-9.95,15.7-3.21c-1.57-0.56-2.97-0.91-4.36-1.05
					C96.07,122.82,92.28,124.56,89.09,127.59L89.09,127.59z"/>
			</g>
			<g style="clip-path:url(#SVGID_00000047773493284401936620000014103195036882511517_);">
				<path d="M82.97,74.14c-2.3,9.43-5.58,18.79-5.5,28.5c0.03,9.51,3.67,19.15,11.61,24.95c-9.64-3.84-14.62-14.96-14.61-24.94
					C74.51,92.55,78.34,82.93,82.97,74.14L82.97,74.14z"/>
			</g>
			<g style="clip-path:url(#SVGID_00000047773493284401936620000014103195036882511517_);">
				<path d="M90.45,127.05c-12.65,13.74-13.28,27.54,3.34,38.13c6.25,4.11,13.33,7.17,18.82,12.55c4.25,4.02,7.33,9.79,7.44,15.81
					c0.02,2.11-0.05,4.15-0.97,6.17c0,0-2.67-1.27-2.67-1.27c1.25-2.75,2.02-6.27,3.19-9.17c5.83-15.18,4.95-32.64-2.34-47.2
					c-2.85-5.88-6.75-11.26-11.39-15.97c5.07,4.26,9.28,9.54,12.6,15.33c8.36,14.59,9.75,32.98,3.88,48.74
					c-0.5,1.32-1.15,3.33-1.56,4.66c-0.47,1.56-0.92,3.24-1.71,4.89c-0.35,0.74-1.24,1.05-1.97,0.7c-0.74-0.35-1.05-1.24-0.7-1.97
					c2.15-6.5-0.92-14.01-5.82-18.65c-5.22-5.19-12.09-8.33-18.17-12.56C75.43,155.7,75.9,140.4,90.45,127.05L90.45,127.05z"/>
			</g>
			<g style="clip-path:url(#SVGID_00000047773493284401936620000014103195036882511517_);">
				<path class="st0" d="M90.45,127.05c1.31-2.75,4.72-4.01,7.62-3.72c2.96,0.27,5.16,1.53,7.79,2.77
					c-2.58,1.13-5.49,0.39-8.04,0.22C95.26,126.08,93.07,126.34,90.45,127.05L90.45,127.05z"/>
			</g>
			<g style="clip-path:url(#SVGID_00000047773493284401936620000014103195036882511517_);">
				<path class="st2" d="M105.94,124.98c-1.84-0.96-1.62-2.23,0.44-2.51C108.22,123.43,107.99,124.7,105.94,124.98L105.94,124.98z"
					/>
			</g>
			<g style="clip-path:url(#SVGID_00000047773493284401936620000014103195036882511517_);">
				<path d="M139.08,95.85c1.31,3.79,4.19,6.62,5.46,10.47c1.05,2.83,0.59,6.61-2.15,8.39c-0.86,0.56-1.9,0.87-2.89,0.71
					c0.99-0.07,1.89-0.46,2.59-1.1C147.84,108.63,139.83,101.94,139.08,95.85L139.08,95.85z"/>
			</g>
			<g style="clip-path:url(#SVGID_00000047773493284401936620000014103195036882511517_);">
				<path d="M124.87,94.79c-1.44,0.61-3.23,0.02-3.97-1.36C122.47,93.65,123.51,93.99,124.87,94.79L124.87,94.79z"/>
			</g>
			<g style="clip-path:url(#SVGID_00000047773493284401936620000014103195036882511517_);">
				<path d="M125.85,116.49c5.27,4.56,12.79,5.1,18.67,1.36C140.29,124.38,129.09,123.55,125.85,116.49L125.85,116.49z"/>
			</g>
			<g style="clip-path:url(#SVGID_00000047773493284401936620000014103195036882511517_);">
				<path d="M80.61,81.77c1.07-9.78,9.05-17.18,17.38-21.5c11.94-6.11,25.89-8.08,39.09-5.93c7.49,1.23,14.78,3.79,21.25,7.72
					c-6.94-2.76-14.16-4.64-21.56-5.4C117.73,54.51,86.89,60.96,80.61,81.77L80.61,81.77z"/>
			</g>
			<g style="clip-path:url(#SVGID_00000047773493284401936620000014103195036882511517_);">
				<path d="M74.26,102.84C58.19,106,43.5,91.79,49.22,75.57c6.17-14.24,24.87-17.23,38.09-20.43c9.25-2.02,18.6-4.13,26.73-9
					c12-7.1,23.13-19.85,38.39-20.88c15.36-1.2,30.6,12.03,30.12,27.7c-0.1,7.42-3.21,14.77-8.51,19.96
					c-1.77,1.69-3.75,3.13-5.88,4.27c8.18-5.25,12.8-14.91,12.43-24.2c-0.22-11.7-9.9-21.77-21.16-23.86
					c-6.82-1.45-13.6,0.55-19.64,3.95c-8.2,4.48-15.13,11.36-23.71,16.5c-4.33,2.53-9.01,4.42-13.74,5.84
					c-9.32,2.84-18.96,4.02-28.26,6.57c-8.57,2.52-18.47,5.9-22.45,14.57C45.86,91.43,59.24,104.51,74.26,102.84L74.26,102.84z"/>
			</g>
			<g style="clip-path:url(#SVGID_00000047773493284401936620000014103195036882511517_);">
				<path d="M75.79,59.75c-0.03-8.88,6.59-16.48,14.1-20.52c7.66-4.11,16.21-5.79,24.67-7.37c5.48-0.99,12.54-0.19,15.69,4.99
					c-3.78-4.52-10.08-4.63-15.41-3.45c-10.66,2.65-22.4,4.69-30.9,12.13C79.76,49.2,76.53,54.16,75.79,59.75L75.79,59.75z"/>
			</g>
			<g style="clip-path:url(#SVGID_00000047773493284401936620000014103195036882511517_);">
				<path d="M79.88,146.16c-9.19,3.13-20.64,6.3-22.34,17.35c-0.6,3.28-0.54,6.8-0.72,10.36C50.64,155.66,62.41,146.04,79.88,146.16
					L79.88,146.16z"/>
			</g>
			<g style="clip-path:url(#SVGID_00000047773493284401936620000014103195036882511517_);">
				<path d="M56.83,187.91c-1.37,6.43-3.59,12.55-6.03,18.61c-2.36,4.58,2.36,7.51,5.73,9.77c1.34,0.96,2.72,2.02,3.64,3.42
					c-2.74-1.87-5.88-2.35-8.89-4.34c-2.27-1.46-4.41-4.27-4.04-7.28c0.97-4.2,3.06-7.73,4.81-11.61
					C53.48,193.57,55.02,190.69,56.83,187.91L56.83,187.91z"/>
			</g>
			<g style="clip-path:url(#SVGID_00000047773493284401936620000014103195036882511517_);">
				<path d="M49.37,209.93c-0.74-10.55,18.56-6.85,24.47-4.41c5.54,2.09,10.66,5.35,14.78,9.61c1.7,1.71,3.66,3.89,3.39,6.6
					c-0.13,1.35-1.12,3.03-2.71,2.84c-0.57,0.15-2.78,0.5-3.94,0.68c1.33-0.54,2.63-1.18,3.99-1.6c0.82-0.04,1.21-1.08,1.16-2.01
					c-0.02-0.92-0.49-1.81-1.13-2.59c-4.56-4.76-10.5-8.33-16.6-10.77c-4.15-1.62-8.51-2.68-12.95-3.16
					C55.72,204.54,49.95,204.74,49.37,209.93L49.37,209.93z"/>
			</g>
			<g style="clip-path:url(#SVGID_00000047773493284401936620000014103195036882511517_);">
				<path class="st2" d="M84.12,214.27c0.27,8.3,0.75,16.45,1.45,24.73C83.51,230.97,83.02,222.49,84.12,214.27L84.12,214.27z"/>
			</g>
			<g style="clip-path:url(#SVGID_00000047773493284401936620000014103195036882511517_);">
				<path d="M60.43,205.01c0.72,20.23,2.65,40.31,5.86,60.3C60.36,245.9,58.39,225.2,60.43,205.01L60.43,205.01z"/>
			</g>
			<g style="clip-path:url(#SVGID_00000047773493284401936620000014103195036882511517_);">
				<path d="M73.99,250.66c6.76-7.24,14.91-13.21,23.64-17.91c-0.02,0.01,0.07-0.04-0.04,0.02c-0.07,0.04-0.13,0.1-0.18,0.16
					c-0.14,0.2-0.04,0.05-0.1,0.16c0.35-2.06,0.92-4.39,1.85-6.34c0.81-1.6,1.55-2.95,1.47-4.44c-0.04-1.5-0.58-3.16-1.06-4.76
					c-0.52-1.69-2.01-3.37-1.54-5.32c0.2-0.94,0.44-2.43,1.78-2.37c0.38,0.03,0.66,0.25,0.87,0.38c0.89,0.58,1.69,1.3,2.38,2.1
					c2.13,2.29,2.66,5.42,3.48,8.22c0.01,0.02,0.05,0.11,0.06,0.13c-0.19-0.44-1.01-0.68-1.43-0.25c-0.06,0.07,0.03-0.04,0.06-0.1
					l0.14-0.23c0.02-0.03,0.07-0.13,0,0.01c0.01-0.04,0.04-0.1,0.05-0.14c0.25-1.07,1.05-2.09,1.88-2.76
					c2.14-1.79,4.49-3.46,7.39-3.63c2.14-0.22,4.82,1.83,3.93,4.19c0,0-0.8-1.04-0.8-1.04c1.21-0.08,2.34,0.41,3.17,1.15
					c0.82,0.74,1.47,1.79,1.44,3.05l-0.35-0.61c2.54,1.51,3.95,4.39,4.1,7.25c0,0-0.31-0.42-0.31-0.42
					c4.78,2.16,2.99,9.35,0.21,12.47c2.26-3.01,3.81-10.23-0.83-11.65c-0.2-2.73-1.66-5.48-4.18-6.65c0,0,0-0.43,0-0.43
					c-0.01-1.41-1.72-2.79-3.11-2.6c0,0-1.2,0.14-1.2,0.14l0.4-1.18c0.16-0.47-0.05-1-0.56-1.41c-2.25-1.98-8.38,2.11-9.26,4.45
					c-0.06,0.18-0.18,0.56-0.27,0.71c-0.21,0.34-0.25,0.47-0.57,0.82c-0.4,0.4-1.08,0.47-1.52-0.06c-0.7-1.13-0.79-2.71-1.24-3.93
					c-0.68-2.37-1.98-4.36-3.95-5.76c0,0-0.41-0.28-0.41-0.28c0.01,0.01,0.06,0.03,0.19,0.05c0.12,0.02,0.35-0.02,0.51-0.13
					c0.3-0.25,0.2-0.26,0.18-0.15c-0.76,1.5-0.14,2.69,0.63,4.08c1.09,2.98,2.34,6.42,1.03,9.53c-0.71,1.68-1.62,2.92-2.09,4.65
					c-0.46,1.4-0.67,2.47-1.07,3.95c-0.05,0.13-0.24,0.35-0.41,0.42C89.58,238.6,81.34,244.04,73.99,250.66L73.99,250.66z"/>
			</g>
			<g style="clip-path:url(#SVGID_00000047773493284401936620000014103195036882511517_);">
				<path d="M123.33,236.61c-0.93-0.22-1.87-0.43-2.8-0.67l0.44-0.28c0.19,8.32-7.96,16.65-16.55,14.63c0,0,1.14-0.16,1.14-0.16
					c-2.29,1.44-4.51,3-6.66,4.68c-6.43,5.2-12.73,10.61-18.6,16.46c1.4-2.43,3.09-4.69,4.88-6.85
					c5.64-6.55,11.87-12.76,19.42-17.12c1.75,0.57,3.63,0.56,5.51,0.02c5.25-1.55,9.18-6.36,10.22-11.72c0,0,0.09-0.44,0.09-0.44
					C121.39,235.61,122.36,236.11,123.33,236.61L123.33,236.61z"/>
			</g>
			<g style="clip-path:url(#SVGID_00000047773493284401936620000014103195036882511517_);">
				<path d="M137.42,141.71c6.54,1.31,12.98-0.85,19.95,0.55c7.06,1.35,11.59,7.65,15.48,13c0,0,5.76,8.05,5.76,8.05
					c5.68,8.13,11.26,16.31,16.33,24.86c-8.61-9.79-16.78-20.63-24.52-31.15c-7.02-10.07-10.45-13.51-23.19-13.6
					C143.95,143.23,140.51,142.98,137.42,141.71L137.42,141.71z"/>
			</g>
			<g style="clip-path:url(#SVGID_00000047773493284401936620000014103195036882511517_);">
				<path d="M91.78,221.18c-1.63-2.39-2.42-5.22-2.73-8.06c-0.26-2.85-0.06-5.78,1.06-8.44c0.25,1.43,0.38,2.81,0.52,4.18
					C90.97,212.72,91.59,217.3,91.78,221.18L91.78,221.18z"/>
			</g>
			<g style="clip-path:url(#SVGID_00000047773493284401936620000014103195036882511517_);">
				<path d="M157.27,173.27c2.92,27.01,10.41,53.55,22.69,77.8c0,0,0.28,0.56,0.28,0.56l-0.18,0.53
					c-5.04,11.55-21.26,18.43-32.67,21.77c-12.63,3.44-25.77,4.74-38.81,4.31c12.91-0.74,25.82-2.71,38.15-6.52
					c10.66-3.62,24.24-9.46,30.09-19.52c0.16-0.3,0.31-0.69,0.38-0.86l0.1,1.09C164.94,227.94,157.8,200.71,157.27,173.27
					L157.27,173.27z"/>
			</g>
			<g style="clip-path:url(#SVGID_00000047773493284401936620000014103195036882511517_);">
				<path d="M168.26,223.71c-1.92-4.07-0.17-8.92,1.43-12.8c1.62-3.98,3.46-7.92,5.79-11.65c2.73-4.8,12.74-15.67,18.73-11.28
					c0.89,0.71,1.54,1.86,1.35,2.99c-0.17-1.09-0.94-1.87-1.81-2.3c-2.92-1.33-5.55,0.97-7.84,2.76c-4.76,3.97-8.1,9.43-11.08,14.86
					c-1.04,1.84-1.99,3.74-3.03,5.62C169.84,215.62,167.65,219.34,168.26,223.71L168.26,223.71z"/>
			</g>
			<g style="clip-path:url(#SVGID_00000047773493284401936620000014103195036882511517_);">
				<path d="M191.06,218.98c-2.22-4.96-0.48-10.74,1.16-15.61c5.16-14.92,14.6-28.58,27.2-38.15c-3.35,4.05-6.6,8.09-9.65,12.26
					c-5.27,7.32-9.94,15.05-13.78,23.22C193.52,206.48,189.96,212.47,191.06,218.98L191.06,218.98z"/>
			</g>
			<g style="clip-path:url(#SVGID_00000047773493284401936620000014103195036882511517_);">
				<path d="M192.08,188.53c1.96,1.4,3.4,3.24,4.27,5.49C194.38,192.62,192.95,190.77,192.08,188.53L192.08,188.53z"/>
			</g>
			<g style="clip-path:url(#SVGID_00000047773493284401936620000014103195036882511517_);">
				<path d="M218.91,165.58c3.54-4.92,2.12-9.74-0.88-14.49c-1.87-3.53-3.15-7.36-3.93-11.28c-0.12-1.39-1.17-3.75,0.72-4.45
					c3.67-1.22,5.95,5.88,7,8.25c-0.07-0.1-0.2-0.13-0.16-0.12c1.77-0.29,1.72-2.59,1.84-4.06c0.13-1.42,0.27-4.41,0.36-5.85
					c0.12-3.97-0.33-7.75-0.87-11.7c-0.28-5.7,7.86-6.42,11.32-3.44c2.43,1.79,3.94,4.23,5.23,6.59c6.63,11.98,6.3,27.28-0.37,39.19
					c-2.8,3.99-4.89,8.46-6.46,13.15c-1.58,4.64-2.67,9.46-3.78,14.32c-2.19,9.78-4.41,19.94-9.99,28.51
					c-4.16,6.36-10.12,12.35-17.82,14.01c-5.26,1.18-10.4-1.51-14.29-4.76c-5.91-4.65-11-10.42-14.71-16.94
					c2.75,4.17,6,7.98,9.63,11.36c3.61,3.22,7.56,6.55,12.09,8.26c4.59,1.73,9.52,0.18,13.39-2.53
					c12.45-8.73,16.11-24.38,18.95-38.51c1.02-4.89,2.15-9.82,3.75-14.65c1.48-4.6,4.07-10.16,6.62-13.68
					c6.2-11.04,6.54-25.22,0.55-36.42c-1.17-2.25-2.54-4.4-4.36-5.76c-1.89-1.53-5.42-1.97-7.05,0c-0.65,1.28,0.18,3.52,0.17,5.04
					c0.39,3.85,0.26,8.16-0.14,12.02c-0.37,2.81,0.11,6.66-3.52,7.65c-0.6,0.11-1.32,0.06-1.81-0.54c-0.25-0.34-0.29-0.57-0.35-0.7
					c-0.9-2.4-1.82-5.15-3.6-7c-0.36-0.31-0.86-0.43-1.24-0.23c-0.12,0.17-0.07,0.45-0.03,0.84c0.46,4.5,1.63,8.96,3.57,13.06
					C221.61,155.76,222.84,160.69,218.91,165.58L218.91,165.58z"/>
			</g>
			<g style="clip-path:url(#SVGID_00000047773493284401936620000014103195036882511517_);">
				<path d="M27.14,217c3.1-14.55,15.22-26.65,29.69-30.13c10.28-1.6,21.24,1.18,29.39,7.68c0,0,4.55,5.6,4.55,5.6l-1.54,0.21
					c1.66-3.76,6.17-5.94,10.14-4.69c0,0-1.13,1.37-1.13,1.37c-4.33-8.02-8.35-16.21-12.12-24.52c0,0,0.86,0.55,0.86,0.55
					c-0.22,0-0.3-0.03-0.53-0.16c-0.61-0.43-0.45-1.13-0.19-1.48c0,0,0.26,1.28,0.26,1.28c-5.81-4.07-13.53-3.89-20.15-1.89
					c-13.73,4.1-25.77,13.61-32.83,26.14c-3.62,6.21-5.92,13.39-7.05,20.39C26.23,217.03,26.95,217.03,27.14,217L27.14,217z
					 M27.14,217c-0.22,0.04-0.45,0.05-0.63,0.16c-0.06,0.04-0.01,0.11,0.04,0.17c0.56-7.1,2.9-14.35,6.26-20.78
					c6.85-12.97,19.03-23.07,33.09-27.38c7.06-2.2,15.37-2.39,21.73,2.01c0,0,0.73,0.5,0.73,0.5l-0.47,0.78c0,0-0.06,0.1-0.02,0.03
					c0.01-0.03,0.02-0.02,0.05-0.15c-0.02-0.07,0.12-0.13-0.08-0.66c-0.09-0.22-0.42-0.45-0.63-0.48c-0.09-0.02-0.12-0.01-0.19-0.02
					c0,0,0.86,0.55,0.86,0.55c3.83,8.24,7.87,16.37,12.09,24.41c0,0,1.09,2.06,1.09,2.06l-2.22-0.69c-3.06-0.99-6.6,0.72-7.91,3.63
					c0,0-0.63,1.35-0.63,1.35c-0.48-0.6-4.86-6.07-5.47-6.83c-6.78-5.45-18.41-8.93-27.69-7.45C42.93,191.36,30.86,202.86,27.14,217
					L27.14,217z"/>
			</g>
			<g style="clip-path:url(#SVGID_00000047773493284401936620000014103195036882511517_);">
				<path d="M85.8,172.22c-5.39-1.02-8.43,4.7-12.68,6.97c-4.37,2.76-9.41,4.63-14.58,4.87c4.74-1.81,9.27-3.81,13.51-6.56
					C76.09,175.29,80.66,169.43,85.8,172.22L85.8,172.22z"/>
			</g>
			<g style="clip-path:url(#SVGID_00000047773493284401936620000014103195036882511517_);">
				<path d="M90,200.78c3.97,6.12,7.35,12.56,10.1,19.32C96.12,213.98,92.76,207.53,90,200.78L90,200.78z"/>
			</g>
			<g style="clip-path:url(#SVGID_00000047773493284401936620000014103195036882511517_);">
				<path d="M113.86,247.55c3.95,7.71,6.89,15.89,8.71,24.36C118.17,264.44,115.2,256.11,113.86,247.55L113.86,247.55z"/>
			</g>
			<g style="clip-path:url(#SVGID_00000047773493284401936620000014103195036882511517_);">
				<path d="M122.54,236.32c5.84,9.68,10.5,20.07,13.82,30.87C130.51,257.51,125.87,247.12,122.54,236.32L122.54,236.32z"/>
			</g>
			<g style="clip-path:url(#SVGID_00000047773493284401936620000014103195036882511517_);">
				<path d="M122.41,270.42c0.47,1.62,1.89,2.4,3.21,2.63c2.82,0.32,5.63-1.78,7.84-3.39c1.16-0.96,2.18-2.07,2.64-3.68
					c0.2,0.81,0.1,1.72-0.19,2.55c-1.52,3.64-6.61,7.35-10.71,6.03C123.54,273.98,121.97,272.21,122.41,270.42L122.41,270.42z"/>
			</g>
			<g style="clip-path:url(#SVGID_00000047773493284401936620000014103195036882511517_);">
				<path d="M125.49,267.19c0.02-2.49,3.59-3.89,5.29-2.05C128.98,266.21,127.54,266.76,125.49,267.19L125.49,267.19z"/>
			</g>
			<g style="clip-path:url(#SVGID_00000047773493284401936620000014103195036882511517_);">
				<path d="M60.67,86.17c-1.26-4.84,1.3-10.85,6.07-12.72C64.03,77.34,62.23,81.74,60.67,86.17L60.67,86.17z"/>
			</g>
			<g style="clip-path:url(#SVGID_00000047773493284401936620000014103195036882511517_);">
				<path d="M64.21,83.8c-0.15-3.05,1.5-6,3.88-7.83c0.81-0.6,1.72-1.09,2.75-1.29c-0.55,0.89-1.1,1.64-1.63,2.4
					C67.63,79.22,65.98,81.79,64.21,83.8L64.21,83.8z"/>
			</g>
			<g style="clip-path:url(#SVGID_00000047773493284401936620000014103195036882511517_);">
				<path d="M161.4,46.31c4.25,0.14,7.54,4.37,8.1,8.35C166.45,52.08,164.37,48.99,161.4,46.31L161.4,46.31z"/>
			</g>
			<g style="clip-path:url(#SVGID_00000047773493284401936620000014103195036882511517_);">
				<path d="M142,83c1.83-1.09,4.17-0.85,6.1-0.18c1.94,0.71,3.7,1.89,4.87,3.63c-1.05-0.2-1.97-0.51-2.88-0.81
					C147.43,84.72,144.75,83.68,142,83L142,83z"/>
			</g>
			<g style="clip-path:url(#SVGID_00000047773493284401936620000014103195036882511517_);">
				<path d="M133,84c-3.02,0.54-6,1.61-8.88,2.58c-0.99,0.32-1.99,0.66-3.11,0.9c1.33-1.83,3.27-3.06,5.39-3.78
					C128.51,83.02,131.03,82.82,133,84L133,84z"/>
			</g>
			<g style="clip-path:url(#SVGID_00000047773493284401936620000014103195036882511517_);">
				<path d="M163.47,40.04c4.65,1.3,7.82,6.14,8.38,10.78c-1.45-1.5-3.01-3.74-4.25-5.39C166.37,43.78,164.78,41.66,163.47,40.04
					L163.47,40.04z"/>
			</g>
			
				<ellipse transform="matrix(0.9966 -0.082 0.082 0.9966 -7.5908 10.7479)" style="clip-path:url(#SVGID_00000047773493284401936620000014103195036882511517_);fill:#231F20;" cx="127.07" cy="97.8" rx="3.04" ry="4.98"/>
			
				<ellipse transform="matrix(0.9966 -0.082 0.082 0.9966 -7.3387 12.4638)" style="clip-path:url(#SVGID_00000047773493284401936620000014103195036882511517_);fill:#231F20;" cx="148.08" cy="95.58" rx="3.04" ry="4.98"/>
			
				<ellipse transform="matrix(0.9966 -0.082 0.082 0.9966 -7.3387 12.4638)" style="clip-path:url(#SVGID_00000047773493284401936620000014103195036882511517_);fill:#231F20;" cx="148.08" cy="95.58" rx="3.04" ry="4.98"/>
			
				<ellipse transform="matrix(0.9966 -0.082 0.082 0.9966 -7.3954 10.8828)" style="clip-path:url(#SVGID_00000047773493284401936620000014103195036882511517_);fill:#FFFFFF;" cx="128.81" cy="95.48" rx="1.68" ry="2.75"/>
			
				<ellipse transform="matrix(0.9966 -0.082 0.082 0.9966 -7.1519 12.599)" style="clip-path:url(#SVGID_00000047773493284401936620000014103195036882511517_);fill:#FFFFFF;" cx="149.82" cy="93.38" rx="1.68" ry="2.75"/>
			<g style="clip-path:url(#SVGID_00000047773493284401936620000014103195036882511517_);">
				<path class="st5" d="M101.3,81.75c1.97-3.67,4.32-6.91,7.24-9.88C108.12,76.1,105.21,80.06,101.3,81.75L101.3,81.75z"/>
			</g>
			<g style="clip-path:url(#SVGID_00000047773493284401936620000014103195036882511517_);">
				<path class="st5" d="M108.59,80.6c1.55-3.38,3.75-6.26,6.62-8.62C114.73,75.73,112.09,79.16,108.59,80.6L108.59,80.6z"/>
			</g>
			<g style="clip-path:url(#SVGID_00000047773493284401936620000014103195036882511517_);">
				<path class="st5" d="M92.04,149.71c1.52,4.44,3.52,8.15,6.66,11.75c0,0-0.24,0.09-0.24,0.09l0.3-0.42c0,0.1,0.02,0.59,0.02,0.69
					C93.96,160.34,90.67,154.6,92.04,149.71L92.04,149.71z"/>
			</g>
			<g style="clip-path:url(#SVGID_00000047773493284401936620000014103195036882511517_);">
				<path class="st5" d="M95.91,150.62c1.85,3.28,3.65,6.15,5.78,9.26C97.76,159.03,94.95,154.52,95.91,150.62L95.91,150.62z"/>
			</g>
			<g style="clip-path:url(#SVGID_00000047773493284401936620000014103195036882511517_);">
				<path d="M174.41,255.16c6.73,7.53,11.71,16.39,18.8,23.58C185.45,274.92,177.89,262.97,174.41,255.16L174.41,255.16z"/>
			</g>
			<g style="clip-path:url(#SVGID_00000047773493284401936620000014103195036882511517_);">
				<path d="M168.5,226.5c3.27,2.74,6.75,2.77,10.06,0.19c0.99-0.81,1.91-1.69,2.85-2.58c-0.32,0.57-0.69,1.11-1.04,1.67
					C177.42,230.05,171.64,231.21,168.5,226.5L168.5,226.5z"/>
			</g>
			<g style="clip-path:url(#SVGID_00000047773493284401936620000014103195036882511517_);">
				<path d="M149.85,91.98c0.51-1.03,1.37-1.49,2.51-1.31C151.86,91.71,150.99,92.15,149.85,91.98L149.85,91.98z"/>
			</g>
		</g>
		<g>
			<path class="st0" d="M25.33,218.32c-1.12,0.49-2.4,0.63-3.64,0.79c-6.06,0.76-13.93,2.34-18.12,7.25
				c-0.58,0.68-1.08,1.47-1.21,2.35c-0.25,1.65,0.83,3.25,2.18,4.24c2.31,1.69,5.41,2.03,8.2,1.42c7.07-1.56,12.12-7.65,15.35-13.76
				c0.23-0.44,0.46-0.9,0.5-1.39c0.16-1.72-1.86-2.1-3.11-2.32c-4.93-0.84-11.19-3.07-13.99-7.51c-0.68-1.09-1.15-2.35-1.06-3.63
				c0.08-1.28,0.79-2.56,1.94-3.11c0.97-0.46,2.11-0.37,3.18-0.2c6.08,1.02,18.24,7.33,11.4,14.73
				C26.49,217.7,25.94,218.06,25.33,218.32z"/>
			<g>
				<path d="M25.33,218.32c-2.32,0.91-4.89,0.84-7.31,1.38c-2.44,0.46-4.85,1.1-7.15,2.01c-3.4,1.41-10.78,5.65-7.07,9.87
					c1.54,1.71,4,2.44,6.31,2.39c7.35-0.39,12.91-6.45,16.36-12.49c1.34-2.34,2.05-3.13-1.22-3.64
					c-6.04-1.21-13.42-3.95-15.27-10.51c-0.29-1.34-0.06-2.87,0.82-3.98c2.87-3.76,11.14,0.8,14.08,2.92
					c3.05,2.08,5.6,6.08,3.15,9.57C27.35,216.86,26.51,217.86,25.33,218.32L25.33,218.32z M25.33,218.32
					c2.19-1.04,3.78-3.6,3.59-6.03c-0.26-2.51-2.25-4.41-4.21-5.8c-3.29-2.29-14.84-7.45-13.58,0.57c2.03,5.76,8.94,7.84,14.44,8.88
					c4.46,0.61,4.93,3.07,2.63,6.54c-2.54,4.37-5.95,8.49-10.58,10.94c-4.48,2.43-10.95,3.04-14.59-1.2
					c-3.99-5.09,3.71-9.29,7.74-10.77c2.35-0.86,4.79-1.41,7.24-1.83C20.44,219.11,23,219.21,25.33,218.32L25.33,218.32z"/>
			</g>
		</g>
		<g>
			<path d="M25.4,216.9c11.01-1.72,21.74,3.52,30.74,9.35c9.63,5.56,16.72,14.18,22.67,23.38c4.02,5.98,7.83,12,12.47,17.53
				c-11.67-9.85-18.38-24.31-30.22-33.92C50.47,225.5,39.07,217.2,25.4,216.9L25.4,216.9z"/>
		</g>
		<g>
			<path class="st0" d="M50.18,222.76c-0.14,0.01-0.3-0.02-0.5-0.09c-1.29-0.43-2.81-2.45-3.7-3.44
				c-4.51-5.03-7.21-11.66-7.46-18.41c-0.05-1.35,0-2.7,0.15-4.04c0.09-0.79,0.22-1.6,0.64-2.27c1.36-2.17,3.76-0.53,4.96,0.86
				c3.71,4.29,5.89,9.82,7.4,15.23c0.81,2.89,1.14,6.04,0.29,8.96c-0.21,0.71-0.48,1.39-0.82,2.05
				C50.77,222.28,50.63,222.72,50.18,222.76z"/>
			<g>
				<path d="M50.18,222.76c-1.45-0.14-2.41-1.5-3.35-2.48c-2.95-3.12-5.51-6.62-7.12-10.66c-1.55-3.37-4.39-16.07,0.84-17.12
					c6.82-0.41,11.9,16.83,12.01,22.34c0.1,2.5-0.39,5.04-1.65,7.21C50.75,222.34,50.57,222.73,50.18,222.76L50.18,222.76z
					 M50.18,222.76c0.38-0.03,0.56-0.42,0.71-0.72c0.5-0.94,0.92-1.92,1.15-2.97c0.98-4.23-0.57-8.41-2.11-12.32
					c-1.05-2.62-2.32-5.13-3.85-7.43c-0.96-1.36-4.48-6.85-6.06-4.1c-2.12,8.68,0.89,18.41,6.86,25
					C47.82,221.22,48.74,222.59,50.18,222.76L50.18,222.76z"/>
			</g>
		</g>
		<g>
			<g>
				<path d="M51.75,226.09c-4.97-0.33-11.15-0.44-14.92,3.28c-0.35,0.31-0.97,1.11-0.91,1.41c-0.03-0.03,0.08,0.13,0.4,0.26
					c1.91,0.67,4.09,0.59,6.2,0.63c3.45-0.13,7.22-0.39,10.4-1.75c0.37-0.22,0.73-0.49,0.92-0.87c0.22-0.37,0.11-0.85-0.11-1.23
					C53.27,227.07,52.62,226.36,51.75,226.09L51.75,226.09z M51.75,226.09c0.88,0.25,1.56,0.94,2.05,1.69
					c1.52,2.68-4.15,3.73-5.79,4.42c-3.56,1.16-7.23,1.68-11.02,1.1c-2.1-0.32-4.02-1.94-2.4-4.07c1.53-1.99,4.01-3,6.31-3.36
					c2.67-0.44,5.52-0.1,8.17,0.02C49.96,225.93,50.88,225.83,51.75,226.09L51.75,226.09z"/>
			</g>
		</g>
		<g>
			<path class="st0" d="M72.6,244.63c-0.09-0.2-5.22-0.29-5.71-0.3c-1.47-0.03-3.01,0.21-4.21,1.07c-2.23,1.6-2.08,4.8,0.56,5.87
				c0.84,0.34,1.76,0.42,2.67,0.43c1.64,0,3.3-0.25,4.81-0.89C73.58,249.6,73.75,247.22,72.6,244.63z"/>
			<g>
				<path d="M72.6,244.63c-1.32-0.25-2.7-0.14-4.04-0.12c-2.32,0.02-5.55,0.39-6.36,2.79c-0.34,0.98-0.04,2,0.68,2.59
					c1.71,1.29,4.85,1.09,7.01,0.69C73.06,250.06,73.92,247.37,72.6,244.63L72.6,244.63z M72.6,244.63c1.43,2.93,0.8,5.62-2.39,6.9
					c-2.73,1.05-5.95,1.85-8.63-0.13c-2.96-2.61-0.77-6.98,2.82-7.31c1.46-0.24,2.82,0.03,4.16,0.14
					C69.74,244.37,71.46,244.37,72.6,244.63L72.6,244.63z"/>
			</g>
		</g>
		<g>
			<g>
				<path d="M45.47,260.61c-3.37,3.47-4.81,8.5-3.1,12.93c0.43,1.15,1.15,2.36,2.45,2.12C50.83,273.47,50.12,264.15,45.47,260.61
					L45.47,260.61z M45.47,260.61c6.69,2.86,7.3,14.88-0.3,17.02c-2.2,0.49-4.09-1.57-4.57-3.44
					C38.84,269.25,41.08,263.19,45.47,260.61L45.47,260.61z"/>
			</g>
		</g>
		<g>
			<path d="M35.59,269.22c4.57-7.06,12.04-12.9,20.62-14.26c8.65-1.35,17.29,2.31,24.67,6.12c4.95,2.6,9.84,5.3,14.58,8.25
				c-7.94-2.65-15.42-6.31-23.23-9.14C57.76,254.52,46.42,258.66,35.59,269.22L35.59,269.22z"/>
		</g>
		<g>
			<g>
				<path d="M56.39,255.22c-3.87,2.75-9.42,3.03-13.72,0.8c-2.31-1.16-3.93-4.52-1.16-6.18C45.84,247.77,56.93,248.68,56.39,255.22
					L56.39,255.22z M56.39,255.22c-0.83-4.81-7.1-4.83-10.94-4.39c-1,0.18-2.83,0.26-3.33,1.14c-0.44,0.87,0.75,1.94,1.51,2.43
					C47.45,256.55,52.16,256.73,56.39,255.22L56.39,255.22z"/>
			</g>
		</g>
		<g>
			<path class="st0" d="M85.35,259.82c-3.52-3.82-5.08-9.34-4.08-14.44c0.23-1.17,0.75-2.48,1.9-2.8c1.08-0.3,2.17,0.46,2.91,1.31
				c2.25,2.57,2.97,6.19,2.69,9.58C88.5,256.88,87.33,260.13,85.35,259.82z"/>
			<g>
				<path d="M85.35,259.82c-2.59-2.22-4.37-5.47-4.98-8.95c-0.56-3.13-0.67-10.29,4.27-9.19c5.19,2.56,5.72,9.79,4.16,14.68
					C88.28,257.84,87.29,260.21,85.35,259.82L85.35,259.82z M85.35,259.82c1.81-0.1,2.19-2.26,2.5-3.7
					c0.67-4.18,0.15-10.24-3.83-12.54c-1.27-0.36-1.64,1.19-1.87,2.29C81.2,250.73,82.45,255.71,85.35,259.82L85.35,259.82z"/>
			</g>
		</g>
		<g>
			<path class="st0" d="M37.64,266.45c-3.78,1.66-7.64,3.35-11.53,3.9c-3.89,0.55-7.89-0.24-9.85-2.9c-0.37-0.51-0.67-1.1-0.67-1.77
				c0-1.35,1.22-2.76,2.61-3.5s2.93-0.95,4.4-1.05c5.58-0.4,10.95,0.42,15.58,2.39C39.55,264.09,40.95,264.99,37.64,266.45z"/>
			<g>
				<path d="M37.64,266.45c-6.13,2.57-13.31,6.78-20.05,3.36c-4.83-2.77-3.26-7.57,1.54-9.07c3.5-0.89,7.06-0.51,10.56,0.03
					c3.36,0.71,6.83,1.53,9.72,3.4C40.43,265.27,38.44,266.07,37.64,266.45L37.64,266.45z M37.64,266.45
					c2.15-0.95,3.02-2.07,0.22-2.99c-2.65-1.01-5.48-1.53-8.29-1.69c-2.25-0.13-4.5-0.04-6.71,0.19c-3.95,0.14-9.1,3.06-4.35,6.39
					C24.36,271.94,31.84,268.95,37.64,266.45L37.64,266.45z"/>
			</g>
		</g>
		<g>
			<g>
				<path d="M186.49,272.4c1.38-6.65,5.4-12.4,10.44-16.81c3.18-3.1,6.24-6.45,10.1-8.76c5.66-3.62,12.51-5.64,19.22-5.21
					c0,0,0.02,0.2,0.02,0.2c-6.47,1.45-12.48,3.6-18.29,6.64c-3.76,2.11-7.67,4.3-10.58,7.58c-2.81,3.35-4.92,7.16-7.34,10.79
					c-1.15,1.84-2.23,3.74-3.39,5.65L186.49,272.4L186.49,272.4z"/>
			</g>
			<g>
				<path class="st0" d="M225.86,241.74c2.69-2.29,6.39-3.35,9.89-2.84c3.5,0.51,6.74,2.59,8.66,5.56c0.79,1.21,1.37,2.71,0.95,4.09
					c-0.35,1.15-1.38,2.02-2.52,2.42c-1.14,0.4-2.38,0.39-3.58,0.23C233.92,250.51,229.1,246.75,225.86,241.74z"/>
				<path d="M225.76,241.72c2.77-3.42,7.88-4.7,12.01-3.22c2.09,0.77,3.81,2.21,5.26,3.74c1.42,1.63,2.95,3.34,3,5.68
					c0.02,2.59-2.69,4.3-5.03,4.32C234.27,252.54,228.34,247.64,225.76,241.72L225.76,241.72z M225.96,241.75
					c2.71,2.87,5.78,5.7,9.44,7.23c2.86,1.25,8.26,2.84,9.54-1.15c0.32-4.06-4.1-7.03-7.65-7.73
					C233.47,239.08,229.39,239.86,225.96,241.75L225.96,241.75z"/>
			</g>
			<g>
				<path class="st0" d="M214.36,245.07c0.07,0,0.54,1.26,0.61,1.4c0.25,0.51,0.52,1,0.82,1.49c0.6,0.96,1.3,1.86,2.08,2.69
					c0.76,0.8,1.6,1.53,2.5,2.17c0.9,0.63,2.01,1.43,3.12,1.59c0.57,0.08,1.2-0.07,1.55-0.52c0.2-0.25,0.29-0.57,0.31-0.89
					c0.07-1.19-0.77-2.27-1.47-3.15c-0.76-0.96-1.71-1.79-2.72-2.47C219.15,246.02,216.77,245.18,214.36,245.07z"/>
				<path d="M214.36,244.97c0.15,0.06,0.1,0.07,0.18,0.14c0.08,0.1,0.17,0.2,0.24,0.3c1.3,1.92,2.82,3.65,4.37,5.36
					c1.15,1.3,2.46,3.04,4.31,3.29c2.12,0.01,1.05-2.1-0.02-3.21c-2.48-2.75-5.43-4.51-9.1-5.68
					C214.35,245.17,214.36,244.97,214.36,244.97L214.36,244.97z M214.36,244.97c4.69-0.91,9.99,2.1,11.56,6.68
					c0.65,3.36-2.09,3.79-4.44,2.3c-1.14-0.64-2.38-1.13-3.46-1.97c-1.83-1.47-3.13-3.62-3.6-5.91c-0.03-0.24-0.1-0.65-0.13-0.89
					c0-0.03-0.02-0.02,0.06-0.01L214.36,244.97L214.36,244.97z"/>
			</g>
			<g>
				<path class="st0" d="M196.46,256.46c-4.05-5.85-3.92-14.26,0.29-19.99c0.78-1.06,1.92-2.13,3.23-1.95
					c0.86,0.11,1.58,0.77,1.97,1.54c0.39,0.77,0.5,1.66,0.55,2.52C202.85,244.91,200.12,250.99,196.46,256.46z"/>
				<path d="M196.47,256.56c-4.79-4.77-4.82-12.43-1.38-17.98c1.18-1.82,2.01-4.12,4.47-4.63c5.24-0.09,4.1,8.33,3.26,11.62
					C201.61,249.71,199.42,253.47,196.47,256.56L196.47,256.56z M196.46,256.36c1.55-3.7,3.39-7.41,4.28-11.32
					c0.61-2.71,1.28-5.88,0.53-8.55c-1.59-3.55-4.72,0.27-5.61,2.39c-1.25,2.8-1.25,5.85-1.23,8.82
					C194.54,250.7,195.35,253.58,196.46,256.36L196.46,256.36z"/>
			</g>
			<g>
				<path class="st0" d="M194.11,260.22c1.13-2.22,3.6-3.38,5.95-4.18c3.28-1.11,6.99-1.79,10.13-0.32c1.21,0.57,2.38,1.66,2.32,3
					c-0.04,0.84-0.57,1.6-1.26,2.09c-0.68,0.49-1.5,0.76-2.31,0.98c-3.39,0.93-6.96,1.22-10.45,0.85
					C196.72,262.46,194.78,261.99,194.11,260.22z"/>
				<path d="M194.01,260.22c0.52-1.92,2.13-3.23,3.76-4.11c3.27-1.79,7.19-2.35,10.78-1.29c1.81,0.54,3.81,1.27,4.47,3.32
					C214.75,264.6,194.65,265.91,194.01,260.22L194.01,260.22z M194.21,260.23c0.96,1.46,2.79,1.62,4.42,1.64
					c3.46,0.04,6.87-0.29,10.25-1.03c4.66-0.91,3.55-4.63-0.47-5.38c-1.71-0.34-3.44,0.1-5.07,0.55
					C200.14,256.98,196.53,257.61,194.21,260.23L194.21,260.23z"/>
			</g>
			<g>
				<path class="st0" d="M209.05,246.16c-1.7-8.83,3.02-18.51,11.01-22.62c1.33-0.69,2.97-1.22,4.29-0.5
					c0.94,0.52,1.48,1.59,1.59,2.66s-0.17,2.14-0.53,3.15C222.76,236.36,215.89,241.44,209.05,246.16z"/>
				<path d="M209.02,246.26c-1.79-5.07-0.73-10.97,2.2-15.42c1.9-2.79,4.5-4.89,7.24-6.72c1.03-0.59,2.41-1.5,3.6-1.76
					c2.4-0.75,4.63,1.2,4.72,3.62c0.1,1.52-0.35,2.89-0.83,4.12C223.07,237.74,215.99,242.69,209.02,246.26L209.02,246.26z
					 M209.09,246.07c3.61-3.41,7.9-6.67,11.06-10.48c2.24-2.74,4.62-6.02,5.01-9.56c-0.04-4.07-3.99-3.01-6.38-1.4
					c-2.71,1.68-4.68,4.34-6.14,7.07C210.14,236.06,209,241.06,209.09,246.07L209.09,246.07z"/>
			</g>
		</g>
		<g>
			<path class="st0" d="M143.56,134.56c3.22,9.19-4.02,20.97-14.4,19.66c-3.2-0.33-6.23-1.9-8.16-4.3c2.5,1.77,5.39,2.71,8.26,2.74
				C138.61,152.91,144.23,143.12,143.56,134.56L143.56,134.56z"/>
		</g>
		<g>
			<path class="st0" d="M131.34,153.23c-1.95,0.39-1.6,3.43,0.32,3.18c1.1-0.04,1.56-1.73,1.02-2.61
				C132.42,153.38,131.86,153.16,131.34,153.23L131.34,153.23z M131.34,153.23c3.05-0.39,3.73,4.98,0.48,5.17
				C128.37,158.55,128.33,153.88,131.34,153.23L131.34,153.23z"/>
		</g>
		<g>
			<path class="st0" d="M132.48,153.46c1.79,1.17,0.1,4.33-1.85,3.38C131.04,155.2,131.25,154.66,132.48,153.46L132.48,153.46z"/>
		</g>
		<g>
			<path class="st0" d="M132.47,156.94c2.22,6.22,4.92,12.16,8.48,17.68c0.86,1.46,2.01,2.77,2.79,4.27c1.29,3.07-0.47,7.09-3.71,8
				c-8.19,1.78-10.89-7.93-12.9-13.82c2.93,4.64,5.38,13.51,12.32,12.01c2.18-0.68,3.23-3.38,2.46-5.43
				c-0.76-1.4-1.8-2.65-2.57-4.04C135.94,169.89,133.51,163.51,132.47,156.94L132.47,156.94z"/>
		</g>
		<g>
			<path class="st0" d="M129.66,156.08c-1.85,5.74-2.57,11.48-2.28,17.5C124.26,168.18,125.25,160.5,129.66,156.08L129.66,156.08z"
				/>
		</g>
	</g>
</g>
</svg>
