<svg width="171" height="146" viewBox="0 0 171 146" fill="none" xmlns="http://www.w3.org/2000/svg">
<g id="_&#235;&#160;&#136;&#236;&#157;&#180;&#236;&#150;&#180;_1" clip-path="url(#clip0_204_3564)">
<g id="Group">
<path id="Vector" d="M7.10009 96.16C6.56009 95.8 6.69009 96.89 6.59009 96.06C6.91009 95.91 7.19009 95.82 7.10009 96.16Z" fill="#20DEC7"/>
<path id="Vector_2" d="M166.87 103.21C165.3 102.93 164.59 101.92 163.88 100.84C163.18 99.7602 162.49 98.5902 161.15 98.1902C160.89 98.0502 162.14 97.4102 161.49 97.1402C158.63 96.6002 156.9 93.4102 155.5 90.5202L155.86 90.3602C155.59 89.8102 154.35 90.2902 153.99 89.8202C154.13 89.6302 154.34 89.6702 154.43 89.3302C153.88 89.8002 153.39 88.9602 152.88 89.2402C152.86 88.8802 153.21 88.4402 153.15 88.0102L152.41 88.4702C150.57 89.5302 150.64 87.1002 149.04 87.2902C149.19 87.1602 149.37 87.1002 149.38 86.8902C147.06 86.8702 145.03 85.5002 142.82 85.0702C143.01 84.8402 143.29 84.3902 143.3 84.0502C142.86 84.7902 142.16 84.7302 141.56 84.6602C141.63 83.7202 140.34 85.0702 139.87 84.4002L139.99 84.2302C139.23 84.9402 139.44 83.4902 138.73 84.4002L138.63 83.6402C138.07 84.7402 138.11 82.8402 137.53 83.3302L137.48 83.5802C137.02 83.7702 136.99 83.1202 136.58 83.2302V83.0802C135.68 83.1802 135.35 82.3902 135.17 83.3402C135.04 82.5202 136.05 83.1802 135.84 81.9802C132.83 82.3902 130.05 81.7702 127.19 81.8102C126.87 81.4202 126.66 81.3002 126.59 80.9302C126.3 81.1202 125.5 81.0702 125.26 81.6002C125.36 81.5802 125.06 81.1202 124.91 81.0802C124.37 80.7502 124.39 82.1702 123.8 81.7802C124.01 81.5102 124.07 81.2002 123.97 80.8402C123.52 81.6202 122.87 81.5402 122.32 81.8202C122.39 81.6502 122.52 81.5502 122.47 81.2502C121.92 82.1102 121.3 81.2102 120.82 81.8102L120.96 81.2302C119.98 80.6902 120.85 82.4202 120.04 82.1302C120.2 81.9302 120.1 81.7202 120.1 81.5002C119.54 82.6202 118.34 82.3902 117.72 82.9302C117.75 82.8502 117.71 82.7002 117.71 82.7002C116.98 83.0002 116.12 82.8702 115.4 83.4902C115.04 83.3202 115.17 82.1502 114.41 82.5402C114.71 83.5802 113.19 83.3902 113.99 84.4502C113.28 84.4802 112.1 84.4102 111.78 84.9002C111.95 84.4002 111.03 83.7102 111.56 83.4402L110.92 82.9302C110.84 82.4802 111.41 82.9302 111.1 82.4402C110.82 82.5702 110.13 83.2502 109.81 83.1602C109.52 84.0102 109.49 85.3902 108.74 85.8302C108.97 85.2702 108.08 84.7702 108.27 84.4902C108.14 85.3002 108.02 86.1202 107.92 86.9202C107.67 87.0702 107.53 86.1302 107.25 86.5502C107.38 86.8102 107.28 87.0502 107.26 87.3102C107.19 87.2702 106.94 87.4402 106.64 87.5102C106.35 87.5902 106.01 87.5602 105.72 87.0902C105.43 86.7502 106.05 86.6702 105.61 86.4602C105.13 86.7002 105.26 87.0502 104.78 87.3002L104.71 87.1702C104.32 87.1702 103.97 88.0402 104.57 88.4202C104.81 88.3502 104.2 87.8602 104.67 88.0002C104.72 88.6802 104.24 89.1102 103.77 89.3402C103.85 89.1002 103.71 88.8502 103.64 88.5402C103.38 89.6302 102.81 90.1602 102.3 90.8802C102.53 91.3502 102.11 89.9002 102.35 90.0802C101.12 89.9402 101.01 92.0002 99.76 91.4902C99.84 91.3402 100.19 92.1002 100.11 91.9702C99.65 92.1502 99.29 91.4902 99.16 91.8802C98.91 91.5102 98.88 92.2002 98.66 92.4702C98.68 92.8302 98.47 92.3302 98.7 92.1402C98.47 92.6602 97.32 94.2602 96.08 94.2702C96.25 94.5102 96.12 95.5202 95.9 95.6202L95.6 94.9902C95.19 94.7702 94.95 95.4802 94.59 95.0102C94.61 95.9902 95.89 93.3402 95.65 94.2502C95.18 93.8702 95.43 95.6902 95.04 94.8302C94.64 95.1202 94.68 96.0102 93.92 95.7302C94.09 95.7502 93.72 94.7302 93.41 94.9802C92.91 95.4902 93.43 95.3702 93.1 95.8902L92.97 96.3302C93.33 96.8902 92.42 96.6202 93.05 97.0802C92.66 96.6802 92.43 97.9502 91.84 97.0002L91.41 96.2302C91.2 96.4602 91.54 97.2702 91.58 97.7202C91.5 97.6802 91.33 97.5802 91.26 97.4602C92.01 98.5702 90.61 97.7902 90.94 98.8302C90.15 98.8302 89.64 99.7202 88.86 99.2602C88.69 99.8802 88.6 100.55 87.96 100.66C87.98 100.49 88.09 100.37 87.94 100.12C87.41 100.02 87.55 100.36 87.4 100.73C87.34 100.53 86.35 100.53 85.74 100.39C85.57 101.01 86.12 101.49 86.34 101.88C85.2 101.08 85.67 103.42 84.51 102.79C84.55 102.54 84.74 101.82 84.21 101.8C83.1 101 84 103.13 83.01 103.02L83.78 103.82C83.12 103.44 83.2 104.96 82.65 103.99C82.65 104.46 81.71 104.17 82.36 105.02C80.83 104.93 80.13 107.16 78.46 105.89C78.4 106.13 77.92 106.2 78.28 106.62C78.84 106.98 78.42 106.05 78.72 106.34C78.6 106.45 78.72 106.72 78.78 106.85C78.32 106.84 78.02 106.92 77.88 105.98C76.81 105.84 78.04 107.98 76.88 108.18C76.7 107.77 76.55 107.67 76.31 107.89L76.15 108.85C75.45 109.05 75.32 108.17 74.94 107.53C74.68 107.83 74.27 108.03 74.38 108.59L73.53 107.97C74.15 108.42 73.47 108.51 73.4 108.75L73.47 108.51C73.26 108.26 72.97 108.63 72.81 108.81C73.07 109.2 73.55 109.16 73.83 109.17C73.81 109.55 73.51 109.62 73.46 110.08C73.2 109.39 72.67 109.9 72.37 109.96C71.99 109.97 72.32 110.72 72.22 110.75C72.04 110.41 71.69 110.95 71.69 110.35C71.74 110.19 72.09 110.56 72.12 110.17C71.79 110.02 71.52 109.41 71.32 110.06C71.16 110.55 72.04 111.32 71.23 111.21C71.31 110.96 71.21 110.69 71.22 110.39L70.49 110.33L70.75 110.94C70.6 110.83 70.63 110.75 70.55 110.68C70.69 111.41 69.77 111.29 69.97 112.06C69.7 112.25 69.16 111.91 68.84 111.96L68.87 111.88C68.37 111.67 68.02 112.1 67.91 112.64L67.87 112.5C67.66 112.53 67.26 112.82 67.17 113.29C66.5 113.03 66.05 111.03 65.85 112.03C65.39 112.26 65.54 113.47 65.9 113.8C64.85 113.7 64.2 115.1 63.02 114.42C62.98 114.72 63.12 114.85 62.9 115.1C61.53 115.36 60.28 116.75 58.85 115.82C59.16 115.44 58.69 115.17 58.58 114.81C58.42 115.48 58.03 114.32 58.19 115.34C58.38 115.91 58.43 116.21 58.87 116.33C58.51 116.6 58.02 116.83 57.55 116.94C57.07 117.02 56.6 116.98 56.31 116.76C56.6 116.98 56.47 117.2 56.33 117.42C56.17 116.47 55.53 116.46 55.15 116.89L55.21 117.48L54.78 116.96C54.64 117.18 54.84 118.21 54.26 117.76C54.19 117.54 54.12 117.32 54 117.18C53.63 117.77 53.08 118.69 52.46 118.27L51.89 117.49C51.68 117.62 51.38 118.18 51.82 118.37C50.84 118 50.25 118.02 49.88 117.33C49.24 118.37 48.31 118.87 47.32 119.19C46.33 119.5 45.29 119.58 44.35 119.5L44.39 119.06C43.89 118.65 44.15 119.83 43.79 119.53C43.94 119.11 43.4 118.62 43.78 118.11C43.08 117.66 42.89 118.88 42.42 119.09C42.35 119.67 42.79 118.72 42.7 119.45C42.62 119.66 41.72 119.02 41.59 119.88C41.42 119.53 41.58 118.89 41.68 118.55L41.24 118.95C40.76 117.92 42.47 117.17 41.95 115.9C41.82 115.95 41.7 115.99 41.57 116.03C41.24 115.11 42.57 115.02 41.66 114.69C41.25 115.1 40.85 116.34 41.2 116.75C40.32 116.94 40.71 118.81 39.75 118.68C39.52 118.15 40.53 118.6 40.38 117.87C39.97 117.14 39.46 118.21 39.07 117.94C39.49 118.29 39.05 119.15 38.74 119.29C38.28 118.85 39.12 118.49 38.44 118.36C38.28 118.86 37.6 119.17 38.13 119.57C37.76 120.68 37.42 119.17 36.94 120C36.81 119.18 37.86 118.24 37.14 117.75C37.18 118.54 36.07 118.68 36.34 119.87C36.06 119.61 36.11 119 36.39 118.56C36.03 118.04 35.15 119.83 35.23 118.29L34.96 119.05C34.86 118.77 34.7 118.57 34.55 118.1C34.18 118.02 33.15 118.92 33.4 117.76C33.26 117.86 32.42 117.64 32.58 118.52C33.02 119.12 33.31 118.04 33.41 119.2C33.19 118.23 32.61 119.17 32.23 119.4L32.27 118.94C32.05 119.08 31.64 118.9 31.41 119.36C31.61 119.13 31.6 118.81 31.48 118.67L31.13 119.32C30.29 119.48 31.23 118.07 30.46 118.09L31.13 117.7C30.98 117.78 30.89 117.08 30.5 117.21C30.21 117.8 29.77 118.48 29.53 118.93C29.04 119.09 29.53 118.18 28.95 118.71L29.68 118.1C29.81 117.92 29.59 116.98 29.06 116.86C28.66 116.99 27.86 117.73 28.32 118.22C28.04 118.16 27.77 117.67 28.12 117.29C27.45 117.31 28 117.98 27.36 118.19C27.26 117.71 26.78 116.91 26.58 116.19L27.45 115.34L27.1 115.22C27.82 114.55 27.08 114.52 27.61 113.74C27.42 113.53 27.05 113.74 26.74 113.88C26.97 115.48 25.31 115.5 25.05 116.81C23.94 116.76 25.58 113.56 23.84 115.1C23.88 115.49 23.03 116.24 23.78 116.12C23.23 115.75 22.87 117.19 22.35 116.4C23.09 116.11 22.31 114.94 23.36 114.51C23.14 114.9 23.65 114.98 23.81 114.91C23.76 114.34 24.35 113.69 23.76 113.46C23.35 113.44 22.85 113.25 22.65 113.91C22.36 114.62 23.23 114.08 22.7 114.68C21.87 114.6 22.22 113.49 21.37 114.57C21.87 114.69 21.67 115.45 21.46 115.93L20.78 115.97L21.09 115.56C20.37 114.83 20.45 116.27 19.65 115.76L19.68 114.68C20.25 114 20.74 115.59 21.18 114.25C20.67 113.95 20.18 114.51 19.83 113.95C20 113.9 20.17 113.94 20.33 113.87C20.15 113.74 20.78 112 19.57 112.58C19 112.76 19.24 112.97 18.99 113.43C18.08 113.13 17.56 113.47 16.98 113.24C17.59 112.41 16.09 112.6 17.19 112.04C17.15 112.73 18.42 113.32 19.16 112.61C19.41 111.38 19.74 113.1 20.46 112.1C19.82 111.73 20.39 110.69 20.65 109.95C20.5 109.81 20.18 110.01 20.02 110.07C19.6 110.68 19.84 110.79 19.5 111.47C18.86 110.92 17.98 110.9 17.23 111.28C17.17 110.83 17.62 110.24 17.93 110.34C16.98 110.04 16.13 109.43 15.49 108.72C15.34 110.05 14.47 108.39 14.26 109.44C14.53 109.94 14.44 110.9 13.91 111.19C13.68 110.95 14.2 110.76 14.23 110.47C13.52 110.79 14.28 109.25 13.37 109.89C14.35 110.07 14.33 108.77 15 108.09C14.17 108.18 15.39 107.55 14.88 107.21C14.08 107.28 13.2 107.16 12.5 106.91C12.34 105.66 10.73 105.53 10.1 105.02C10.09 104.39 10.99 103.76 10.77 103.34C10.36 103.02 10.32 104.46 10.05 103.59L10.24 103.48C9.89003 103.51 9.68003 102.01 8.48003 102.98L9.44003 102.29C9.40003 102.12 9.13003 102.22 8.96003 102.23C9.21003 101.95 9.32003 101.59 9.66003 101.57C9.86003 100.68 8.87003 100.99 8.48003 100.66L8.24003 101.37C7.23003 101.14 7.30003 100.23 6.54003 99.7802L7.05003 99.3402L6.42003 99.2402C6.98003 98.8902 6.98003 98.2902 6.41003 98.4402C7.10003 98.4102 7.80003 98.3502 8.47003 98.2902C8.42003 98.8202 7.62003 98.5602 7.29003 99.1702C7.00003 99.7002 7.68003 100.14 8.22003 99.7802C8.07003 99.5202 7.95003 99.6102 7.62003 99.6102C8.22003 98.9002 8.51003 99.2402 9.10003 98.9702C8.97003 98.8902 9.02003 98.5402 8.79003 98.7202C9.32003 98.6202 9.57003 98.7802 9.93003 99.1102C9.44003 99.1402 9.66003 99.6402 9.38003 99.7402C9.98003 99.1902 10.49 99.3302 10.76 99.9102C10.43 100.9 12.01 100.23 12.34 100.88C11.59 101.32 10.88 101.56 10.32 101.51C10.38 102.12 10.71 101.83 10.77 102.45C11.34 102.14 12.08 101.52 12.76 101.6L12.39 102.09C12.99 102.19 13.56 101.5 13.96 102.04C14.31 102.5 14.71 102.91 15.11 103.28C15.53 103.62 15.91 103.95 16.25 104.22L15.93 104.74C17.05 103.97 17.53 105.24 18.38 105.11C18.99 106.21 20.69 105.82 20.66 107.01C22.6 107.51 24.26 107.83 26 108.77L25.35 109.47C25.93 109 25.37 110.03 25.76 110.04C25.65 109.23 26.56 109.37 26.97 108.95C27.54 109.94 28.89 109.55 29.79 109.2L29.64 109.79C30.7 108.96 31.31 110.11 32.22 110.55C32.27 110.82 32.31 111.42 32.61 111.43C33.35 110.6 33.61 110.7 34.48 110.25C35.03 110.34 35.86 110.8 36.38 111.22C38.64 110.14 40.67 111.19 42.86 110.35L43.02 111.06C44.07 110.28 45.21 110.26 46.35 110.19C47.48 110.16 48.59 110.24 49.42 109.68V110.92C50.03 111.21 50.66 110.41 50.38 109.57C51 109.84 51.66 108.8 52.2 109.69C52.81 109.78 52.78 108.98 53.21 108.72C54.43 108.91 54.85 108.77 55.84 108.23H55.56C55.51 108.53 55.63 109.03 55.92 109.03C56.23 108.59 57.47 108.92 56.68 107.63C57.35 107.87 57.96 107.52 58.57 107.2C59.18 106.89 59.77 106.53 60.5 106.88C60.28 106.54 60.52 106.37 60.54 106.07C61.48 105.69 62.82 106.14 63.31 105.15C63.54 105.27 63.33 105.88 63.73 105.75C63.9 105.51 63.54 105.27 63.73 104.94C64.95 103.59 67.16 104.33 68.45 103.4C70.56 101.54 73.19 100.41 75.39 98.9602L75.52 99.2302C75.66 97.8002 77.88 99.0502 77.56 97.2502C77.89 97.3702 78.3 96.9202 78.48 97.4802C78.63 96.4402 80.57 97.0202 80.81 95.5702C80.72 95.6002 80.71 95.6802 80.69 95.8502C81.9 95.7602 82.13 94.5002 83.36 94.3302C83.35 94.5002 83.24 94.6902 83.38 94.9402C84.06 95.1402 83.45 93.3602 84.49 94.3502C84.68 94.2002 84.2 93.6802 84.11 93.8002C84.67 93.5702 85.22 93.2202 85.76 92.8102C86.29 92.4102 86.79 91.9602 87.28 91.4802C88.28 90.5402 89.16 89.4302 90.24 88.5802C92.35 88.2302 91.65 90.5002 92.36 88.7902C92.61 88.9502 92.14 88.2902 92.32 88.5202C92.61 87.8702 93.94 89.3602 93.88 88.5202C93.28 87.8802 93.85 87.9602 93.59 87.5102C94.89 87.3502 95.47 87.8902 95.96 86.8702L96.13 87.3002C96.44 85.6502 97.89 85.6302 98 83.8602C103.3 80.7402 108.66 77.6602 114.84 76.0702C115.61 75.9202 116.38 75.7802 117.15 75.6302L119.48 75.2902C121.02 75.0102 122.6 74.9002 124.18 74.7802L125.37 74.7002H126.57C127.37 74.7302 128.17 74.7602 128.97 74.8002C129.77 74.8402 130.57 75.0002 131.37 75.1202C132.17 75.2702 132.97 75.3802 133.75 75.6302C135.06 77.0802 135.13 77.0502 136.85 76.8902C136.74 77.0602 136.63 77.0802 136.7 77.2902C137 76.3502 137.84 77.4902 138.21 76.6102C139.35 77.0002 140.47 77.2502 141.57 77.6102C142.68 77.9402 143.81 78.2302 144.94 78.7302C144.54 78.6802 144.07 79.3502 144.51 79.4602L145.19 79.0702L145.16 79.3502C145.5 79.3402 146.02 79.0302 145.84 78.6102C146.6 78.8002 147.34 79.0702 148.04 79.4002C148.74 79.7202 149.44 80.0702 150.1 80.4502C151.4 81.2802 152.66 82.1502 153.8 83.1502C156.14 85.0902 158.18 87.2502 160.42 89.1102C160.81 89.7202 161.41 90.2902 162.06 90.8402C162.74 91.3702 163.42 91.9102 164.02 92.3802C165.09 94.4402 165.98 96.4102 167.01 98.2402C167.53 99.1502 168.07 100.04 168.69 100.91C169 101.34 169.32 101.78 169.67 102.21C170.05 102.67 170.44 103.13 170.83 103.6C170.83 103.6 170.16 103.71 169.36 103.76C168.55 103.79 167.58 103.72 166.85 103.15L166.87 103.21Z" fill="#20DEC7"/>
<path id="Vector_3" d="M7.65999 96.6904C7.36999 97.1104 7.47999 97.6404 6.73999 97.7904C7.05999 97.4504 7.29999 96.9404 7.65999 96.6904Z" fill="#20DEC7"/>
<path id="Vector_4" d="M13.88 108.91C13.98 108.8 13.93 109.18 13.92 109.27C13.76 109.21 13.4 109.46 13.43 109.17C13.59 109.24 13.7 109.03 13.88 108.9V108.91Z" fill="#20DEC7"/>
<path id="Vector_5" d="M16.64 111C16.37 111.35 15.54 111.28 15.14 111.08C15.64 111.07 16.15 111.03 16.64 111Z" fill="#20DEC7"/>
<path id="Vector_6" d="M18.6401 114.17C18.7301 114.63 18.5701 114.78 18.2201 114.59C18.3001 114.37 18.4701 114.33 18.6401 114.17Z" fill="#20DEC7"/>
<path id="Vector_7" d="M19.3 113.39C19.55 113.51 19.55 113.8 19.56 114.09C19.72 113.75 18.89 114.01 19.3 113.39Z" fill="#20DEC7"/>
<path id="Vector_8" d="M25.43 117.39C25.61 117.41 26.09 117.19 26.09 117.7C26.03 117.32 25.09 117.96 25.43 117.39Z" fill="#20DEC7"/>
<path id="Vector_9" d="M28.85 117.77C28.95 117.82 28.9701 117.91 29.1201 117.83C29.2601 118.07 28.97 118.33 28.8 118.33L28.85 117.78V117.77Z" fill="#20DEC7"/>
<path id="Vector_10" d="M84.0701 103.33L83.9001 103.69L83.7001 103.31L84.0701 103.33Z" fill="#20DEC7"/>
<path id="Vector_11" d="M103.86 90.2804C104.02 89.9004 104.24 90.5504 104.31 90.5904C104.08 90.7504 104.16 90.0604 103.86 90.2804Z" fill="#20DEC7"/>
<path id="Vector_12" d="M114.84 83.7404L114.74 83.7704L114.55 82.9004L114.84 83.7404Z" fill="#20DEC7"/>
</g>
<path id="Vector_13" d="M30.7 27.3198C30.7 27.3198 31.27 26.9498 31.29 26.9798C31.43 27.2198 25.71 32.7398 25.86 32.9998C26.05 33.3298 32.89 28.6598 33.01 28.8698C33.54 29.7798 21.63 37.9198 21.78 38.1798C21.95 38.4698 34.13 29.8298 34.65 30.7498C35.27 31.8298 18 42.0198 18.41 42.7398C19.23 44.1498 35.55 31.4798 36.14 32.4998C36.44 33.0298 14.91 44.9398 15.8 46.4798C16.09 46.9798 36.71 32.8098 37.4 34.0098C38.2 35.3898 12.32 48.6298 13.29 50.3098C14.15 51.7898 38.01 34.3898 38.72 35.6298C39.57 37.1098 10.41 53.4498 10.88 54.2598C11.71 55.6998 39.37 36.0898 40.12 37.3798C41.19 39.2398 7.99998 55.0598 9.21998 57.1698C9.69998 58.0098 40.31 37.2498 41.17 38.7198C42.77 41.4998 5.95998 59.3798 7.05998 61.2798C7.77998 62.5298 42.21 39.8698 42.69 40.7098C44.12 43.1798 4.59998 62.3998 5.64998 64.2298C6.77998 66.1798 42.71 40.3098 43.8 42.1998C45.43 45.0198 3.40998 65.1798 4.44998 66.9798C5.25998 68.3898 44.19 42.4898 44.86 43.6498C46.17 45.9298 1.67998 68.0198 3.10998 70.4898C3.77998 71.6498 45.68 44.6098 46.24 45.5898C48.04 48.6998 0.829981 70.0198 2.36998 72.6998C4.17998 75.8398 45.84 44.6498 47.12 46.8598C47.68 47.8398 0.0599809 72.6898 1.61998 75.3798C2.86998 77.5498 46.99 46.3398 48.22 48.4698C48.96 49.7498 0.0599807 75.5198 1.14998 77.4098C2.35998 79.5098 47.66 47.3198 49.06 49.7498C51.14 53.3598 -1.30002 76.4198 0.709981 79.9098C2.10998 82.3398 47.91 47.5698 50.11 51.3898C50.79 52.5598 -0.930019 79.4898 0.479981 81.9298C1.11998 83.0398 48.71 48.8398 50.98 52.7698C52.9 56.0898 -0.480019 82.7998 0.439981 84.3798C1.09998 85.5298 49.91 50.7998 52.08 54.5598C53.65 57.2898 -0.380019 85.1698 0.639981 86.9298C2.81998 90.7098 52.25 54.8298 53.25 56.5598C55.4 60.2898 0.0799808 87.7498 1.08998 89.4998C1.72998 90.6098 52.67 55.6298 54.44 58.6998C56.68 62.5798 -0.690019 87.6798 1.71998 91.8498C3.75998 95.3798 53.63 57.4598 55.54 60.7798C57.92 64.8998 -1.91927e-05 89.5298 2.27998 93.4798C4.02998 96.5098 54.46 59.0998 56.3 62.2898C57.41 64.2198 1.58998 92.7898 2.95998 95.1498C4.23998 97.3598 54.6 59.5998 57.08 63.8998C59.02 67.2598 1.80998 93.4198 3.68998 96.6598C4.91998 98.7998 56.78 63.6898 57.78 65.4298C58.46 66.6098 3.34998 96.1498 4.43998 98.0398C5.41998 99.7398 56.69 63.8998 58.41 66.8798C60.86 71.1298 4.49998 98.0198 5.50998 99.7698C7.94998 104 57.23 65.4098 59.18 68.7798C61.13 72.1498 5.22998 98.9098 6.71998 101.49C7.85998 103.47 58.27 67.9298 59.92 70.7798C61.4 73.3398 6.59998 100.76 7.80998 102.85C10.19 106.97 58.54 69.0898 60.48 72.4398C61.96 75.0098 7.22998 101.19 8.88998 104.07C9.57998 105.26 59.22 71.0098 60.95 74.0098C61.83 75.5398 8.24998 101.71 10.59 105.78C12.3 108.74 59.46 72.7098 61.56 76.3498C62.25 77.5398 10.1 103.61 12.12 107.11C12.88 108.43 60.71 76.1298 61.97 78.3298C64.05 81.9298 12.35 106.04 13.66 108.31C15.25 111.06 61.56 78.9798 62.28 80.2398C63.64 82.5898 13.39 106 15.4 109.49C17.01 112.27 61.12 79.9598 62.48 82.3098C63.84 84.6598 15.44 107.49 17.22 110.57C17.78 111.53 61.96 83.4098 62.53 84.4098C63.66 86.3698 18.21 109.21 19.7 111.79C21.08 114.17 61.02 84.8098 62.37 87.1498C63.12 88.4498 20.36 110.3 21.68 112.58C22.32 113.7 60.84 87.1298 62.07 89.2598C63.17 91.1598 23.49 111.33 24.75 113.51C25.52 114.85 60.48 90.8698 61.35 92.3798C62.22 93.8898 27.7 113.11 28.32 114.19C29.72 116.62 58.75 93.4398 60.13 95.8198C60.87 97.0998 30.58 113.45 31.14 114.43C32.06 116.02 58.39 97.4898 58.92 98.3898C59.28 99.0198 33.65 113.34 34.26 114.4C34.63 115.04 56.3 99.2998 57.33 101.08C57.79 101.87 38.12 113.4 38.4 113.89C39.06 115.03 54.5 103.98 54.76 104.44" stroke="#00D9BF" stroke-width="0.85" stroke-linecap="round" stroke-linejoin="round"/>
<g id="Group_2">
<path id="Vector_14" d="M89.4601 60.8801C89.2001 60.0601 88.7301 61.4101 89.0801 60.3701C89.4401 60.4401 89.7201 60.5701 89.4601 60.8801Z" fill="#208896"/>
<path id="Vector_15" d="M88.43 57.7C87.73 57.16 87.37 56.53 87.06 55.86C86.73 55.19 86.55 54.47 86.39 53.72C86.22 52.98 86.11 52.2 85.84 51.49C85.55 50.79 85.16 50.14 84.57 49.62C84.36 49.35 85.77 49.25 85.22 48.66C83.94 47.68 83.03 46.19 82.46 44.44C81.93 42.67 81.51 40.74 81.34 38.92H81.75C81.67 38.24 80.29 38.11 80.08 37.45C80.28 37.33 80.48 37.47 80.68 37.18C79.98 37.38 79.77 36.28 79.17 36.3C79.27 35.93 79.77 35.67 79.86 35.21L78.97 35.29C77.87 35.32 77.58 34.74 77.34 34.07C77.09 33.4 76.91 32.63 76.1 32.28C76.3 32.24 76.5 32.28 76.59 32.09C74.37 30.73 72.89 28.22 71.04 26.33C71.33 26.25 71.81 26.02 71.98 25.71C71.21 26.1 70.56 25.58 70.02 25.11C70.54 24.34 68.67 24.62 68.58 23.67L68.78 23.61C67.69 23.67 68.66 22.58 67.49 22.85L67.8 22.13C66.66 22.67 67.77 21.05 66.97 21.03L66.78 21.2C66.26 21.01 66.59 20.44 66.16 20.22L66.25 20.1C65.36 19.5 65.52 18.61 64.79 19.23C65.16 18.47 65.68 19.79 66.21 18.65C65.49 18.14 64.82 17.59 64.19 17C63.57 16.44 62.92 15.77 62.4 15.21C61.36 14.09 60.39 12.91 59.37 11.78C59.22 11.02 59.06 10.67 59.05 10.12C58.85 10.12 58.42 9.69002 58.16 9.76002C58.08 9.95002 58.02 10.15 57.98 10.36C58.05 10.25 57.82 9.78002 57.69 9.85002C57.22 9.82002 57.39 11.8 56.92 11.68C57.02 11.17 57.03 10.67 56.91 10.28C56.67 11.69 56.18 12.08 55.85 12.83C55.85 12.58 55.92 12.35 55.79 12.04C55.71 12.79 55.5 12.97 55.25 13.13C55.01 13.28 54.73 13.42 54.68 13.9C54.62 13.68 54.57 13.45 54.53 13.22C53.42 13.49 55.01 14.45 54.23 14.77C54.24 14.48 54.06 14.36 53.93 14.16C53.98 14.9 53.82 15.36 53.54 15.84C53.25 16.33 52.9 16.76 52.77 17.19C52.74 17.1 52.62 17.02 52.62 17.02C52.15 17.82 51.3 18.39 51.02 19.46C50.6 19.6 50.02 18.53 49.58 19.43C50.48 20.08 48.94 21.04 50.29 21.34C49.64 21.89 48.52 22.7 48.49 23.37C48.37 22.82 47.15 22.89 47.49 22.28L46.63 22.3C46.31 21.97 47.08 21.96 46.52 21.75C46.34 22.05 46.11 23.15 45.77 23.3C45.95 24.23 46.64 25.45 46.15 26.38C46.08 25.73 44.98 25.9 45.02 25.52C45.32 26.33 45.62 27.13 45.94 27.93C45.79 28.25 45.17 27.49 45.13 28.07C45.39 28.21 45.42 28.5 45.53 28.76C45.35 28.8 44.96 30.1 43.97 29.62C43.53 29.51 44.09 29.02 43.55 29.13C43.2 29.67 43.5 29.9 43.15 30.44L43.02 30.37C42.64 30.63 42.74 31.68 43.49 31.61C43.68 31.38 42.88 31.35 43.38 31.15C43.76 31.75 43.51 32.47 43.19 33.01C43.15 32.73 42.89 32.6 42.68 32.36C42.95 33.55 42.71 34.45 42.51 35.44C42.95 35.72 41.89 34.65 42.2 34.67C40.91 35.32 41.81 37.35 40.38 37.68C40.38 37.49 41.07 37.97 40.93 37.91C40.58 38.38 39.94 37.99 39.99 38.45C39.58 38.26 39.87 38.93 39.8 39.34C39.98 39.67 39.56 39.32 39.69 39C39.71 39.65 39.35 41.9 38.19 42.71C38.46 42.82 38.8 43.88 38.64 44.11L38.08 43.71C37.59 43.76 37.7 44.59 37.16 44.38C37.62 45.29 37.59 41.95 37.79 42.98C37.18 42.92 38.23 44.49 37.48 43.92C37.24 44.45 37.73 45.29 36.92 45.51C37.09 45.41 36.25 44.68 36.1 45.13C35.87 45.93 36.3 45.48 36.24 46.18L36.32 46.67C36.92 46.97 35.94 47.3 36.75 47.32C36.2 47.19 36.57 48.53 35.59 48.02L34.83 47.58C34.74 47.93 35.44 48.47 35.7 48.87C35.61 48.88 35.41 48.9 35.29 48.83C36.51 49.38 34.89 49.57 35.71 50.33C35.02 50.85 35.02 52.04 34.11 52.09C34.27 52.75 34.61 53.38 34.16 53.9C34.08 53.74 34.09 53.57 33.82 53.44C33.34 53.7 33.64 53.91 33.75 54.32C33.58 54.18 32.78 54.86 32.2 55.18C32.43 55.82 33.18 55.82 33.59 55.99C32.88 56.06 32.98 56.5 33.09 56.94C33.24 57.38 33.41 57.83 32.77 58.01C32.62 57.79 32.28 57.09 31.87 57.47C30.49 57.71 32.64 58.67 31.87 59.34H32.98C32.25 59.57 33.39 60.56 32.31 60.32C32.48 60.48 32.35 60.7 32.31 60.88C32.28 61.06 32.36 61.2 32.89 61.22C32.41 61.77 32.5 62.52 32.46 63.19C32.46 63.87 32.42 64.48 31.48 64.94C31.67 65.11 31.51 65.58 32.05 65.44C32.63 65.1 31.6 65.06 32 64.92C32.04 65.08 32.33 65.09 32.48 65.09C32.26 65.49 32.2 65.81 31.3 65.52C30.98 66 31.48 66.19 32.01 66.37C32.53 66.56 33.09 66.75 32.97 67.31C32.53 67.34 32.38 67.45 32.5 67.76L33.34 68.2C33.34 68.91 32.47 68.82 31.75 69.01C31.99 69.36 32.09 69.84 32.67 69.86L31.9 70.59C32.45 70.05 32.42 70.77 32.65 70.89L32.42 70.77C32.14 70.94 32.44 71.33 32.63 71.5C33.03 71.3 33.06 70.8 33.13 70.52C33.5 70.61 33.5 70.93 33.97 71.03C33.25 71.2 33.72 71.79 33.76 72.1C33.75 72.49 34.52 72.22 34.53 72.32C34.18 72.48 34.68 72.87 34.09 72.83C33.93 72.76 34.33 72.43 33.95 72.38C33.77 72.7 33.16 72.94 33.78 73.2C34.25 73.39 35.05 72.53 34.91 73.34C34.66 73.26 34.38 73.35 34.09 73.33C34.04 73.59 34.05 73.83 34.03 74.08L34.64 73.81C34.53 73.96 34.45 73.93 34.39 74.01C35.11 73.87 35.04 74.79 35.81 74.54C36.02 74.79 35.71 75.36 35.79 75.67L35.71 75.65C35.57 76.17 36.09 76.47 36.63 76.49L36.5 76.55C36.57 76.75 36.93 77.1 37.39 77.09C37.26 77.81 35.42 78.7 36.45 78.7C36.82 79.12 37.96 78.62 38.16 78.2C38.42 79.22 39.85 79.36 39.73 80.65C40.02 80.56 40.08 80.38 40.39 80.47C41.14 81.71 43 81.8 43.01 83.54C42.53 83.5 42.58 84.05 42.35 84.36C42.97 84.11 42.31 85.11 43.02 84.36C43.36 83.85 43.54 83.65 43.39 83.22C44.25 83.44 45.25 84.1 45.32 84.84C45.28 84.47 45.53 84.42 45.77 84.36C45.2 85.15 45.65 85.6 46.24 85.51L46.59 85.03L46.55 85.7C46.8 85.62 47.31 84.71 47.43 85.42C47.35 85.63 47.26 85.85 47.26 86.04C47.58 85.94 47.97 85.79 48.3 85.74C48.64 85.68 48.94 85.7 49.07 86.03L49.12 86.97C49.36 86.97 49.89 86.63 49.63 86.26C50.23 87.05 50.71 87.37 50.76 88.12C51.79 87.47 52.77 87.26 53.7 87.3C54.65 87.22 55.56 87.39 56.38 87.61L56.28 88.04C56.69 88.52 56.6 87.3 56.88 87.63C56.69 88.04 57.15 88.55 56.73 89.05C57.37 89.55 57.67 88.34 58.1 88.16C58.2 87.59 57.74 88.51 57.86 87.78C57.94 87.58 58.74 88.28 58.86 87.42C59.01 87.77 58.88 88.41 58.78 88.75L59.19 88.35C59.71 89.4 57.99 90.1 58.49 91.39L58.91 91.28C59.3 92.22 57.76 92.25 58.83 92.62C59.32 92.22 59.68 90.97 59.29 90.56C60.2 90.3 59.69 88.46 60.6 88.49C60.87 88.99 59.87 88.66 60.07 89.37C60.54 90.05 60.94 88.92 61.34 89.15C60.89 88.84 61.2 87.94 61.44 87.77C61.93 88.16 61.21 88.61 61.87 88.66C61.94 88.15 62.48 87.75 61.94 87.43C62.04 86.31 62.63 87.68 62.84 86.73C63.17 87.49 62.44 88.69 63.21 88.96C63 88.21 63.91 87.77 63.36 86.7C63.65 86.88 63.8 87.47 63.68 87.97C64.17 88.37 64.34 86.43 64.78 87.91L64.74 87.12C64.92 87.36 65.13 87.52 65.42 87.86C65.77 87.77 66.2 86.51 66.5 87.66C66.57 87.51 67.35 87.34 66.8 86.64C66.19 86.29 66.44 87.38 65.87 86.38C66.45 87.16 66.5 86.07 66.65 85.71L66.84 86.14C66.94 85.92 67.33 85.93 67.25 85.41C67.23 85.71 67.39 85.98 67.55 86.03L67.46 85.3C67.92 84.72 68.05 86.39 68.57 85.94L68.32 86.64C68.38 86.49 68.83 87 69.05 86.67C68.91 86.03 68.81 85.24 68.7 84.75C68.9 84.36 69.15 85.34 69.19 84.62L69.09 85.5C69.11 85.72 69.83 86.35 70.29 86.12C70.48 85.75 70.46 84.7 69.88 84.63C70.08 84.5 70.56 84.68 70.62 85.18C71 84.71 70.23 84.61 70.44 84.03C70.81 84.31 71.64 84.54 72.32 84.88L72.42 86.05L72.74 85.88C72.78 86.85 73.3 86.32 73.54 87.22C73.85 87.22 73.95 86.79 74.02 86.43C72.63 85.65 73.57 84.3 72.62 83.35C73.12 82.54 75.03 85.58 74.57 83.36C74.22 83.18 73.96 82.14 73.73 82.77C74.29 82.56 73.18 81.5 74.02 81.5C74.01 82.25 75.3 82.15 75.27 83.24C75.02 82.87 74.75 83.27 74.74 83.44C75.25 83.66 75.54 84.51 76.02 84.07C76.23 83.71 76.61 83.33 76.09 82.87C75.57 82.32 75.72 83.32 75.38 82.58C75.74 81.9 76.64 82.64 75.93 81.48C75.66 81.86 75.04 81.37 74.69 80.98L74.85 80.42L75.13 80.85C75.99 80.56 74.67 80.04 75.29 79.57L76.26 79.97C76.75 80.7 75.21 80.58 76.3 81.45C76.71 81.08 76.3 80.46 76.91 80.33C76.92 80.49 76.85 80.63 76.86 80.8C77.02 80.7 78.53 81.77 78.26 80.46C78.21 79.88 77.95 80.06 77.56 79.72C78.02 78.97 77.69 78.4 77.96 77.93C78.72 78.62 78.62 77.2 79.1 78.3C78.43 78.18 77.79 79.23 78.31 80.08C79.46 80.61 77.71 80.49 78.5 81.44C79.02 80.91 79.91 81.7 80.59 82.1C80.79 81.97 80.67 81.6 80.64 81.41C80.12 80.88 79.96 81.11 79.37 80.65C80.02 80.09 80.18 79.18 79.85 78.42C80.31 78.41 80.87 78.88 80.73 79.19C80.83 78.95 80.96 78.73 81.09 78.51C81.2 78.28 81.33 78.06 81.47 77.84C81.75 77.41 82.08 77.01 82.42 76.65C81.74 76.63 81.81 76.36 81.92 76.1C82.03 75.83 82.12 75.53 81.6 75.5C81.15 75.83 80.17 75.75 79.84 75.27C80.06 75.06 80.3 75.53 80.58 75.54C80.2 74.92 81.78 75.49 81.02 74.69C81.01 75.65 82.25 75.5 83.03 76.07C82.84 75.22 83.61 76.4 83.9 75.78C83.7 74.92 83.74 74.05 83.76 73.27C84.89 72.7 84.59 71.06 84.69 70.26C85.25 69.96 86.21 70.5 86.51 70.06C86.63 69.5 85.29 70.21 85.97 69.5L86.16 69.62C86.06 69.47 86.35 69.13 86.44 68.75C86.51 68.37 86.43 67.96 85.69 67.72L86.79 68.16C86.91 68.02 86.67 67.83 86.57 67.68C86.94 67.73 87.3 67.59 87.51 67.89C88.37 67.46 87.55 66.74 87.59 66.17L86.87 66.48C86.44 65.47 87.09 64.86 86.9 63.91L87.57 63.94L87.19 63.37C87.84 63.5 88.22 62.96 87.66 62.67C87.95 62.91 88.24 63.15 88.52 63.41L89.31 64.19C88.9 64.62 88.52 63.71 87.86 63.98C87.28 64.2 87.43 65.08 88.06 65.27C88.15 64.92 88 64.9 87.77 64.62C88.7 64.53 88.64 65.06 89.25 65.37C89.22 65.18 89.51 64.92 89.22 64.87C89.66 65.26 89.71 65.65 89.71 66.29C89.37 65.83 89.13 66.47 88.87 66.29C89.69 66.41 89.84 67.04 89.51 67.79C89 68 89.11 68.38 89.28 68.82C89.47 69.27 89.7 69.78 89.45 70.2C88.74 69.67 88.19 69.1 87.92 68.52C87.43 68.98 87.87 69.13 87.33 69.56C87.87 69.94 88.75 70.32 88.94 71.14L88.34 71.03C88.48 71.74 89.37 72 88.96 72.79C88.18 74.1 87.73 75.54 87.14 76.51L86.57 76.3C87.49 77.4 86.16 78.4 86.2 79.37C85.58 79.85 85.32 80.6 85.02 81.24C84.68 81.85 84.34 82.37 83.71 82.36C82.62 84.68 81.32 86.65 79.15 88.25L78.91 87.28C78.98 88.09 78.36 87.09 78.1 87.49C78.52 87.59 78.55 87.88 78.47 88.21C78.38 88.53 78.19 88.9 78.22 89.22C77.53 89.3 76.99 89.71 76.55 90.25C76.12 90.81 75.7 91.37 75.39 91.93L75.05 91.42C74.86 92.18 74.34 92.52 73.73 92.71C73.1 92.88 72.35 92.85 71.7 93.03C71.46 92.86 71.02 92.42 70.69 92.64C70.39 93.86 70 93.91 69.14 94.79C68.76 94.9 68.23 95 67.7 95.04C67.43 95.06 67.17 95.07 66.91 95.06C66.65 95.03 66.41 94.99 66.19 94.93C64.88 95.84 63.37 96.32 61.84 96.4C61.08 96.47 60.31 96.53 59.53 96.62C58.76 96.65 57.98 96.7 57.17 96.87L56.99 96.14C55.42 96.89 53.7 96.53 52.08 96.21C51.27 96.03 50.51 95.71 49.77 95.51C49.03 95.28 48.3 95.19 47.63 95.11L48.27 94.05C47.67 93.4 46.47 93.66 46.32 94.54C45.71 93.89 44.14 94.3 44.14 93.12C43.51 92.53 42.98 93.14 42.27 92.94C41.95 92.64 41.68 92.39 41.42 92.2C41.17 91.99 40.95 91.8 40.72 91.64C40.25 91.32 39.75 91.08 39.02 90.72L39.3 91.01C39.6 90.89 39.91 90.47 39.63 90.19C39.29 90.16 38.88 89.8 38.55 89.6C38.21 89.4 37.9 89.39 37.68 90.15C37.28 89.27 36.42 88.77 35.57 88.22C34.76 87.64 34 86.97 33.83 85.99C33.64 86.37 33.29 86.12 32.97 86.17C32.42 85.64 32.12 84.87 31.74 84.23C31.38 83.58 30.95 83.04 30.33 82.74C30.36 82.42 31.09 82.66 30.79 82.13C30.47 81.92 30.36 82.42 29.93 82.18C28.96 81.35 28.36 80.22 28.06 78.99C27.73 77.77 27.44 76.62 26.97 75.61C24.69 72.25 24.04 67.89 23.91 63.96L24.21 64C23.58 63.36 23.96 62.55 24.21 61.83C24.47 61.1 24.65 60.42 23.87 59.8C24.2 59.55 24.2 58.72 24.72 59.01C24.12 57.91 25.92 56.47 25.23 54.89C25.17 55 25.21 55.09 25.3 55.27C26.28 54.08 25.78 52.68 26.74 51.43C26.82 51.61 26.83 51.9 27.1 52.02C27.79 51.66 26.29 50.36 27.73 50.51C27.83 50.21 27.14 50.07 27.11 50.27C27.92 48.89 28.4 47.35 28.8 45.74C29.27 44.18 29.68 42.56 30.2 41.01C31.99 39.31 32.39 41.93 32.27 39.85C32.58 39.85 31.84 39.51 32.11 39.62C32.08 38.82 34.01 39.38 33.57 38.62C32.71 38.39 33.29 38.11 32.83 37.85C33.97 36.87 34.78 37.01 34.76 35.75L35.12 36.04C34.64 34.3 35.98 33.35 35.25 31.65C38.71 25.42 41.99 19.41 46.13 13.86C46.74 13.13 47.35 12.4 47.96 11.68L49.33 10.02L51.07 7.98002C53.39 5.23002 55.74 2.67002 58.13 0.0200195C60.04 2.08002 61.96 4.09002 63.83 6.27002C64.76 7.37002 65.69 8.46002 66.6 9.57002C67.05 10.13 67.49 10.71 67.9 11.25L68.55 12.21C68.66 14.22 68.74 14.3 70.24 15.37C70.04 15.44 69.94 15.37 69.87 15.58C70.69 15.04 70.73 16.49 71.57 16.05C72.28 17.12 73.05 18.08 73.84 19.04C74.62 20.01 75.41 20.98 76.19 22.05C75.86 21.77 75.08 22.08 75.43 22.44L76.25 22.49L76.08 22.72C76.4 22.91 77.01 22.93 77.06 22.46C78.19 23.7 79.16 25.06 80.05 26.46C80.91 27.89 81.67 29.38 82.41 30.87C83.12 32.39 83.78 33.92 84.5 35.41C85.19 36.93 85.88 38.44 86.71 39.88C87.07 41.47 88.31 43.38 89.24 44.87C89.42 46.19 89.6 47.48 89.78 48.76C89.87 49.39 90 49.99 90.07 50.62C90.14 51.25 90.23 51.88 90.33 52.5C90.43 53.12 90.54 53.73 90.68 54.34L90.9 55.25L91.07 56.19C91.32 57.45 91.66 58.71 92.12 60.01C92.12 60.01 89.47 59.62 88.52 57.71L88.43 57.7Z" fill="#208896"/>
<path id="Vector_16" d="M89.63 61.8901C89.15 62.1101 88.92 62.6901 88.23 62.2701C88.69 62.1901 89.18 61.8601 89.63 61.8901Z" fill="#208896"/>
<path id="Vector_17" d="M82.03 75.0199C82.15 75.0999 81.77 75.0999 81.68 75.1099C81.72 74.9499 81.4 74.6299 81.68 74.6299C81.65 74.7899 81.86 74.8699 82.02 75.0299L82.03 75.0199Z" fill="#208896"/>
<path id="Vector_18" d="M80.14 77.8201C79.8 77.5301 79.86 76.7401 80.02 76.3701L80.14 77.8201Z" fill="#208896"/>
<path id="Vector_19" d="M76.9001 79.1702C76.4501 79.1202 76.3401 78.9302 76.5701 78.7002C76.7701 78.8302 76.7801 78.9902 76.9001 79.1702Z" fill="#208896"/>
<path id="Vector_20" d="M77.5201 79.9599C77.3601 80.1499 77.0801 80.0799 76.8101 79.9999C77.1001 80.2399 77.0101 79.4199 77.5201 79.9599Z" fill="#208896"/>
<path id="Vector_21" d="M71.9801 83.2501C71.8801 83.3601 71.8301 83.8801 71.4401 83.5201C71.7701 83.7401 71.7101 82.6401 71.9801 83.2501Z" fill="#208896"/>
<path id="Vector_22" d="M69.8401 85.2898C69.7501 85.3098 69.6701 85.2498 69.6201 85.3998C69.3701 85.2898 69.4001 84.9298 69.5201 84.8398L69.8401 85.2898Z" fill="#208896"/>
<path id="Vector_23" d="M32.7401 58.7002L32.8901 59.0902L32.4701 58.9602L32.7401 58.7002Z" fill="#208896"/>
<path id="Vector_24" d="M43.6901 33.78C43.6601 33.31 44.1801 33.7799 44.2601 33.7599C44.1201 34.0699 43.8701 33.36 43.6901 33.78Z" fill="#208896"/>
<path id="Vector_25" d="M50.62 20.0598L50.56 20.1598L49.87 19.5898L50.62 20.0598Z" fill="#208896"/>
</g>
<g id="Group_3">
<path id="Vector_26" d="M31.8501 72.8698C31.3801 72.4598 31.3201 73.4898 31.3601 72.6998C31.7201 72.6098 32.0101 72.5798 31.8501 72.8698Z" fill="#208896"/>
<path id="Vector_27" d="M166.77 78.79C165.27 78.73 164.56 77.87 163.89 76.93C163.23 75.99 162.59 74.96 161.33 74.68C161.09 74.57 162.29 73.87 161.68 73.66C158.98 73.37 157.46 70.44 156.34 67.74L156.69 67.57C156.47 67.06 155.27 67.58 154.97 67.14C155.11 66.95 155.31 66.98 155.41 66.65C154.87 67.13 154.47 66.33 153.97 66.62C153.97 66.28 154.33 65.84 154.3 65.43L153.58 65.9C151.8 66.96 152.04 64.63 150.55 64.83C150.7 64.7 150.87 64.64 150.89 64.44C148.77 64.44 146.99 63.16 145.03 62.69C145.22 62.47 145.52 62.03 145.56 61.69C145.1 62.41 144.46 62.35 143.92 62.28C144.06 61.39 142.78 62.64 142.42 61.98L142.54 61.82C141.78 62.5 142.12 61.07 141.38 61.97L141.36 61.23C140.75 62.32 140.97 60.4 140.4 60.87L140.33 61.11C139.9 61.28 139.93 60.64 139.56 60.73V60.58C138.75 60.66 138.52 59.88 138.27 60.81C138.23 59.99 139.08 60.69 138.99 59.49C136.27 59.7 133.82 59.04 131.28 58.83C131.03 58.42 130.85 58.29 130.81 57.92C130.54 58.09 129.83 58.04 129.58 58.52C129.67 58.51 129.44 58.02 129.3 57.97C128.84 57.59 128.76 59.02 128.27 58.58C128.47 58.33 128.55 58.02 128.49 57.66C128.04 58.41 127.46 58.27 126.95 58.54C127.03 58.38 127.15 58.28 127.12 57.98C126.58 58.85 126.08 57.82 125.61 58.4L125.76 57.83C124.91 57.21 125.6 59 124.89 58.66C125.04 58.47 124.97 58.26 124.98 58.03C124.41 59.07 123.38 58.86 122.79 59.27C122.82 59.19 122.79 59.04 122.79 59.04C122.13 59.27 121.36 59.04 120.7 59.64C120.38 59.45 120.54 58.29 119.84 58.63C120.09 59.7 118.72 59.35 119.41 60.48C118.78 60.43 117.72 60.27 117.43 60.75C117.59 60.27 116.77 59.52 117.25 59.29L116.68 58.75C116.61 58.3 117.13 58.79 116.85 58.27C116.59 58.38 115.96 59.02 115.69 58.93C115.41 59.74 115.39 61.07 114.72 61.47C114.92 60.94 114.11 60.39 114.28 60.12C114.17 60.92 114.08 61.69 114.01 62.49C113.8 62.63 113.64 61.69 113.4 62.1C113.53 62.37 113.45 62.59 113.43 62.86C113.29 62.77 112.58 63.51 112.04 62.56C111.76 62.21 112.33 62.18 111.91 61.94C111.48 62.15 111.61 62.5 111.18 62.71L111.11 62.58C110.75 62.57 110.48 63.41 111.05 63.8C111.26 63.74 110.69 63.24 111.11 63.39C111.19 64.06 110.79 64.46 110.39 64.67C110.45 64.44 110.3 64.19 110.22 63.89C110.05 64.94 109.62 65.49 109.21 66.14C109.46 66.6 108.96 65.19 109.19 65.38C108.05 65.2 108.16 67.17 106.98 66.68C107.03 66.54 107.44 67.27 107.35 67.15C106.96 67.32 106.56 66.69 106.48 67.08C106.21 66.73 106.27 67.39 106.11 67.66C106.17 68.01 105.92 67.52 106.11 67.34C105.98 67.88 105.1 69.34 103.99 69.4C104.18 69.62 104.21 70.59 104.03 70.7L103.67 70.11C103.26 69.91 103.16 70.6 102.76 70.17C102.92 71.1 103.69 68.52 103.61 69.41C103.12 69.06 103.62 70.8 103.14 69.99C102.82 70.28 103 71.13 102.27 70.9C102.43 70.9 101.93 69.95 101.69 70.21C101.3 70.7 101.77 70.57 101.54 71.07L101.49 71.49C101.91 72.01 101.02 71.78 101.68 72.19C101.25 71.82 101.25 73.03 100.56 72.16L100.04 71.46C99.8801 71.69 100.33 72.43 100.44 72.86C100.36 72.82 100.19 72.74 100.1 72.63C100.98 73.64 99.5601 72.98 100.05 73.94C99.33 73.99 99.02 74.88 98.25 74.48C98.23 75.07 98.3101 75.68 97.7601 75.83C97.7401 75.67 97.8 75.55 97.61 75.33C97.11 75.28 97.31 75.57 97.28 75.93C97.18 75.75 96.2901 75.84 95.7101 75.77C95.7101 76.36 96.34 76.74 96.64 77.07C95.4 76.47 96.46 78.53 95.25 78.09C95.21 77.86 95.18 77.19 94.7 77.24C93.46 76.66 94.88 78.5 93.95 78.58L94.8701 79.19C94.1701 78.96 94.65 80.37 93.88 79.56C94.01 80 93.06 79.9 93.88 80.58C92.46 80.77 92.3001 82.94 90.4801 82.03C90.4801 82.27 90.07 82.41 90.5 82.76C91.1 83.01 90.4801 82.19 90.8301 82.42C90.75 82.54 90.9201 82.78 91.0101 82.9C90.5901 82.97 90.34 83.09 89.9701 82.22C88.9601 82.25 90.6001 84.09 89.5801 84.46C89.3201 84.1 89.1601 84.02 88.9801 84.26L89.0501 85.19C88.4401 85.48 88.12 84.66 87.63 84.1C87.46 84.42 87.11 84.65 87.35 85.18L86.4401 84.71C87.1001 85.05 86.51 85.24 86.5 85.48V85.24C86.26 85.03 86.0801 85.43 85.9801 85.63C86.3001 85.97 86.73 85.86 86.99 85.83C87.06 86.2 86.8 86.31 86.8601 86.76C86.4701 86.14 86.09 86.69 85.8301 86.8C85.4901 86.86 85.9501 87.54 85.8601 87.58C85.6301 87.28 85.41 87.84 85.2901 87.27C85.3 87.11 85.7101 87.42 85.6501 87.04C85.3101 86.94 84.94 86.4 84.89 87.04C84.85 87.52 85.8201 88.15 85.0501 88.14C85.0701 87.9 84.9201 87.64 84.8701 87.36L84.18 87.39L84.5501 87.94C84.3901 87.85 84.4001 87.77 84.32 87.72C84.59 88.39 83.7401 88.41 84.0801 89.13C83.8801 89.35 83.3101 89.1 83.0401 89.19V89.11C82.55 88.98 82.3201 89.44 82.3301 89.97L82.2601 89.84C82.0801 89.9 81.76 90.22 81.78 90.68C81.1101 90.51 80.3101 88.63 80.32 89.61C79.94 89.87 80.32 91.04 80.71 91.31C79.75 91.37 79.4201 92.8 78.2201 92.28C78.2401 92.58 78.39 92.69 78.24 92.95C77.01 93.31 76.1701 94.91 74.68 94.13C74.9001 93.72 74.43 93.51 74.2601 93.17C74.2301 93.84 73.68 92.75 74 93.73C74.2701 94.27 74.3601 94.55 74.7901 94.63C74.2401 95.25 73.1101 95.71 72.5 95.33C72.8 95.51 72.7201 95.74 72.6201 95.98C72.3201 95.06 71.75 95.13 71.45 95.59L71.59 96.16L71.1201 95.69C71.0301 95.92 71.34 96.92 70.75 96.52C70.66 96.31 70.5601 96.1 70.43 95.97C70.16 96.57 69.76 97.53 69.14 97.2L68.52 96.48C68.34 96.62 68.1301 97.22 68.5501 97.36C67.5901 97.08 67.05 97.13 66.63 96.47C65.62 98.55 63.3601 98.97 61.5801 98.94L61.6101 98.5C61.1201 98.11 61.4001 99.28 61.0601 98.99C61.1901 98.57 60.67 98.1 61.01 97.57C60.34 97.14 60.1801 98.36 59.7401 98.56C59.6801 99.14 60.09 98.19 60.01 98.92C59.93 99.13 59.07 98.48 58.94 99.34C58.77 98.99 58.93 98.35 59.0201 98L58.6 98.41C58.16 97.38 59.76 96.62 59.2701 95.35L58.92 95.48C58.63 94.56 59.83 94.47 59 94.14C58.64 94.56 58.2501 95.81 58.5801 96.21C57.7601 96.42 58.1 98.27 57.18 98.14C56.9701 97.61 57.93 98.07 57.8 97.34C57.43 96.61 56.9201 97.67 56.5601 97.38C56.9501 97.75 56.51 98.59 56.2001 98.72C55.7701 98.26 56.6 97.94 55.9501 97.77C55.7801 98.26 55.1 98.55 55.6 98.97C55.19 100.07 54.93 98.56 54.42 99.37C54.34 98.54 55.4 97.65 54.75 97.13C54.75 97.92 53.67 98.01 53.85 99.21C53.59 98.93 53.69 98.33 53.98 97.9C53.68 97.36 52.6901 99.08 52.9001 97.55L52.5801 98.29C52.5101 98.01 52.3701 97.78 52.2701 97.31C51.93 97.22 50.85 98.04 51.2201 96.9C51.0701 96.99 50.3101 96.69 50.3601 97.58C50.7201 98.22 51.1001 97.17 51.0801 98.33C50.9701 97.35 50.32 98.23 49.93 98.43L50.0201 97.97C49.7901 98.09 49.4201 97.86 49.1501 98.29C49.3701 98.09 49.4 97.76 49.3 97.61L48.89 98.21C48.06 98.29 49.14 96.99 48.41 96.93L49.1 96.61C48.95 96.68 48.96 95.98 48.57 96.07C48.22 96.63 47.7001 97.25 47.41 97.67C46.92 97.77 47.52 96.93 46.89 97.39L47.67 96.87C47.82 96.7 47.75 95.76 47.2701 95.57C46.8801 95.64 46.01 96.27 46.3601 96.81C46.1 96.71 45.93 96.19 46.32 95.86C45.68 95.8 46.1 96.52 45.4501 96.65C45.43 96.17 45.11 95.33 45.05 94.6L46.01 93.88L45.71 93.72C46.49 93.15 45.8201 93.04 46.4501 92.34C46.3201 92.12 45.94 92.26 45.64 92.36C45.55 93.96 44.02 93.74 43.53 94.98C42.48 94.79 44.65 91.91 42.73 93.16C42.69 93.54 41.7401 94.14 42.4701 94.14C42.0401 93.69 41.4001 95.04 41.09 94.18C41.83 94.02 41.36 92.75 42.42 92.5C42.14 92.84 42.59 93 42.75 92.96C42.82 92.4 43.5 91.86 43.01 91.55C42.65 91.46 42.2301 91.21 41.9001 91.82C41.4801 92.46 42.41 92.06 41.78 92.57C41.02 92.37 41.5901 91.36 40.5601 92.28C41.0001 92.47 40.65 93.17 40.35 93.6L39.71 93.53L40.09 93.18C39.58 92.36 39.34 93.77 38.71 93.14L38.9901 92.1C39.6701 91.54 39.7601 93.15 40.4701 91.94C40.0601 91.58 39.49 92.03 39.3 91.43C39.46 91.41 39.61 91.47 39.78 91.44C39.65 91.28 40.63 89.71 39.37 90.09C38.8 90.17 38.98 90.41 38.64 90.81C37.86 90.38 37.3201 90.61 36.8301 90.3C37.5901 89.61 36.1501 89.56 37.3101 89.2C37.1201 89.83 38.13 90.63 38.98 90.06C39.5 88.93 39.4 90.62 40.3 89.77C39.79 89.33 40.57 88.42 40.98 87.75C40.88 87.6 40.54 87.75 40.37 87.77C39.84 88.29 40.0301 88.43 39.5601 89.02C39.1201 88.39 38.31 88.24 37.53 88.48C37.59 88.04 38.1401 87.56 38.4001 87.7C37.6001 87.27 36.9801 86.54 36.5601 85.8C36.0801 87.03 35.71 85.33 35.25 86.28C35.37 86.79 35.05 87.68 34.48 87.87C34.33 87.61 34.86 87.51 34.96 87.24C34.23 87.43 35.32 86.1 34.32 86.55C35.17 86.88 35.4901 85.66 36.2701 85.12C35.4901 85.07 36.77 84.68 36.39 84.27C35.62 84.22 34.85 83.97 34.28 83.62C34.43 82.44 33 82.06 32.53 81.51C32.68 80.93 33.6801 80.48 33.5801 80.06C33.2901 79.7 32.87 81.02 32.85 80.18L33.0601 80.11C32.7301 80.09 32.91 78.68 31.55 79.39L32.6101 78.9C32.6201 78.74 32.34 78.79 32.18 78.77C32.48 78.55 32.68 78.24 33 78.27C33.42 77.48 32.4001 77.63 32.1301 77.26L31.73 77.88C30.84 77.52 31.13 76.7 30.55 76.16L31.13 75.84L30.56 75.65C31.17 75.42 31.33 74.86 30.74 74.92C31.41 74.99 32.07 75.05 32.71 75.08C32.53 75.55 31.85 75.2 31.39 75.71C30.99 76.15 31.49 76.68 32.09 76.42C32.01 76.16 31.89 76.22 31.58 76.17C32.33 75.61 32.4801 75.97 33.1101 75.8C33.0001 75.71 33.15 75.39 32.89 75.52C33.4 75.51 33.6101 75.69 33.8601 76.04C33.4001 75.99 33.47 76.49 33.19 76.54C33.89 76.12 34.33 76.33 34.44 76.9C33.89 77.76 35.51 77.38 35.67 78.02C34.86 78.31 34.1301 78.43 33.6301 78.31C33.5301 78.88 33.9101 78.66 33.8101 79.24C34.4201 79.03 35.26 78.58 35.87 78.76L35.4001 79.15C35.9301 79.33 36.64 78.77 36.87 79.33C37.26 80.3 37.9401 81.08 38.4001 81.7L37.9701 82.13C39.2201 81.57 39.2901 82.85 40.1101 82.84C40.39 83.95 42.01 83.85 41.69 84.95C43.3 85.72 44.71 86.23 46.03 87.34L45.3 87.92C45.92 87.55 45.2 88.46 45.53 88.52C45.61 87.73 46.38 87.98 46.84 87.62C47.14 88.61 48.3901 88.43 49.2401 88.15L49 88.71C50.09 87.97 50.37 89.19 51.1 89.67C51.1 89.94 51.0401 90.53 51.3101 90.56C52.0801 89.79 52.2701 89.93 53.07 89.54C53.5201 89.67 54.1801 90.11 54.5801 90.58C55.6101 90.1 56.4701 90.12 57.3601 90.16C58.24 90.19 59.1401 90.25 60.0201 89.82L60.16 90.53C61.0301 89.75 61.9501 89.64 62.9001 89.57C63.84 89.51 64.78 89.47 65.43 88.91L65.56 90.14C66.13 90.4 66.57 89.56 66.2201 88.75C66.7901 88.99 67.19 87.86 67.78 88.72C68.32 88.78 68.18 88 68.5 87.71C69.5801 87.82 69.8901 87.57 70.6601 87L70.42 87.02C70.43 87.31 70.6201 87.79 70.8701 87.77C71.0601 87.32 72.2201 87.52 71.2901 86.34C72.59 86.69 73.1101 84.7 74.5101 85.24C74.2401 84.93 74.43 84.74 74.39 84.45C75.15 84.01 76.3901 84.21 76.6501 83.26C76.8801 83.35 76.8101 83.95 77.1501 83.8C77.25 83.55 76.8801 83.36 76.9801 83.02C77.7901 81.63 79.86 82.01 80.85 81.04C82.28 78.99 84.39 77.68 85.95 75.99L86.14 76.22C85.89 74.9 88.2401 75.75 87.4401 74.13C87.7701 74.19 88.0101 73.72 88.3301 74.2C88.25 73.71 88.67 73.52 89.1 73.28C89.51 73.07 90.0301 72.68 89.9801 71.99C89.9001 72.04 89.91 72.12 89.93 72.28C91.09 71.96 91.0501 70.7 92.2201 70.32C92.23 70.49 92.16 70.69 92.35 70.92C93.04 71.02 92.1501 69.35 93.32 70.18C93.48 70 92.9401 69.56 92.8601 69.69C94.9 68.4 96.13 66.03 97.89 64.18C99.83 63.71 99.4501 65.96 99.91 64.27C100.17 64.42 99.64 63.79 99.84 64.01C100.03 63.36 101.46 64.75 101.32 63.94C100.68 63.34 101.23 63.4 100.93 62.97C102.15 62.78 102.76 63.3 103.1 62.28L103.3 62.69C103.41 61.05 104.78 61.01 104.79 59.29C109.64 56.12 114.8 53.38 120.58 52.25C123.46 51.93 126.31 51.64 129.19 51.68C132.06 51.72 135 52.11 137.78 53.15C138.84 54.64 138.9 54.62 140.47 54.56C140.36 54.73 140.26 54.74 140.3 54.95C140.65 54.03 141.31 55.17 141.74 54.32C143.72 55.16 145.64 55.65 147.63 56.58C147.27 56.53 146.78 57.18 147.17 57.3L147.83 56.92L147.77 57.2C148.08 57.2 148.57 56.9 148.45 56.48C151.13 57.33 153.38 59 155.37 60.83C157.36 62.65 159.12 64.62 161.11 66.25C161.75 67.37 163.26 68.28 164.33 69.09C166.16 72.82 167.51 76.05 170.58 78.54C170.58 78.54 168.26 79.68 166.84 78.84L166.77 78.79Z" fill="#208896"/>
<path id="Vector_28" d="M32.28 73.4199C31.91 73.7599 31.88 74.2499 31.14 74.2799C31.52 74.0199 31.87 73.5899 32.28 73.4199Z" fill="#208896"/>
<path id="Vector_29" d="M34.9501 85.6201C35.0701 85.5301 34.9201 85.8801 34.8901 85.9701C34.7601 85.8901 34.3601 86.0601 34.4701 85.8001C34.6001 85.8901 34.7501 85.7101 34.9501 85.6201Z" fill="#208896"/>
<path id="Vector_30" d="M36.9501 88.0299C36.6201 88.3199 35.8801 88.0999 35.5601 87.8599C36.0201 87.9299 36.4901 87.9799 36.9501 88.0299Z" fill="#208896"/>
<path id="Vector_31" d="M38.03 91.3599C38 91.8199 37.82 91.9299 37.55 91.6899C37.68 91.4899 37.84 91.4799 38.03 91.3599Z" fill="#208896"/>
<path id="Vector_32" d="M38.82 90.7202C39.02 90.8702 38.9601 91.1502 38.9001 91.4202C39.1201 91.1202 38.29 91.2402 38.82 90.7202Z" fill="#208896"/>
<path id="Vector_33" d="M43.6801 95.52C43.8501 95.57 44.3301 95.42 44.2401 95.92C44.2401 95.54 43.2601 96.02 43.6801 95.52Z" fill="#208896"/>
<path id="Vector_34" d="M46.8501 96.3501C46.9301 96.4201 46.9401 96.5101 47.1001 96.4401C47.2001 96.7001 46.8901 96.9201 46.7201 96.8901L46.8501 96.3501Z" fill="#208896"/>
<path id="Vector_35" d="M94.9401 78.6001L94.8901 78.9701L94.6001 78.6501L94.9401 78.6001Z" fill="#208896"/>
<path id="Vector_36" d="M110.56 65.56C110.67 65.18 110.92 65.84 110.98 65.87C110.79 66.02 110.81 65.35 110.56 65.56Z" fill="#208896"/>
<path id="Vector_37" d="M120.21 59.8202L120.12 59.8502L119.97 58.9702L120.21 59.8202Z" fill="#208896"/>
</g>
<g id="Group_4">
<path id="Vector_38" d="M30.67 118.86C30.2 118.45 30.1401 119.48 30.1801 118.69C30.5401 118.6 30.83 118.57 30.67 118.86Z" fill="#208896"/>
<path id="Vector_39" d="M165.59 124.78C164.09 124.72 163.38 123.86 162.71 122.92C162.05 121.98 161.41 120.95 160.15 120.67C159.91 120.56 161.11 119.86 160.5 119.65C157.8 119.36 156.28 116.43 155.16 113.73L155.51 113.56C155.29 113.05 154.09 113.57 153.79 113.13C153.93 112.94 154.13 112.97 154.23 112.64C153.69 113.12 153.29 112.32 152.79 112.61C152.79 112.27 153.15 111.83 153.12 111.42L152.4 111.89C150.62 112.95 150.86 110.62 149.37 110.82C149.52 110.69 149.69 110.63 149.71 110.43C147.59 110.43 145.81 109.15 143.85 108.68C144.04 108.46 144.34 108.02 144.38 107.68C143.92 108.4 143.28 108.34 142.74 108.27C142.88 107.38 141.6 108.63 141.24 107.97L141.36 107.81C140.6 108.49 140.94 107.06 140.2 107.96L140.18 107.22C139.57 108.31 139.79 106.39 139.22 106.86L139.15 107.1C138.72 107.27 138.75 106.63 138.38 106.72V106.57C137.57 106.65 137.34 105.87 137.09 106.8C137.05 105.98 137.9 106.68 137.81 105.48C135.09 105.69 132.64 105.03 130.1 104.82C129.85 104.41 129.67 104.28 129.63 103.91C129.36 104.08 128.65 104.03 128.4 104.51C128.49 104.5 128.26 104.01 128.12 103.96C127.66 103.58 127.58 105.01 127.09 104.57C127.29 104.32 127.37 104.01 127.31 103.65C126.86 104.4 126.28 104.26 125.77 104.53C125.85 104.37 125.97 104.27 125.94 103.97C125.4 104.84 124.9 103.81 124.43 104.39L124.58 103.82C123.73 103.2 124.42 104.99 123.71 104.65C123.86 104.46 123.79 104.25 123.8 104.02C123.23 105.06 122.2 104.85 121.61 105.26C121.64 105.18 121.61 105.03 121.61 105.03C120.95 105.26 120.18 105.03 119.52 105.63C119.2 105.44 119.36 104.28 118.66 104.62C118.91 105.69 117.54 105.34 118.23 106.47C117.6 106.42 116.54 106.26 116.25 106.74C116.41 106.26 115.59 105.51 116.07 105.28L115.5 104.74C115.43 104.29 115.95 104.78 115.67 104.26C115.41 104.37 114.78 105.01 114.51 104.92C114.23 105.73 114.21 107.06 113.54 107.46C113.74 106.93 112.93 106.38 113.1 106.11C112.99 106.91 112.9 107.68 112.83 108.48C112.62 108.62 112.46 107.68 112.22 108.09C112.35 108.36 112.27 108.58 112.25 108.85C112.11 108.76 111.4 109.5 110.86 108.55C110.58 108.2 111.15 108.17 110.73 107.93C110.3 108.14 110.43 108.49 110 108.7L109.93 108.57C109.57 108.56 109.3 109.4 109.87 109.79C110.08 109.73 109.51 109.23 109.93 109.38C110.01 110.05 109.61 110.45 109.21 110.66C109.27 110.43 109.12 110.18 109.04 109.88C108.87 110.93 108.44 111.48 108.03 112.13C108.28 112.59 107.78 111.18 108.01 111.37C106.87 111.19 106.98 113.16 105.8 112.67C105.85 112.53 106.26 113.26 106.17 113.14C105.78 113.31 105.38 112.68 105.3 113.07C105.03 112.72 105.09 113.38 104.93 113.65C104.99 114 104.74 113.51 104.93 113.33C104.8 113.87 103.92 115.33 102.81 115.39C103 115.61 103.03 116.58 102.85 116.69L102.49 116.1C102.08 115.9 101.98 116.59 101.58 116.16C101.74 117.09 102.51 114.51 102.43 115.4C101.94 115.05 102.44 116.79 101.96 115.98C101.64 116.27 101.82 117.12 101.09 116.89C101.25 116.89 100.75 115.94 100.51 116.2C100.12 116.69 100.59 116.56 100.36 117.06L100.31 117.48C100.73 118 99.84 117.77 100.5 118.18C100.07 117.81 100.07 119.02 99.38 118.15L98.86 117.45C98.7 117.68 99.15 118.42 99.26 118.85C99.18 118.81 99.01 118.73 98.92 118.62C99.8 119.63 98.38 118.97 98.87 119.93C98.15 119.98 97.84 120.87 97.07 120.47C97.05 121.06 97.13 121.67 96.58 121.82C96.56 121.66 96.62 121.54 96.43 121.32C95.93 121.27 96.13 121.56 96.1 121.92C96 121.74 95.11 121.83 94.53 121.76C94.53 122.35 95.16 122.73 95.46 123.06C94.22 122.46 95.28 124.52 94.07 124.08C94.03 123.85 94 123.18 93.52 123.23C92.28 122.65 93.7 124.49 92.77 124.57L93.69 125.18C92.99 124.95 93.47 126.36 92.7 125.55C92.83 125.99 91.88 125.89 92.7 126.57C91.28 126.76 91.12 128.93 89.3 128.02C89.3 128.26 88.89 128.4 89.32 128.75C89.92 129 89.3 128.18 89.65 128.41C89.57 128.53 89.74 128.77 89.83 128.89C89.41 128.96 89.16 129.08 88.79 128.21C87.78 128.24 89.42 130.08 88.4 130.45C88.14 130.09 87.98 130.01 87.8 130.25L87.87 131.18C87.26 131.47 86.94 130.65 86.45 130.09C86.28 130.41 85.93 130.64 86.17 131.17L85.26 130.7C85.92 131.04 85.33 131.23 85.32 131.47V131.23C85.08 131.02 84.9 131.42 84.8 131.62C85.12 131.96 85.55 131.85 85.81 131.82C85.88 132.19 85.62 132.3 85.68 132.75C85.29 132.13 84.91 132.68 84.65 132.79C84.31 132.85 84.77 133.53 84.68 133.57C84.45 133.27 84.23 133.83 84.11 133.26C84.12 133.1 84.53 133.41 84.47 133.03C84.13 132.93 83.76 132.39 83.71 133.03C83.67 133.51 84.64 134.14 83.87 134.13C83.89 133.89 83.74 133.63 83.69 133.35L83 133.38L83.37 133.93C83.21 133.84 83.22 133.76 83.14 133.71C83.41 134.38 82.56 134.4 82.9 135.12C82.7 135.34 82.13 135.09 81.86 135.18V135.1C81.37 134.97 81.14 135.43 81.15 135.96L81.08 135.83C80.9 135.89 80.58 136.21 80.6 136.67C79.93 136.5 79.13 134.62 79.14 135.6C78.76 135.86 79.14 137.03 79.53 137.3C78.57 137.36 78.24 138.79 77.04 138.27C77.06 138.57 77.21 138.68 77.06 138.94C75.83 139.3 74.99 140.9 73.5 140.12C73.72 139.71 73.25 139.5 73.08 139.16C73.05 139.83 72.5 138.74 72.82 139.72C73.09 140.26 73.18 140.54 73.61 140.62C73.06 141.23 71.93 141.7 71.32 141.32C71.62 141.5 71.54 141.73 71.44 141.97C71.14 141.05 70.57 141.12 70.27 141.58L70.41 142.15L69.94 141.68C69.85 141.91 70.16 142.91 69.57 142.51C69.48 142.3 69.38 142.09 69.25 141.96C68.98 142.56 68.58 143.52 67.96 143.19L67.34 142.47C67.16 142.61 66.95 143.21 67.37 143.35C66.41 143.07 65.87 143.12 65.45 142.46C64.44 144.54 62.18 144.96 60.4 144.93L60.43 144.49C59.94 144.1 60.22 145.27 59.88 144.98C60.01 144.56 59.49 144.09 59.83 143.56C59.16 143.13 59 144.35 58.56 144.55C58.5 145.13 58.91 144.18 58.83 144.91C58.75 145.12 57.89 144.47 57.76 145.33C57.59 144.98 57.75 144.34 57.84 143.99L57.42 144.4C56.98 143.37 58.58 142.61 58.09 141.34L57.74 141.47C57.45 140.55 58.65 140.46 57.82 140.13C57.46 140.55 57.07 141.8 57.4 142.2C56.58 142.41 56.92 144.26 56 144.13C55.79 143.6 56.75 144.06 56.62 143.33C56.25 142.6 55.74 143.66 55.38 143.37C55.77 143.74 55.33 144.58 55.02 144.71C54.59 144.25 55.42 143.93 54.77 143.76C54.6 144.25 53.92 144.54 54.42 144.96C54.01 146.06 53.75 144.55 53.24 145.36C53.16 144.53 54.22 143.64 53.57 143.12C53.57 143.91 52.49 144 52.67 145.2C52.41 144.92 52.51 144.32 52.8 143.89C52.5 143.35 51.51 145.07 51.72 143.54L51.4 144.28C51.33 144 51.19 143.77 51.09 143.3C50.75 143.21 49.67 144.03 50.04 142.89C49.89 142.98 49.13 142.68 49.18 143.57C49.54 144.21 49.92 143.16 49.9 144.32C49.79 143.34 49.14 144.22 48.75 144.42L48.84 143.96C48.61 144.08 48.24 143.85 47.97 144.28C48.19 144.08 48.22 143.75 48.12 143.6L47.71 144.2C46.88 144.28 47.96 142.98 47.23 142.92L47.92 142.6C47.77 142.67 47.78 141.97 47.39 142.06C47.04 142.62 46.52 143.24 46.23 143.66C45.74 143.76 46.34 142.92 45.71 143.38L46.49 142.86C46.64 142.69 46.57 141.75 46.09 141.56C45.7 141.63 44.83 142.26 45.18 142.8C44.92 142.7 44.75 142.18 45.14 141.85C44.5 141.79 44.92 142.51 44.27 142.64C44.25 142.16 43.93 141.32 43.87 140.59L44.83 139.87L44.53 139.71C45.31 139.14 44.64 139.03 45.27 138.33C45.14 138.11 44.76 138.25 44.46 138.35C44.37 139.95 42.84 139.73 42.35 140.97C41.3 140.78 43.47 137.9 41.55 139.15C41.51 139.53 40.56 140.13 41.29 140.13C40.86 139.68 40.22 141.03 39.91 140.17C40.65 140.01 40.18 138.74 41.24 138.49C40.96 138.83 41.41 138.99 41.57 138.95C41.64 138.39 42.32 137.85 41.83 137.54C41.47 137.45 41.05 137.2 40.72 137.81C40.3 138.45 41.23 138.05 40.6 138.56C39.84 138.36 40.41 137.35 39.38 138.27C39.82 138.46 39.47 139.16 39.17 139.59L38.53 139.52L38.91 139.17C38.4 138.35 38.16 139.76 37.53 139.13L37.81 138.09C38.49 137.53 38.58 139.14 39.29 137.93C38.88 137.57 38.31 138.02 38.12 137.42C38.28 137.4 38.43 137.46 38.6 137.43C38.47 137.27 39.45 135.7 38.19 136.08C37.62 136.16 37.8 136.4 37.46 136.8C36.68 136.37 36.14 136.6 35.65 136.29C36.41 135.6 34.97 135.55 36.13 135.19C35.94 135.82 36.95 136.62 37.8 136.05C38.32 134.92 38.22 136.61 39.12 135.76C38.61 135.32 39.39 134.41 39.8 133.74C39.7 133.59 39.36 133.74 39.19 133.76C38.66 134.28 38.85 134.42 38.38 135.01C37.94 134.38 37.13 134.23 36.35 134.47C36.41 134.03 36.96 133.55 37.22 133.69C36.42 133.26 35.8 132.53 35.38 131.79C34.9 133.02 34.53 131.32 34.07 132.27C34.19 132.78 33.87 133.67 33.3 133.86C33.15 133.6 33.68 133.5 33.78 133.23C33.05 133.42 34.14 132.09 33.14 132.54C33.99 132.87 34.31 131.65 35.09 131.11C34.31 131.06 35.59 130.67 35.21 130.26C34.44 130.21 33.67 129.96 33.1 129.61C33.25 128.43 31.82 128.05 31.35 127.5C31.5 126.92 32.5 126.47 32.4 126.05C32.11 125.69 31.69 127.01 31.67 126.17L31.88 126.1C31.55 126.08 31.73 124.67 30.37 125.38L31.43 124.89C31.44 124.73 31.16 124.78 31 124.76C31.3 124.54 31.5 124.23 31.82 124.26C32.24 123.47 31.22 123.62 30.95 123.25L30.55 123.87C29.66 123.51 29.95 122.69 29.37 122.15L29.95 121.83L29.38 121.64C29.99 121.41 30.15 120.85 29.56 120.91C30.23 120.98 30.89 121.04 31.53 121.07C31.35 121.54 30.67 121.19 30.21 121.7C29.81 122.14 30.31 122.67 30.91 122.41C30.83 122.15 30.71 122.21 30.4 122.16C31.15 121.6 31.3 121.96 31.93 121.79C31.82 121.7 31.97 121.38 31.71 121.51C32.22 121.5 32.43 121.68 32.68 122.03C32.22 121.98 32.29 122.48 32.01 122.53C32.71 122.11 33.15 122.32 33.26 122.89C32.71 123.75 34.33 123.37 34.49 124.01C33.68 124.3 32.95 124.42 32.45 124.3C32.35 124.87 32.73 124.65 32.63 125.23C33.24 125.02 34.08 124.57 34.69 124.75L34.22 125.14C34.75 125.32 35.46 124.76 35.69 125.32C36.08 126.29 36.76 127.07 37.22 127.69L36.79 128.12C38.04 127.56 38.11 128.84 38.93 128.83C39.21 129.94 40.83 129.84 40.51 130.94C42.12 131.71 43.53 132.22 44.85 133.33L44.12 133.91C44.74 133.54 44.02 134.45 44.35 134.51C44.43 133.72 45.2 133.97 45.66 133.61C45.96 134.6 47.21 134.42 48.06 134.14L47.82 134.7C48.91 133.96 49.19 135.18 49.92 135.66C49.92 135.93 49.86 136.52 50.13 136.55C50.9 135.78 51.09 135.92 51.89 135.53C52.34 135.66 53 136.1 53.4 136.57C54.43 136.09 55.29 136.11 56.18 136.15C57.06 136.18 57.96 136.24 58.84 135.81L58.98 136.52C59.85 135.74 60.77 135.63 61.72 135.56C62.66 135.5 63.6 135.46 64.25 134.9L64.38 136.13C64.95 136.39 65.39 135.55 65.04 134.74C65.61 134.98 66.01 133.85 66.6 134.71C67.14 134.77 67 133.99 67.32 133.7C68.4 133.81 68.71 133.56 69.48 132.99L69.24 133.01C69.25 133.3 69.44 133.78 69.69 133.76C69.88 133.31 71.04 133.51 70.11 132.33C71.41 132.68 71.93 130.69 73.33 131.23C73.06 130.92 73.25 130.73 73.21 130.44C73.97 130 75.21 130.2 75.47 129.25C75.7 129.34 75.63 129.94 75.97 129.79C76.07 129.54 75.7 129.35 75.8 129.01C76.61 127.62 78.68 128 79.67 127.03C81.1 124.98 83.21 123.67 84.77 121.98L84.96 122.21C84.71 120.89 87.06 121.74 86.26 120.12C86.59 120.18 86.83 119.71 87.15 120.19C87.07 119.7 87.49 119.51 87.92 119.27C88.33 119.06 88.85 118.67 88.8 117.98C88.72 118.03 88.73 118.11 88.75 118.27C89.91 117.95 89.87 116.69 91.04 116.31C91.05 116.48 90.98 116.68 91.17 116.91C91.86 117.01 90.97 115.34 92.14 116.17C92.3 115.99 91.76 115.55 91.68 115.68C93.72 114.39 94.95 112.02 96.71 110.17C98.65 109.7 98.27 111.95 98.73 110.26C98.99 110.41 98.46 109.78 98.66 110C98.85 109.35 100.28 110.74 100.14 109.93C99.5 109.33 100.05 109.39 99.75 108.96C100.97 108.77 101.58 109.29 101.92 108.27L102.12 108.68C102.23 107.04 103.6 107 103.61 105.28C108.46 102.11 113.62 99.3702 119.4 98.2402C122.28 97.9202 125.13 97.6302 128.01 97.6702C130.88 97.7102 133.82 98.1002 136.6 99.1402C137.66 100.63 137.72 100.61 139.29 100.55C139.18 100.72 139.08 100.73 139.12 100.94C139.47 100.02 140.13 101.16 140.56 100.31C142.54 101.15 144.46 101.64 146.45 102.57C146.09 102.52 145.6 103.17 145.99 103.29L146.65 102.91L146.59 103.19C146.9 103.19 147.39 102.89 147.27 102.47C149.95 103.32 152.2 104.99 154.19 106.82C156.18 108.64 157.94 110.61 159.93 112.24C160.57 113.36 162.08 114.27 163.15 115.08C164.98 118.81 166.33 122.04 169.4 124.53C169.4 124.53 167.08 125.67 165.66 124.83L165.59 124.78Z" fill="#208896"/>
<path id="Vector_40" d="M31.1 119.41C30.73 119.75 30.7 120.24 29.96 120.27C30.34 120.01 30.69 119.58 31.1 119.41Z" fill="#208896"/>
<path id="Vector_41" d="M33.77 131.61C33.89 131.52 33.74 131.87 33.71 131.96C33.58 131.88 33.18 132.05 33.29 131.79C33.42 131.88 33.57 131.7 33.77 131.61Z" fill="#208896"/>
<path id="Vector_42" d="M35.77 134.02C35.44 134.31 34.7 134.09 34.38 133.85C34.84 133.92 35.31 133.97 35.77 134.02Z" fill="#208896"/>
<path id="Vector_43" d="M36.85 137.36C36.82 137.82 36.64 137.93 36.37 137.69C36.5 137.49 36.66 137.48 36.85 137.36Z" fill="#208896"/>
<path id="Vector_44" d="M37.64 136.72C37.84 136.87 37.78 137.15 37.72 137.42C37.94 137.12 37.11 137.24 37.64 136.72Z" fill="#208896"/>
<path id="Vector_45" d="M42.5 141.52C42.67 141.57 43.15 141.42 43.06 141.92C43.06 141.54 42.08 142.02 42.5 141.52Z" fill="#208896"/>
<path id="Vector_46" d="M45.67 142.34C45.75 142.41 45.76 142.5 45.92 142.43C46.02 142.69 45.71 142.91 45.54 142.88L45.67 142.34Z" fill="#208896"/>
<path id="Vector_47" d="M93.76 124.59L93.71 124.97L93.42 124.64L93.76 124.59Z" fill="#208896"/>
<path id="Vector_48" d="M109.38 111.55C109.49 111.17 109.74 111.83 109.8 111.86C109.61 112.01 109.63 111.34 109.38 111.55Z" fill="#208896"/>
<path id="Vector_49" d="M119.03 105.82L118.94 105.84L118.79 104.96L119.03 105.82Z" fill="#208896"/>
</g>
</g>
<defs>
<clipPath id="clip0_204_3564">
<rect width="170.84" height="145.33" fill="white"/>
</clipPath>
</defs>
</svg>
