<svg width="65" height="64" viewBox="0 0 65 64" fill="none" xmlns="http://www.w3.org/2000/svg">
<g id="Organization / Status / checkmark--filled / 16">
<path id="Fill" fill-rule="evenodd" clip-rule="evenodd" d="M32.5 4C16.9 4 4.5 16.4 4.5 32C4.5 47.6 16.9 60 32.5 60C48.1 60 60.5 47.6 60.5 32C60.5 16.4 48.1 4 32.5 4ZM28.5 44L17.7 33.2L21.3 30L28.5 37.2L44.5 21.6L48.1 24.8L28.5 44Z" fill="url(#paint0_linear_407_9270)"/>
<path id="Inner Fill" fill-rule="evenodd" clip-rule="evenodd" d="M28.5002 44.0001L17.7002 33.2001L21.3002 30.0001L28.5002 37.2001L44.5002 21.6001L48.1002 24.8001L28.5002 44.0001Z" fill="white"/>
</g>
<defs>
<linearGradient id="paint0_linear_407_9270" x1="7" y1="26.5" x2="54.5" y2="46" gradientUnits="userSpaceOnUse">
<stop stop-color="#1EE2E2"/>
<stop offset="0.495642" stop-color="#82EAEA"/>
<stop offset="1" stop-color="#7EFAFA"/>
</linearGradient>
</defs>
</svg>
