<svg width="30" height="30" viewBox="0 0 30 30" fill="none" xmlns="http://www.w3.org/2000/svg">
<g id="Person / User / user / 24">
<path id="Fill" fill-rule="evenodd" clip-rule="evenodd" d="M15 3.75C17.5888 3.75 19.6875 5.84867 19.6875 8.4375C19.6875 11.0263 17.5888 13.125 15 13.125C12.4112 13.125 10.3125 11.0263 10.3125 8.4375C10.3125 5.84867 12.4112 3.75 15 3.75ZM15 1.875C11.3756 1.875 8.4375 4.81313 8.4375 8.4375C8.4375 12.0619 11.3756 15 15 15C18.6244 15 21.5625 12.0619 21.5625 8.4375C21.5625 4.81313 18.6244 1.875 15 1.875ZM24.375 28.125H22.5V23.4375C22.5 22.1943 22.0061 21.002 21.1271 20.1229C20.248 19.2439 19.0557 18.75 17.8125 18.75H12.1875C9.59867 18.75 7.5 20.8487 7.5 23.4375V28.125H5.625V23.4375C5.625 19.8131 8.56313 16.875 12.1875 16.875H17.8125C21.4369 16.875 24.375 19.8131 24.375 23.4375V28.125Z" fill="#3B4B54"/>
</g>
</svg>
