<svg width="24" height="25" viewBox="0 0 24 25" fill="none" xmlns="http://www.w3.org/2000/svg">
<g id="vuesax/broken/calendar-edit">
<g id="vuesax/broken/calendar-edit_2">
<g id="calendar-edit">
<path id="Vector" d="M8 2.5V5.5" stroke="#0F7A9D" stroke-width="1.5" stroke-miterlimit="10" stroke-linecap="round" stroke-linejoin="round"/>
<path id="Vector_2" d="M16 2.5V5.5" stroke="#0F7A9D" stroke-width="1.5" stroke-miterlimit="10" stroke-linecap="round" stroke-linejoin="round"/>
<path id="Vector_3" d="M3.5 9.58997H20.5" stroke="#0F7A9D" stroke-width="1.5" stroke-miterlimit="10" stroke-linecap="round" stroke-linejoin="round"/>
<path id="Vector_4" d="M19.211 16.27L15.671 19.81C15.531 19.95 15.401 20.21 15.371 20.4L15.181 21.75C15.111 22.24 15.451 22.5801 15.941 22.5101L17.291 22.32C17.481 22.29 17.751 22.16 17.881 22.02L21.421 18.4801C22.031 17.8701 22.321 17.1601 21.421 16.2601C20.531 15.3701 19.821 15.66 19.211 16.27Z" stroke="#0F7A9D" stroke-width="1.5" stroke-miterlimit="10" stroke-linecap="round" stroke-linejoin="round"/>
<path id="Vector_5" d="M18.6992 16.78C18.9992 17.86 19.8392 18.7 20.9192 19" stroke="#0F7A9D" stroke-width="1.5" stroke-miterlimit="10" stroke-linecap="round" stroke-linejoin="round"/>
<path id="Vector_6" d="M3 13.58V9C3 6 4.5 4 8 4H16C19.5 4 21 6 21 9V12.5" stroke="#0F7A9D" stroke-width="1.5" stroke-miterlimit="10" stroke-linecap="round" stroke-linejoin="round"/>
<path id="Vector_7" d="M12 22.5H8C4.5 22.5 3 20.5 3 17.5" stroke="#0F7A9D" stroke-width="1.5" stroke-miterlimit="10" stroke-linecap="round" stroke-linejoin="round"/>
<path id="Vector_8" d="M11.9945 14.2H12.0035" stroke="#0F7A9D" stroke-width="2" stroke-linecap="round" stroke-linejoin="round"/>
<path id="Vector_9" d="M8.29529 14.2H8.30427" stroke="#0F7A9D" stroke-width="2" stroke-linecap="round" stroke-linejoin="round"/>
<path id="Vector_10" d="M8.29529 17.2H8.30427" stroke="#0F7A9D" stroke-width="2" stroke-linecap="round" stroke-linejoin="round"/>
</g>
</g>
</g>
</svg>
