<svg width="24" height="25" viewBox="0 0 24 25" fill="none" xmlns="http://www.w3.org/2000/svg">
<g id="vuesax/broken/bookmark">
<g id="vuesax/broken/bookmark_2">
<g id="bookmark">
<path id="Vector" d="M22 9.5C22 4.5 20 2.5 15 2.5H9C4 2.5 2 4.5 2 9.5V15.5C2 20.5 4 22.5 9 22.5H15C20 22.5 22 20.5 22 15.5V13.47" stroke="#0F7A9D" stroke-width="1.5" stroke-linecap="round" stroke-linejoin="round"/>
<path id="Vector_2" d="M7 5.49V2.94" stroke="#0F7A9D" stroke-width="1.5" stroke-linecap="round" stroke-linejoin="round"/>
<path id="Vector_3" d="M17 2.94V12.92C17 14.89 15.59 15.66 13.86 14.62L12.54 13.83C12.24 13.65 11.76 13.65 11.46 13.83L10.14 14.62C8.41 15.65 7 14.89 7 12.92V9.5" stroke="#0F7A9D" stroke-width="1.5" stroke-linecap="round" stroke-linejoin="round"/>
</g>
</g>
</g>
</svg>
