<?xml version="1.0" encoding="utf-8"?>
<!-- Generator: Adobe Illustrator 27.7.0, SVG Export Plug-In . SVG Version: 6.00 Build 0)  -->
<svg version="1.1" id="레이어_1" xmlns="http://www.w3.org/2000/svg" xmlns:xlink="http://www.w3.org/1999/xlink" x="0px"
	 y="0px" viewBox="0 0 281 281" style="enable-background:new 0 0 281 281;" xml:space="preserve">
<style type="text/css">
	.st0{fill:#00D9BF;}
	.st1{clip-path:url(#SVGID_00000137813267772858236150000008560866231546964654_);}
	.st2{fill:none;stroke:#000000;stroke-miterlimit:10;}
	.st3{fill:#FFFFFF;}
	.st4{stroke:#000000;stroke-miterlimit:10;}
	.st5{fill:#00D9BF;stroke:#000000;stroke-linecap:round;stroke-miterlimit:10;}
</style>
<g>
	<g>
		<path class="st0" d="M84.33,203.29c0,0,8.16,6.96,9.66-5.41c0,0-5.81-4.94-20.6-50.56c0,0-4.76-21.57-7.83-21.69
			c-3.07-0.12-3.38,4.83-3.38,4.83S62.22,129.48,67,146v3l2.27-0.91l0.23,1.41c0,0,4-2,2,8c0,0,2.5-0.5,1.5,5.5c0,0,6,4,2,13
			C74.4,177.36,84.33,203.29,84.33,203.29z"/>
		<g>
			<path d="M201.06,268.43c0.65-8.2,4.34-15.86,9.47-22.18c7.88-11.66,18.25-20.6,32.67-22.35c0,0,0.05,0.19,0.05,0.19
				c-5.07,1.86-9.87,4.1-14.36,6.87c-6.7,4.17-13.31,9.07-17.82,15.65c-2.82,4.53-4.76,9.5-6.92,14.36
				c-1.02,2.45-1.93,4.96-2.88,7.49L201.06,268.43L201.06,268.43z"/>
		</g>
		<g>
			<path class="st0" d="M242.75,224.09c2.82-3.27,7.08-5.24,11.39-5.27c4.31-0.04,8.6,1.86,11.48,5.08
				c1.18,1.32,2.16,3.01,1.91,4.76c-0.21,1.46-1.28,2.69-2.58,3.39c-1.3,0.7-2.8,0.92-4.27,0.95
				C254.11,233.15,247.59,229.53,242.75,224.09z"/>
			<path d="M242.65,224.09c2.82-4.5,8.61-6.91,13.83-5.95c2.64,0.5,4.98,1.84,7.02,3.4c2,1.67,4.14,3.47,4.6,6.24
				c0.5,4.88-5.3,6.63-9.19,6.2C252.29,233.59,246.29,229.45,242.65,224.09L242.65,224.09z M242.85,224.09
				c3.78,3.17,8.05,5.97,12.69,7.17c3.77,1.02,10.78,1.81,11.46-3.4c-0.48-4.97-6.3-7.78-10.76-8.06
				C251.39,219.25,246.57,220.99,242.85,224.09L242.85,224.09z"/>
		</g>
		<g>
			<path class="st0" d="M229.51,230.26c0.09-0.01,0.89,1.42,0.99,1.58c0.4,0.57,0.82,1.11,1.27,1.64c0.9,1.05,1.91,2,3,2.85
				c1.07,0.82,2.21,1.55,3.42,2.15c1.2,0.6,2.69,1.34,4.06,1.33c0.7-0.01,1.43-0.31,1.77-0.91c0.19-0.34,0.24-0.74,0.2-1.13
				c-0.14-1.45-1.35-2.59-2.36-3.52c-1.1-1.01-2.39-1.83-3.74-2.47C235.46,230.51,232.44,229.95,229.51,230.26z"/>
			<path d="M229.5,230.16c0.17,0.04,0.13,0.06,0.22,0.13c0.11,0.1,0.23,0.21,0.33,0.32c1.85,2.15,3.99,4.03,6.22,5.76
				c1.68,1.33,3.63,3.09,5.91,3.08c1.64-0.08,1.76-1.48,0.94-2.59c-3.38-3.97-8.38-5.9-13.6-6.51
				C229.52,230.36,229.5,230.16,229.5,230.16L229.5,230.16z M229.5,230.16c5.46-1.72,12.22,0.85,15.03,5.95
				c1.44,3.74-1.72,4.8-4.74,3.46c-1.48-0.57-3.03-0.99-4.46-1.81c-2.43-1.46-4.41-3.72-5.48-6.34c-0.09-0.28-0.27-0.76-0.37-1.03
				c-0.01-0.03-0.03-0.02,0.05-0.02L229.5,230.16L229.5,230.16z"/>
		</g>
		<g>
			<path class="st0" d="M210.08,247.35c-5.97-6.29-7.4-16.46-3.39-24.15c0.75-1.43,1.91-2.92,3.52-2.96
				c1.06-0.02,2.05,0.63,2.66,1.49c0.62,0.86,0.92,1.9,1.14,2.94C215.61,232.23,213.45,240.07,210.08,247.35z"/>
			<path d="M210.09,247.45c-6.41-4.96-7.92-14.08-4.97-21.36c1-2.33,1.77-5.41,4.47-6.32c6.1-1.03,6.23,9.27,5.85,13.26
				C214.8,238.19,212.92,243.11,210.09,247.45L210.09,247.45z M210.06,247.25c1.34-4.73,2.89-9.54,3.27-14.44
				c0.24-3.43,0.42-7.41-1.05-10.53c-1.39-2.37-3.79-1.54-5.03,0.62c-1.99,3.16-2.36,7.1-1.96,10.71
				C205.63,238.51,207.35,243.16,210.06,247.25L210.06,247.25z"/>
		</g>
		<g>
			<path class="st0" d="M207.94,252.32c0.95-2.88,3.7-4.75,6.39-6.16c3.75-1.96,8.1-3.47,12.15-2.28c1.57,0.46,3.18,1.55,3.36,3.18
				c0.11,1.02-0.39,2.03-1.12,2.75c-0.73,0.72-1.66,1.2-2.6,1.62c-3.91,1.76-8.15,2.78-12.44,2.99
				C211.51,254.53,209.08,254.33,207.94,252.32z"/>
			<path d="M207.84,252.33c0.58-3.54,3.78-5.72,6.7-7.27c3.94-2.11,8.84-2.68,13.06-1.12c4.67,1.95,3.11,6.63-0.88,8.25
				C222.84,254.41,210.04,257.78,207.84,252.33L207.84,252.33z M208.04,252.31c1.38,1.66,3.68,1.57,5.66,1.32
				c4.21-0.54,8.31-1.56,12.24-3.15c5.52-2.07,3.46-6.49-1.65-6.66c-2.13-0.09-4.17,0.69-6.07,1.52
				C214.51,247.08,210.21,248.6,208.04,252.31L208.04,252.31z"/>
		</g>
		<g>
			<path d="M92.48,271.07c-7.47-12.97-23.29-22.09-38.17-17.75c-8.07,1.97-15.85,8.27-16.7,16.91c0.07,5.56,4.98,3.05,7.29,0.31
				c4.56-4.72,6.28-11.14,8.22-17.32c0,0,0.19,0.05,0.19,0.05c-0.67,4.33-1.49,8.71-3.33,12.84c-1.96,4.03-4.9,8.73-9.71,9.58
				c-3.01,0.45-5.13-2.92-4.75-5.58c0.26-2.43,1.08-4.58,2.19-6.61c4.56-8.29,14.21-11.02,22.96-11.94
				c4.41-0.35,8.94,0.01,13.23,1.4c8.52,2.9,15.64,9.75,18.76,18.03L92.48,271.07L92.48,271.07z"/>
		</g>
		<g>
			<path class="st0" d="M55.15,252.98c-0.7-1.49-1.92-2.8-3.08-3.93c-1.24-1.21-2.64-2.26-4.13-3.13
				c-4.63-2.69-10.06-3.34-15.26-2.19c-2.77,0.61-6.49,1.83-7.85,4.58c-1.2,2.44,0.59,5.06,2.91,5.94c2.83,1.07,6.52,0.37,9.48,0.1
				c3,0,6.11-0.55,9.1-0.81c1.44-0.13,2.88-0.23,4.33-0.31C52.05,253.14,53.79,253.33,55.15,252.98z"/>
			<path d="M55.06,252.94c-5.93-7.85-19.75-12.61-28.29-6.32c-3.88,3.36-0.28,7.41,3.96,7.2c2.06,0.04,4.19-0.35,6.43-0.54
				c2.89,0.05,5.87-0.4,8.93-0.52c2.64-0.1,5.3-0.04,7.92,0.19c0,0,0.55-0.01,0.55-0.01l0.28-0.02
				C54.91,252.9,54.96,252.93,55.06,252.94L55.06,252.94z M55.24,253.02c-1.4,0.62-3.08,0.5-4.55,0.71
				c-4.55,0.52-8.79,1.52-13.48,1.68c-3.66,0.38-10.4,1.51-12.82-2.98c-3.48-7.47,9.58-9.85,14.65-9.91
				C45.68,242.48,52.79,246.77,55.24,253.02L55.24,253.02z"/>
		</g>
		<g>
			<path class="st0" d="M38.86,108.29c0.97-0.61,1.77-1.57,2.45-2.48c0.73-0.97,1.33-2.02,1.8-3.13c1.45-3.44,1.43-7.25,0.18-10.74
				c-0.67-1.86-1.84-4.33-3.86-5.02c-1.79-0.62-3.45,0.85-3.85,2.53c-0.49,2.05,0.32,4.54,0.76,6.56c0.26,2.08,0.91,4.18,1.36,6.22
				c0.22,0.98,0.41,1.97,0.59,2.96C38.48,106.16,38.5,107.38,38.86,108.29z"/>
			<path d="M38.89,108.19c4.38-4.91,6.91-14.82,1.79-19.99c-2.49-2.16-4.76,0.46-4.24,3.26c0.17,1.4,0.65,2.85,0.97,4.41
				c0.44,3.44,1.54,7.25,1.43,10.85c0,0.44,0.02,0.91,0.08,1.34C38.93,108.1,38.9,108.12,38.89,108.19L38.89,108.19z M38.83,108.38
				c-0.35-0.44-0.49-1.04-0.64-1.58c-0.88-3.64-2.26-6.88-2.9-10.67c-0.41-1.7-1.26-4.87-0.52-7.12c0.56-1.79,2.43-3.28,4.35-2.79
				c2.51,0.73,3.53,3.37,4.44,5.48c2.08,4.32,2.03,9.75-1.08,13.6C41.48,106.54,40.36,107.83,38.83,108.38L38.83,108.38z"/>
		</g>
		<g>
			<path class="st0" d="M65.76,252.31c-2.7,0.14-5.26,1.43-7.22,3.28c-1.22,1.16-2.25,2.52-3.07,3.99c-0.8,1.43-1.67,3.08-1.81,4.74
				c-0.08,0.94,0.16,1.95,0.85,2.6c1.51,1.41,3.93,0.35,5.34-0.66C64.2,263.13,66.65,257.55,65.76,252.31z"/>
			<path d="M65.7,252.38c-1.61,0.55-3.21,1.2-4.58,2.21c-2.55,1.84-9.94,9.18-6.03,12.08c1.36,0.65,2.97-0.31,4.12-1.13
				C63.17,262.35,65.49,257.58,65.7,252.38L65.7,252.38z M65.82,252.23c1.99,5.44-0.73,11.86-5.54,14.87
				c-1.66,1.06-4.07,1.88-5.83,0.46c-2.37-2.28-0.48-5.57,0.42-8.05C56.44,255.17,61.04,251.5,65.82,252.23L65.82,252.23z"/>
		</g>
		<g>
			<path class="st0" d="M29.01,94.85c0.69-1.15,0.87-2.57,0.64-3.9c-0.14-0.83-0.42-1.63-0.8-2.38c-0.37-0.73-0.82-1.54-1.46-2.06
				c-0.37-0.29-0.85-0.48-1.31-0.37c-1,0.23-1.23,1.53-1.2,2.39C24.96,91.2,26.59,93.76,29.01,94.85z"/>
			<path d="M28.99,94.8c0.52-1.64,0.42-3.34-0.06-4.97c-0.36-1.3-1.12-3.94-2.92-3.38c-0.6,0.34-0.7,1.24-0.68,2.02
				C25.57,90.99,26.9,93.28,28.99,94.8L28.99,94.8z M29.02,94.89c-2.8-0.69-4.71-3.57-4.62-6.42c0.02-0.98,0.35-2.21,1.42-2.54
				c1.06-0.29,1.87,0.55,2.43,1.29C30.05,89.28,31.06,92.62,29.02,94.89L29.02,94.89z"/>
		</g>
		<g>
			<path d="M82.79,257.68c-0.27-0.25-0.54-0.49-0.82-0.71l0.17-0.2l0.72,0.5l-0.25,0.35c-2.51-0.96-4.88-2.84-5.71-5.52
				c-0.98-2.71-1.03-6.75,2.96-6.14c4.61,1.54,8.07,9.75,5.86,14.14c0,0-0.31,0.62-0.31,0.62
				C84.44,259.74,83.69,258.59,82.79,257.68L82.79,257.68z M82.93,257.53c0.8,0.79,1.66,1.57,2.64,2.04l-0.7,0.21
				c-0.06-3.42-1.32-7.34-3.05-10.31c-0.67-1.01-1.29-2.17-2.25-2.64c-1-0.52-2.41,0.07-2.51,1.26c-0.12,1.15,0.63,2.31,1.23,3.35
				c1.39,2.05,2.6,4.17,4.53,5.8c0,0-0.25,0.35-0.25,0.35l-0.62-0.63l0.17-0.2C82.4,257.03,82.66,257.28,82.93,257.53L82.93,257.53z
				"/>
		</g>
		<g>
			<path d="M83.65,270c-5.63-8.08-10.66-17.93-16.43-25.89c-6.37-7.94-15.05-13.75-23.9-18.58c-5.93-3.21-12.22-5.72-18.76-7.77
				l0.04-0.2c17.93,2.1,32.13,12.26,43.13,26.13c4.55,5.15,8.67,10.73,11.75,16.89c1.6,3.04,3.05,6.14,4.36,9.32L83.65,270
				L83.65,270z"/>
		</g>
		<g>
			<path class="st0" d="M50.84,228.61c-5.98-3.67-9.92-10.26-10.79-17.18c-0.27-2.16-0.23-4.35,0.14-6.49
				c0.38-2.19,1.34-4.9,3.8-5.41c1.63-0.34,3.16,0.55,4.24,1.73c0.88,0.96,1.49,2.13,2.03,3.31c3.22,7.05,4.22,15.36,2.47,22.94
				c-0.2,0.88-0.45,1.76-0.71,2.62C52.02,230.1,52.44,229.6,50.84,228.61z"/>
			<path d="M50.78,228.7c-4.95-3.05-9.51-7.61-10.83-13.5c-0.97-4.37-0.79-8.97,0.77-13.15c1.38-3.49,5.23-4.07,7.86-1.51
				c3.11,3.35,4.39,7.9,5.4,12.24c1.25,5.86,0.25,11.86-1.83,17.39c0,0-0.27-0.07-0.27-0.07C52.12,229.52,51.19,229,50.78,228.7
				L50.78,228.7z M50.89,228.53c0.53,0.36,1.5,0.87,1.26,1.63c0,0-0.27-0.07-0.27-0.07c0.32-1.41,0.64-2.81,0.75-4.24
				c0.38-5.64-0.2-11.33-1.72-16.77c-1.14-3.22-2.5-9.1-6.66-9.1c-2.9,0.3-3.76,3.93-3.91,6.43
				C39.98,213.7,44.5,224.66,50.89,228.53L50.89,228.53z"/>
		</g>
		<g>
			<path class="st0" d="M38.54,115.53c-4.06,0.97-8.48-0.14-11.76-2.69c-1.02-0.79-1.93-1.74-2.67-2.79
				c-0.76-1.08-1.5-2.62-0.68-3.88c0.54-0.83,1.56-1.1,2.51-1.05c0.77,0.04,1.52,0.27,2.24,0.54c4.32,1.61,8.24,4.69,10.69,8.61
				c0.28,0.46,0.55,0.93,0.8,1.4C39.67,115.66,39.63,115.27,38.54,115.53z"/>
			<path d="M38.57,115.63c-5.8,1.56-10.74,0.56-14.2-4.67c-1.02-1.45-2.35-3.3-1.25-5.16c2.43-3.24,7.72-0.21,10.34,1.4
				c3.09,1.95,5.01,5.11,6.35,8.42c0,0-0.24,0.14-0.24,0.14C39.43,115.42,38.86,115.59,38.57,115.63L38.57,115.63z M38.52,115.43
				c0.39-0.08,1.06-0.26,1.27,0.16c0,0-0.24,0.14-0.24,0.14c-0.9-1.47-2.14-2.68-3.42-3.74c-3.05-2.55-6.43-5.25-10.35-6.13
				c-3.29-0.31-2.58,3.04-0.88,4.65c1.13,1.26,2.63,2.06,4.08,2.76C31.94,114.57,35.18,116.23,38.52,115.43L38.52,115.43z"/>
		</g>
		<g>
			<path class="st0" d="M35.02,220.12c-7.89-2.84-16.59-4.84-25.02-4.76c-2.02,0.02-4.05,0.21-5.6,1.67
				c-2.6,2.44-1.84,6.97,0.51,9.66c3.74,4.28,10.32,5.13,15.73,3.42C26.06,228.39,30.54,224.59,35.02,220.12z"/>
			<path d="M34.92,220.14c-0.72-0.16-1.59-0.3-2.28-0.48c-5.27-1.28-10.97-2.42-16.36-3.16c-3.06-0.37-6.36-1.07-9.4-0.47
				c-3.28,0.7-4.42,4.34-3.24,7.22c2.27,5.9,9.63,7.51,15.27,6.21c4.49-0.93,8.63-3.59,12.28-6.4
				C32.27,222.2,33.8,220.95,34.92,220.14L34.92,220.14z M35.12,220.1c-4.07,5.11-9.17,9.82-15.74,11.43
				c-4.91,1.12-10.64,0.15-14.3-3.52c-2.38-2.41-3.53-6.27-2.14-9.46c1.46-3.37,5.51-3.65,8.66-3.75
				C19.7,214.44,27.88,216.49,35.12,220.1L35.12,220.1z"/>
		</g>
		<g>
			<path d="M37.61,220.77c-2.33-0.81-4.95-1.44-6.99-2.99c-2.08-1.58-3.42-3.89-4.4-6.27c-0.31-0.8-0.52-1.7-0.39-2.6
				c0.11-2.01,2.33-3.31,4.25-2.89c2.75,0.63,4.46,3.04,5.99,5.18c2,2.86,2.48,6.43,2.61,9.79c0,0-0.26,0-0.26,0
				c-0.01,0.01,0.04,0.11,0.04,0.1c0,0,0,0-0.01,0C38.23,220.98,37.83,220.84,37.61,220.77L37.61,220.77z M37.67,220.58
				c0.26,0.09,0.68,0.18,0.92,0.29c0.16,0.11-0.01,0.26-0.12,0.51c-0.57-3.32-2.56-6.19-4.21-9.03c-1.58-2.16-3.42-5.76-6.55-4.93
				c-0.65,0.22-1.11,0.84-1.25,1.58c-0.38,2.46,1.99,4.25,3.54,5.81C32.15,216.68,34.84,219.79,37.67,220.58L37.67,220.58z"/>
		</g>
		<g>
			<path class="st0" d="M47.09,227.61c-0.17,0.18-1.69-0.46-1.94-0.53c-1.18-0.33-2.45-0.44-3.67-0.48
				c-4.58-0.15-10.13,1.09-13.25,4.72c-1.47,1.71-1.78,4.48,0.65,5.51c2.32,0.98,5.37-0.7,7.43-1.7
				C40.29,233.21,44.1,230.91,47.09,227.61z"/>
			<path d="M47.03,227.68c-3.86-0.6-7.76-0.36-11.51,0.38c-1.86,0.36-3.81,0.81-5.41,1.95c-3.62,2.24-3.51,7.34,1.62,6.01
				c4.45-1.77,8.85-4.09,12.88-6.71c0.37-0.27,1.44-1.01,1.79-1.29C46.53,227.93,46.8,227.9,47.03,227.68L47.03,227.68z
				 M47.16,227.53c-2.01,3.55-5.72,6.05-9.24,7.99c-2.83,1.31-5.95,3.32-9.21,2.1c-1.11-0.46-2.05-1.59-2.12-2.81
				c-0.22-3.99,5.22-7.17,8.51-8.36c3.23-0.95,6.77-0.96,9.96,0.14c0.43,0.15,0.97,0.49,1.37,0.69
				C46.69,227.4,46.84,227.52,47.16,227.53L47.16,227.53z"/>
		</g>
		<g>
			<path d="M59.19,237.13c0.08,0.09-0.04,0.05-0.08,0.06c-0.32,0-0.65-0.07-0.96-0.15c-2.26-0.64-4.52-0.92-6.83-1.11
				c-1.29-0.13-2.69-0.31-3.99-0.02c-1.04,0.17-2.59,1.12-2.26,2.23c0.24,0.42,0.75,0.64,1.22,0.81c1.75,0.65,3.72,0.71,5.58,0.54
				C54.54,239.37,56.87,238.35,59.19,237.13L59.19,237.13z M59.34,237c-2.03,4.05-7.49,5.52-11.67,4.28
				c-1.46-0.44-3.35-1.17-3.67-2.91c0.01-1.9,1.74-2.57,3.16-3.07C51.59,233.52,55.57,234.08,59.34,237L59.34,237z"/>
		</g>
		<path d="M141.5,49.77c-1.51,7.51,0.97,15.71,6.39,21.13c5.42,5.42,13.62,7.89,21.4,5.99c2.88,3.98,3.97,9.21,2.92,14.02
			c-1.05,4.8-4.21,9.1-9.02,11.33c4.01-0.33,7.87-2.32,10.45-5.4c2.59-3.08,3.88-7.22,3.31-11.61c0.36-2.85,3.7-4.75,6.47-3.97
			c2.76,0.78,4.6,3.72,4.53,6.59s-1.78,5.54-4.11,7.23s-5.19,2.49-8.04,2.8c0,0,0.77,2.68-3.02,8.91c0,0,1.16,2.67,1.69,2.45
			c0.53-0.22,5.96-7.35,12.24,0.21c6.28,7.57,0,0,0,0l3.12-3.63c0,0,13.02-16.8,6.59-38.3C190,46,165.26,40.08,165.26,40.08
			s-17.19-5.36-38.22,9.78S108,94,120.5,94.5C120.5,94.5,110.99,68.55,141.5,49.77z"/>
		<path d="M172.28,108.5c1.61-2.5,4.83-3.86,7.75-3.27c2.92,0.59,5.35,3.1,5.85,6.03c-8.62-7.23-12.44-2.7-12.44-2.7
			c-1.61,4.56-5.5,8.36-10.28,10.05c-12.01,4.24-20.03,16.8-18.38,28.78s12.81,22.19,25.57,23.41c0,0-17.94-16.81,0.11-30.06
			s20.79-16.98,15.42-29.12c-1.61-2.16-4.06-3.68-6.72-4.15c-2.65-0.47-5.48,0.11-7.73,1.59"/>
		<g>
			<defs>
				<circle id="SVGID_1_" cx="140.5" cy="140.5" r="140.5"/>
			</defs>
			<clipPath id="SVGID_00000111190963734283001620000008207994703695040443_">
				<use xlink:href="#SVGID_1_"  style="overflow:visible;"/>
			</clipPath>
			<g style="clip-path:url(#SVGID_00000111190963734283001620000008207994703695040443_);">
				<g>
					<path d="M140.69,48.78c-8.63,6.41-15.52,15.43-18.36,25.83C118,89.95,124,108.2,139.05,115.06c4.74,2.29,10.12,3.3,15.36,2.67
						c10.55-1.31,20.14-9.7,22.04-20.37c-1.13,11.09-10.88,20.3-21.83,21.92c-5.55,0.85-11.3-0.18-16.37-2.5
						c-15.99-7.1-22.46-26.47-17.42-42.59C124.01,63.61,131.47,54.63,140.69,48.78L140.69,48.78z"/>
				</g>
				<g>
					<path d="M141.82,49.4c-2.62,15.97,11.62,30.21,27.58,26.23c0.37-0.09,0.74,0.06,0.95,0.35c6.54,8.69,3.75,22.26-6.43,26.77
						c0,0-0.49-1.86-0.49-1.86c7.91-0.53,14.19-8.01,13.06-15.95c0.32-3.51,4.29-5.66,7.5-4.68c6.8,2.63,5.77,11.19,0.31,14.67
						c-2.43,1.66-5.33,2.36-8.17,2.56c2.82-0.42,5.62-1.3,7.86-2.99c4.61-3.26,5.54-10.86-0.37-12.96
						c-2.36-0.68-5.33,1.07-5.55,3.41c1.45,8.28-5.18,17.21-14.47,17.88c-1.07,0.1-1.47-1.43-0.49-1.86
						c4.25-1.96,7.42-5.97,8.44-10.53c1.05-4.55,0.04-9.57-2.67-13.4l0.95,0.35C153.01,81.37,137.96,66.12,141.82,49.4L141.82,49.4z
						"/>
				</g>
				<g>
					<path d="M137.98,42.96c-8.58,4.38-15.62,11.39-20.21,19.83c-3.14,6-5.2,12.64-5.43,19.45c-0.77,5.43,2.91,10.85,8.41,11.9
						c-2.81-0.1-5.51-1.61-7.4-3.79c-1.95-2.22-2.71-5.22-2.57-8.14c-0.12-5.68,1.2-11.33,3.41-16.55
						C118.62,55.33,127.32,46.62,137.98,42.96L137.98,42.96z"/>
				</g>
				<g>
					<path d="M184.33,84.98c-3.09,1.79-5.12,4.4-6.1,7.84C177.64,89.22,180.69,85.31,184.33,84.98L184.33,84.98z"/>
				</g>
				<g>
					<path d="M180.19,87.98c1.62-1.05,4.1,0.8,3.55,2.65C182.7,89.23,181.83,88.58,180.19,87.98L180.19,87.98z"/>
				</g>
				<g>
					<path d="M138.9,42.9c17.49-9.66,41.67-3.77,53.28,12.53c5.78,8.2,8.08,18.58,6.97,28.48c-1.06,9.79-5.49,19.4-12.89,25.94
						c6.8-7.07,10.57-16.54,11.34-26.08c1.88-20.07-10.77-37.95-30.33-42.84C157.96,38.42,147.74,38.9,138.9,42.9L138.9,42.9z"/>
				</g>
				<g>
					<path class="st0" d="M172.6,108.13c3.22-6.4,13.14-4.39,13.6,2.77C184.32,104.81,176.7,103.26,172.6,108.13L172.6,108.13z"/>
				</g>
				<g>
					<path d="M173.76,108.2c-1.03,3.59-3.53,6.7-6.66,8.84c-3.13,1.97-6.78,2.9-9.7,5.22c-16.41,12.3-14.92,34.41,2.93,44.53
						c3.15,1.84,6.68,3.04,10.34,3.64c-7.41-0.37-14.76-3.85-19.83-9.53c-11.52-12.22-7.83-30.88,5.67-39.92
						c3.05-2.24,6.8-3.03,10.08-4.77C169.73,114.45,172.31,111.62,173.76,108.2L173.76,108.2z"/>
				</g>
				<g>
					<path d="M185.37,110.49c4.32,3.12,4.95,9.52,3.02,14.24c-1.96,4.89-6.05,8.48-10.16,11.51c-7.78,5.43-18.03,11.62-16.72,22.44
						c-1.64-4.97,0.55-10.49,3.8-14.36c3.35-4.01,7.75-6.76,11.74-9.7c3.94-2.85,7.79-6.1,9.92-10.52
						C188.98,119.79,188.91,114.08,185.37,110.49L185.37,110.49z"/>
				</g>
				<g>
					<path d="M165.01,146.8c-1.63,8.46,0.67,17.18,6.22,23.76C163.42,166.03,160.43,154.57,165.01,146.8L165.01,146.8z"/>
				</g>
				<g>
					<path class="st0" d="M171.74,108.71c4.16-3.84,11.86-2.48,14.45,2.56C182.37,107.34,176.69,106.33,171.74,108.71L171.74,108.71
						z"/>
				</g>
				<g>
					<path d="M111.31,77.86c-9.97,0.83-19.45-5.55-24.03-14.19c-8.38-15.5,3.29-32.88,19.67-35.61c5.71-1.2,11.3,1,16.79,2.25
						c13.31,2.81,27.37,2.12,40.3-2.13c5.4-1.74,10.48-4.69,16.32-4.59c11.77-0.18,22.46,6.62,29.45,15.68
						c5.28,6.68,8.84,14.33,12.23,22.03c2.51,5.11,4.15,10.83,3.27,16.55c-1.51,14.86-16.92,24.79-31.09,20.6
						c10.69,2.54,22.92-2.91,27.31-13.06c3.6-7.62,2.59-16-1.4-23.23c-3.47-7.42-7.25-14.89-12.37-21.25
						c-6.56-8.31-16.59-14.58-27.33-14.38c-5.53-0.05-10.32,2.91-15.46,4.51c-13.45,4.34-28.04,5.07-41.82,1.94
						c-2.66-0.58-5.4-1.5-8.04-2.15C99.29,27.17,81.8,42.97,87.03,59.3C89.99,69.79,100.23,78.12,111.31,77.86L111.31,77.86z"/>
				</g>
				<g>
					<path d="M126.06,32.87c3.16-4.63,6.6-9.08,9.72-13.72c2.12-3.16,3.53-7.16,7.18-8.93c1.51-0.9,3.95-1.2,5.65-1.54
						c7.52-1.37,15.63-0.2,22.37,3.45c1.64,0.86,3.24,1.63,4.93,1.85c3.56,0.31,7.8-0.52,11.22,1.27c5.24,2.37,9,7.87,9.1,13.62
						c-0.93-7.44-7.65-13.63-14.81-13.31c-1.78,0.06-3.71,0.38-5.72,0.15c-2.05-0.21-3.9-1.07-5.58-1.9
						c-3.25-1.72-6.72-2.79-10.34-3.33c-3.6-0.57-7.25-0.56-10.87,0.05l-2.75,0.45c-2.6,0.43-4.73,2-6.22,4.22
						C136.1,21.59,130.87,27.19,126.06,32.87L126.06,32.87z"/>
				</g>
				<g>
					<path d="M139.69,116.14c-1,7.43-0.59,14.76,1.22,22.04C137.76,131.39,137.31,123.23,139.69,116.14L139.69,116.14z"/>
				</g>
				<g>
					<path d="M138.42,129.7c-2.99,3.46-6.42,6.77-9.46,10.14c-1.58,2.43-0.03,5.97,2.65,6.93c2.8,1.2,5.97,0.48,8.68-0.75
						c1.43-0.58,2.83-1.27,4.31-1.76c-2.77,1.35-5.33,3.25-8.55,3.82c-3.16,0.61-7.08-0.59-8.3-3.87c-0.58-1.56-0.59-3.45,0.43-4.91
						C131.4,135.89,134.93,132.84,138.42,129.7L138.42,129.7z"/>
				</g>
				<g>
					<path d="M128.11,144.92c3.24,2.83,5.25,7.17,5.31,11.48C131.96,152.33,130.27,148.67,128.11,144.92L128.11,144.92z"/>
				</g>
				<g>
					<path d="M137.82,127.57c-7.5,2.19-14.37,6.07-20.05,11.39c-0.65,1.44-3.06,5.75-4.17,8.23c-4.15,8.61-7.53,17.55-10.71,26.57
						c1.76-9.47,4.83-18.7,8.93-27.42c1.38-2.97,2.94-5.85,4.57-8.69C122.36,132.35,129.89,128.56,137.82,127.57L137.82,127.57z"/>
				</g>
				<g>
					<path d="M188.46,123.59c17.74,4.81,33.77,15.95,44.89,30.53C220.19,141.49,205.17,131,188.46,123.59L188.46,123.59z"/>
				</g>
				<g>
					<path class="st0" d="M129.42,109.52c-0.26,13.3,12.45,21.03,24.15,14.74c-4.18,5.18-12.49,6.11-18.16,2.6
						C129.71,123.42,126.74,115.61,129.42,109.52L129.42,109.52z"/>
				</g>
				<g>
					<path class="st0" d="M142.5,127.44c3.66,0.63,3.37,5.6-0.53,5.5C138.13,132.67,138.86,126.97,142.5,127.44L142.5,127.44z
						 M142.5,127.44c-0.52-0.06-1.09,0.14-1.35,0.56c-0.47,0.6,0.03,1.88,0.61,1.98c0.6-0.18,1.28,0.31,1.8-0.34
						C144.13,128.89,143.54,127.51,142.5,127.44L142.5,127.44z"/>
				</g>
				<path class="st2" d="M142.61,127.85"/>
				<g>
					<path class="st0" d="M141.28,127.66c0.79,0.63,1.24,0.64,1.71,1.18c0.27,0.66,0.07,1.06,0.27,2.06
						C141.05,132.73,138.66,128.79,141.28,127.66L141.28,127.66z"/>
				</g>
				<g>
					<path class="st0" d="M141.29,131c-0.91,6.59-3.57,12.96-7.24,18.52c-0.72,1.14-1.59,2.2-2.37,3.29
						c-0.65,1.1-0.31,2.62,0.49,3.58c1.03,1.26,2.98,1.57,4.59,1.22c5.25-1.29,7.24-7.13,10.25-11.12
						c-1.97,6.28-5.13,15.2-13.48,13.86c-3.55-0.54-6.17-4.64-4.84-8.11c0.68-1.64,2.07-2.86,3.03-4.34
						C135.61,142.67,138.62,137.02,141.29,131L141.29,131z"/>
				</g>
				<g>
					<path class="st0" d="M144.3,130.17c5.17,3.56,6.44,11.92,2.45,16.8C146.5,141.28,145.66,135.72,144.3,130.17L144.3,130.17z"/>
				</g>
				<g>
					<path d="M135.91,83.52c-1.65,2.72-3.86,5.24-4.12,8.41c-0.4,2.92,1.82,6.12,5.09,5.23c-0.59,0.64-1.55,0.96-2.49,0.89
						c-3.06-0.18-4.99-3.52-4.58-6.3C130.15,88.04,132.94,85.31,135.91,83.52L135.91,83.52z"/>
				</g>
				<g>
					<path d="M131.41,103.4c5.27,1.34,10.54-0.26,14.2-4.28C144.41,105.18,135.75,107.79,131.41,103.4L131.41,103.4z"/>
				</g>
				<g>
					<path d="M148.29,79.56c1.07-0.61,1.7-0.99,2.76-1.61C150.93,79.19,149.43,80.07,148.29,79.56L148.29,79.56z"/>
				</g>
				<g>
					<path d="M125.75,80c-0.91,0.35-1.77-0.99-1.07-1.67C125.19,79.08,125.29,79.23,125.75,80L125.75,80z"/>
				</g>
				<g>
					<path d="M131.56,71.18c-3.62,1.12-6.65,2.61-9.77,4.76C122.63,71.89,127.85,69.35,131.56,71.18L131.56,71.18z"/>
				</g>
				<g>
					<path d="M141.74,70.71c3.67-2.97,10.14-1.42,12.05,2.9C149.96,71.6,146.07,70.66,141.74,70.71L141.74,70.71z"/>
				</g>
				<g>
					<path d="M166.02,174.58c-1.86,0.1-3.46,0.59-5.14,1.39c-1.72,0.6-3.47,1.03-5.11,1.68c-3.47,1.21-5.69,3.83-8.32,6.33
						c-0.69,0.73-1.91,1.73-2.48,2.58c-0.01,0.07-0.01,0.04,0,0.05c0.01,0.02,0.06,0.09,0.15,0.16c1.65,1.03,3.7-0.48,5.17-1.42
						c1.72-0.91,2.86-1.99,4.54-3.07c0.21-0.11,1.24-0.68,1.43-0.78c0.46-0.26,0.86-0.58,1.44-0.73c0.87-0.25,1.76,0.37,1.81,1.36
						c0.04,0.55,0.23,1.06,0.1,1.63c-0.08,0.39-0.5,0.75-0.68,0.88c-0.16,0.12-0.61,0.49-0.77,0.62c-0.69,0.56-2.42,1.86-2.95,2.54
						c-0.41,0.41-1.2,1.24-1.36,1.73c-0.11,0.54,1.21,1.64,1.55,1.81c0.04,0.03,0.32-0.04,0.83,0.11c0.75,0.31,0.91,0.71,1.32,1.19
						c1.04,0.99,2.73,1.27,3.91,2.18c0.69,0.55,1.28,0.77,2.1,0.75c0.77-0.02,1.82,0.24,2.51,0.18c1.14-0.17,2.12-1.34,3.05-2
						c0,0,2.13-1.64,2.13-1.64c1.5-1.07,2.27-2.63,3.5-3.99c1.36-1.39,3.21-1.74,4.64-2.83c-1.3,1.26-3.16,1.85-4.25,3.18
						c-1.06,1.4-1.84,3.21-3.25,4.37c-1.4,1.2-2.72,2.44-4.12,3.62c-1.26,1-2.88,0.58-4.33,0.59c0,0-0.69-0.01-0.69-0.01
						c-1.29-0.05-2.16-1.04-3.26-1.44c-1.22-0.45-2.91-1.15-3.71-2.32c-0.11-0.13-0.2-0.17-0.13-0.13c0.08,0.01-0.1,0.02-0.5-0.01
						c-0.89-0.14-1.3-0.66-1.63-0.9c-3.21-2.53-0.95-4.63,1.24-6.78c0.63-0.52,2.45-1.99,3.06-2.48c-0.06,0.02-0.19,0.38-0.16,0.43
						c-0.03-0.27-0.1-0.78-0.13-1.04l-0.01-0.08c0.02,0.15,0.19,0.3,0.34,0.37c0.28,0.11,0.42-0.02,0.18,0.09
						c-0.62,0.36-1.7,0.96-2.36,1.3c-0.84,0.58-2.27,1.65-3.21,2.25c-1.7,0.9-3.13,2.15-5.13,2.53c-1.59,0.41-4.67-0.57-4-2.8
						c0.26-0.71,0.73-1.11,1.08-1.41c1.99-1.74,3.9-3.65,6.08-5.37c2.9-2.35,6.71-3,10.21-3.79
						C162.36,174.82,164.22,174.45,166.02,174.58L166.02,174.58z"/>
				</g>
				<g>
					<path d="M165.65,174.46c-3.5,0.74-7.46-0.14-10.29-2.46c-1.22-1.01-1.02-3.13,0.56-3.65c0.86-0.35,1.85-0.31,2.71-0.14
						c-0.71,0.08-1.41,0.17-2.03,0.44c-0.56,0.21-1.09,0.61-1.2,1.21c-0.27,1.13,1.1,1.87,2.28,2.49
						C160.11,173.63,162.82,174.28,165.65,174.46L165.65,174.46z"/>
				</g>
				<g>
					<path d="M179.81,184.92c0.99-0.66,2.27-1.54,3.54-1.03c0,0,1.21,0.32,1.21,0.32c3.98,1.29,8.07,2.38,11.64,4.62
						c0,0,2.15,1.26,2.15,1.26c4.3,2.53,8.63,5.07,12.69,7.99c2.57,1.97,17.55,11.95,20.51,14.01c2.6,2.04,6.06,1.48,9.16,1.5
						c1.61-0.11,5.83-0.11,7.39-0.59c0.8-0.14,1.67-0.25,2.22-0.92c-0.46,0.74-1.38,0.99-2.15,1.21c-0.78,0.26-1.61,0.48-2.44,0.6
						l-4.95,0.67c-2.57,0.15-5.13,0.68-7.69-0.02c-2.33-0.84-4.52-2.51-6.65-3.79c-3.3-2.08-7.23-4.59-10.39-6.84
						c-2-1.26-4.25-2.77-6.15-4.25c-4-2.93-8.19-5.52-12.35-8.24c-2.76-1.85-5.46-3.59-8.58-4.77c-1.92-0.77-3.79-1.72-5.73-2.36
						C182.05,183.72,180.92,184.39,179.81,184.92L179.81,184.92z"/>
				</g>
				<g>
					<path d="M169.98,170.58c4.32,0.45,8.53,0.31,12.85,0.14c0.75-0.02,1.37-0.06,2.24,0.05c0.82,0.14,1.39,0.48,2.14,0.68
						c4.06,1.1,8.39,2.28,12.27,3.92c4.1,1.25,8.04,2.92,12.05,4.53c6.55,2.96,13.38,5.13,19.62,8.72c1.27,0.62,2.6,1.41,3.38,2.64
						c-0.97-1.11-2.26-1.64-3.61-2.16c-6.54-2.83-13.51-4.68-20.07-7.44c-5.25-2.1-10.75-3.97-16.02-6.03
						c-3.29-1.23-6.74-2.12-10.02-3.45C179.96,171.8,174.75,171.86,169.98,170.58L169.98,170.58z"/>
				</g>
				<g>
					<path d="M219.75,158.08c3.75,4.21,8.19,7.79,12.17,11.75c4.07,3.78,8.09,8,12.23,11.72c3.06,2.87,6.83,5.96,8.01,10.29
						c0.8,2.86,0.72,5.71,0.86,8.62c-0.09,3.5,0.11,7.38-1.55,10.55c-0.33,0.63-0.88,1.22-1.6,1.36c0.69-0.27,1.08-0.83,1.33-1.5
						c0.91-1.91,0.67-4.1,0.72-6.16c-0.15-4.08-0.37-8.41-1.44-12.36c-1.32-3.96-4.66-6.5-7.68-9.32c-4.1-3.76-8.1-8.05-11.95-12.06
						C227.04,166.74,222.92,162.84,219.75,158.08L219.75,158.08z"/>
				</g>
				<g>
					<path d="M208.56,178.99c-0.16-3.6,0.71-6.95,2.56-10.11c2.46-5.02,5.73-9.66,9.81-13.49c2.23-1.69,4.83-3.04,7.58-3.24
						c1.98-0.26,4.26-0.26,5.68,1.52c0.76,1.26,0.65,2.49,0.69,3.81c0.05,1.19-0.24,2.46-0.64,3.59c-0.53,1.61-1.02,3.39-1.73,4.94
						c-0.47,1.07-1.02,2.12-1.72,3.04c1.02-2.09,1.54-4.33,1.98-6.59c0.31-1.58,0.86-3.31,0.66-4.93c-0.09-0.95-0.11-2.19-0.63-2.91
						c-0.98-0.93-2.59-0.87-4.03-0.59c-1.18,0.19-2.01,0.24-3.04,0.81c-2.1,0.97-3.79,2.08-5.29,3.81
						c-2.33,2.47-4.51,5.13-6.36,7.97c-1.23,1.93-2.45,3.91-3.62,5.85C209.39,174.41,209,176.72,208.56,178.99L208.56,178.99z"/>
				</g>
				<g>
					<path d="M193.83,169.33c1.93,1.17,3.72,2.55,4.82,4.54c0.08,0.19,0.1,0.14,0.15,0.46c0.11,0.86-0.99,1.43-1.64,0.86
						c-0.23-0.2-0.46-0.52-0.65-0.76C195.38,172.93,194.36,171.1,193.83,169.33L193.83,169.33z M193.83,169.33
						c0.41,0.59,0.92,0.57,1.37,0.99c1.15,0.95,2.38,2.3,3.22,3.33c-0.8-0.67-1.93,0.26-1.55,1.13
						C195.96,173.04,194.47,171.35,193.83,169.33L193.83,169.33z"/>
				</g>
				<g>
					<path d="M193.58,169.23c0.16,1.38-0.38,2.52-0.4,3.79c0,0,0.01,0.09,0.01,0.09c-0.04-0.23-0.01-0.23-0.22-0.54
						c-0.12-0.18-0.49-0.41-0.84-0.37c-0.34,0.03-0.5,0.17-0.59,0.24c-0.05,0.04-0.11,0.11-0.15,0.17c-0.1,0.16-0.08,0.14-0.08,0.14
						c0,0.01-0.01,0.03-0.01,0.02c0.4-1.05,0.92-2.06,1.66-2.91C193.19,169.68,193.45,169.65,193.58,169.23L193.58,169.23z
						 M193.58,169.23c0.29,1.25,0.06,2.82-0.36,4.07c-0.09,0.24-0.05,0.2-0.21,0.47c-0.04,0.05-0.11,0.13-0.16,0.18
						c-0.09,0.07-0.25,0.21-0.59,0.24c-0.35,0.04-0.73-0.2-0.84-0.37c-0.21-0.32-0.17-0.31-0.22-0.55
						C191.01,171.92,192.24,170.12,193.58,169.23L193.58,169.23z"/>
				</g>
				<g>
					<path d="M191.67,188.64c0.56,3.8,1.34,7.64,2.03,11.42c1.13,5.53,3.81,10.99,5.34,16.39l0.93,2.73c0.27,0.78,0.59,1.85,1,2.6
						c0.38,0.75,0.91,1.77,0.5,2.64c-0.25,0.61-1.53,2.66-1.85,3.25c-1.11,1.58-2.1,3.28-3.45,4.71c0.96-1.66,1.71-3.45,2.59-5.18
						c0.19-0.44,1.27-2.85,1.4-3.23c0.12-0.51-0.26-0.84-0.56-1.43c-0.47-0.68-0.97-1.92-1.27-2.73c0,0-1.07-2.72-1.07-2.72
						c-1.81-5.71-4.33-10.81-5.09-16.8C191.79,196.91,191.39,192,191.67,188.64L191.67,188.64z"/>
				</g>
				<g>
					<path d="M151.04,179c-3.55,1.56-7.22,2.94-10.78,4.42c-1.75,0.71-3.51,1.31-5.02,2.44c-2.91,2.06-5.18,5.23-5.45,8.85
						c-0.13,1.74,0.37,3.61,0.65,5.56c0.63,3.83,1.1,7.71,1.56,11.55c-1.27-3.67-2.17-7.48-3.09-11.25
						c-2.19-6.56-0.63-12.3,5.27-16.28c1.68-1.14,3.65-1.78,5.56-2.34C143.46,180.74,147.2,179.78,151.04,179L151.04,179z"/>
				</g>
				<g>
					<path d="M146.35,183.88c-3.45,2.27-8.05,3.11-10.71,6.36c-1.68,2.1-1.77,4.9-1.67,7.54c0.09,2.82,0.55,5.63,1.08,8.42
						c0.23,1.42,0.47,2.84,0.62,4.29c-0.58-1.33-1.07-2.69-1.57-4.06c-1.78-5.27-3.82-12.53,0.09-17.4
						C137.32,185.56,142.13,185.13,146.35,183.88L146.35,183.88z"/>
				</g>
				<g>
					<path d="M175.74,188.19c3.55,0.19,4.47,4.25,5.38,6.94c0.97,2.82,1.58,5.91,1.3,8.91c-0.38-0.55-0.64-1.48-0.9-2.09
						c-0.75-2.01-1.64-4.15-2.3-6.2C178.22,193,178.44,189.89,175.74,188.19L175.74,188.19z"/>
				</g>
				<g>
					<path d="M180.05,185.76c4.26,1.73,5.11,9.71,5.9,13.75c0.18,1.27,0.39,2.51,0.46,3.81c0.02,0.43-0.07,0.85,0.15,1.22
						c-0.4-0.24-0.53-0.74-0.69-1.11c-1.27-2.68-2.13-5.54-2.81-8.42C182.19,191.82,182.24,188.38,180.05,185.76L180.05,185.76z"/>
				</g>
				<g>
					<path d="M135.62,205.35c5.38-3.02,11.25-5.58,17.68-5.93c0.81-0.01,1.76-0.05,2.73,0.58c0.9,0.65,1.27,1.56,1.56,2.33
						c0.57,1.66,1.06,3.36,0.47,5.12c-0.61,2.34-3.42,3.2-3.86,5.44c-0.09,0.54,0,1.43,0.13,1.51c0.05,0.15,0.6,0.33,1.28,0.28
						c6.76-0.93,13.6-2.39,20.15-4.29c3.2-1.24,7.98-1.96,10.11-4.88c0.43-0.55,0.8-1.56-0.14-1.82c1.01,0.12,0.8,1.33,0.4,1.97
						c-1.15,2.12-3.57,3.19-5.63,4.18c-5.62,2.5-11.81,4.36-17.81,5.53c-2.3,0.43-4.62,1.17-7.02,1.28
						c-2.65,0.22-3.88-1.56-3.44-4.07c0.2-2.48,3.44-3.95,4.03-5.74c0.48-1.23,0.04-2.72-0.34-3.95c-0.44-1.46-1.04-1.95-2.61-1.91
						C147.24,201.02,141.26,203.07,135.62,205.35L135.62,205.35z"/>
				</g>
				<g>
					<path d="M181.56,201.38c-3.32-0.08-6.59,0.38-9.78,1.14c-3.2,0.73-6.41,1.63-9.53,2.53c-1.28,0.39-2.62,0.8-3.73,1.5
						c-0.11,0.06-0.14,0.2-0.06-0.02c0.08-0.22-0.1-0.56-0.3-0.67c-0.26-0.13-0.24-0.07-0.22-0.09c0.96-0.23,3.07-0.78,4.07-1.03
						c5.69-1.41,11.56-2.55,17.48-2.34c1.32,0.02,2.8,1.25,2.24,2.79c-1.5,3.43-5.63,4.61-8.87,5.52
						c-6.32,1.96-12.89,3.19-19.42,4.31c6.35-1.92,12.71-3.54,18.96-5.8c2.28-0.78,4.56-1.47,6.33-3.03
						c0.44-0.39,1.02-1.08,1.18-1.55c0.03-0.2,0.01-0.07-0.02-0.15c-0.66-0.36-2.14-0.09-2.95-0.13c-6.12,0.2-12.15,1.69-18.13,3.04
						c-0.6,0.2-1.81,0.3-2.06-0.69c-0.37-2.05,3.64-2.72,5.04-3.16C168.27,202.08,174.92,200.42,181.56,201.38L181.56,201.38z"/>
				</g>
				<g>
					<path d="M131.69,211.23c0.29,0.38,0.48,0.79,0.7,1.06c0.8,0.88,1.97,0.45,3.04,0.23C134.3,214.71,130.92,213.85,131.69,211.23
						L131.69,211.23z"/>
				</g>
				<g>
					<path d="M135.4,209.69c0.9,0.47,1.06,1.71,0.54,2.5c-0.2,0.22-0.44,0.61-0.8,0.51c0.09-0.13,0.04-0.26,0.05-0.39
						C135.25,211.41,135.24,210.61,135.4,209.69L135.4,209.69z"/>
				</g>
				<g>
					<path d="M132.11,214.38c2.48,2.1,5.73,2.11,8.75,2.62c1.05,0.16,2.12,0.28,3.26,0.51c-1.01,0.6-2.13,0.9-3.26,1.06
						C137.57,218.97,132.96,218.17,132.11,214.38L132.11,214.38z"/>
				</g>
				<g>
					<path d="M131.19,209.85c-0.62,3.5,0.32,6.21,1.67,9.36c1.21,3.16,1.99,6.49,2.3,9.88c-0.92-1.47-1.65-2.99-2.31-4.53
						C131.11,219.99,127.81,214.47,131.19,209.85L131.19,209.85z"/>
				</g>
				<g>
					<path d="M186.29,203.28c0.5,0.03,1.01-0.08,1.54,0.16c0.54,0.28,0.76,0.84,0.96,1.28c1.98,4.31,2.75,9.97,3.77,14.59
						c1.46,7.75,3.34,15.72,4.77,23.47c0.37,1.97,0.67,4.08,0.15,6.05c0.03-4.04-1.98-7.68-2.81-11.57
						c-2.18-7.72-3.87-15.62-4.84-23.57c-0.36-2.96-0.76-5.9-1.55-8.78c-0.13-0.47-0.25-0.95-0.6-1.21
						C187.31,203.42,186.77,203.4,186.29,203.28L186.29,203.28z"/>
				</g>
				<path class="st2" d="M140.3,252.58c0.63,1.87,1.06,3.7,1.52,5.61c0.11,0.47,0.19,1.2,0.47,1.6"/>
				<g>
					<path d="M142.12,259.25c1.43,5.18,8.29,6.14,12.9,5.99c10.27-0.82,20.47-4.23,29.91-8.24c3.54-1.62,6.97-3.54,10.06-5.93
						c1.03-0.79,2.13-1.58,2.42-2.92c-0.07,1.38-1.13,2.44-2.06,3.34c-2.85,2.8-6.2,5.06-9.74,6.92
						c-9.48,4.79-28.42,11.49-38.49,6.74C144.69,264.02,142.32,262.12,142.12,259.25L142.12,259.25z"/>
				</g>
				<g>
					<path d="M111.13,224.22c2.82,0.87,4.35,2.89,6.44,4.82c2.52,2.4,5.29,4.95,7.75,7.4c1.25,1.14,4.55,4.34,5.81,5.56
						c2.48,2.57,5.13,4.97,7.59,7.57c1.11,1.31,2.69,2.54,3.41,4.16c-0.76-0.98-2.75-2.34-4.11-3.45c-2.03-1.6-4.23-3.43-6.22-5.1
						c-1.37-1.21-4.52-4.21-5.91-5.48c-3.91-3.79-7.58-7.61-10.98-11.88C113.95,226.33,112.63,225.2,111.13,224.22L111.13,224.22z"
						/>
				</g>
				<g>
					<path d="M114.05,216.18c2.21,0.51,4.12,1.89,6.01,3.1c5.79,3.41,11.44,7.09,17.33,10.33c4.47,2.18,5.74,7.7,6.42,12.12
						c0.59,3.32,1.28,6.88,0.38,10.24c-0.26,0.77-0.8,1.92-1.78,1.8c-0.27-0.03-0.65-0.23-0.57-0.55c-0.01,0.32,0.34,0.41,0.58,0.4
						c0.83-0.07,1.09-1.07,1.23-1.78c0.39-3.3-0.58-6.55-1.36-9.77c-1.07-4.13-1.79-8.67-5.91-10.73c-5.9-3.3-11.46-7.2-16.88-11.25
						C117.72,218.64,116.17,217.13,114.05,216.18L114.05,216.18z"/>
				</g>
				<g>
					<path d="M111.75,224.51c-7.4-3.36-15.8-6.05-23.3-9.16c-0.75-0.36-2.08-0.72-2.7-1.36c-0.35-0.31-0.63-0.93-0.56-1.48
						l1.63,0.12c-0.11,0.55-0.22,0.52-0.44,0.87c0.1-0.27-0.1-0.72-0.42-0.81c-0.29-0.05-0.13-0.01-0.09-0.03
						c2.89-0.49,5.88-1.44,7.69-3.94c0,0,0,0.02,0,0.02c-0.01-0.05-0.07-0.07-0.13-0.07c0.05-0.02,0.14-0.01,0.17,0.06l0,0.01
						c-0.96,2.57-3.6,4.15-6.11,5.02c-0.74,0.18-1.18,0.53-2.04,0.39c-0.32-0.07-0.68-0.58-0.59-0.95c0.06-0.42,0.24-0.59,0.39-0.88
						c0.02-0.01-0.02-0.05-0.05,0.19l1.63,0.12c0.24,0.4,1.85,0.78,2.28,0.97C96.94,216.52,105.09,219.34,111.75,224.51
						L111.75,224.51z"/>
				</g>
				<g>
					<path d="M93.72,208.44c7.6,0.33,15.03,3.43,20.96,8.14C107.59,214.38,100.53,211.39,93.72,208.44L93.72,208.44z"/>
				</g>
				<g>
					<path d="M120.87,156.19c-1.37,3.25-2.47,6.97-3.45,10.35c-2.02,5.21-3.53,11.92-5.05,17.33c-1.26,4.55-2.63,9.4-3.66,14
						c-0.66,3.46-1.17,7.3-1.8,10.75c-0.22,1.19-0.46,2.38-0.71,3.57c0.04-1.22,0.09-2.44,0.16-3.65c0.19-3.65,0.34-7.26,0.81-10.9
						c0.73-4.77,2.03-9.59,3.26-14.24c0.66-2.3,2.38-8.29,3.07-10.51c0.58-2.09,1.86-4.82,2.71-6.82
						C117.48,162.78,118.96,159.12,120.87,156.19L120.87,156.19z"/>
				</g>
				<g>
					<path d="M104.6,220.65c-0.64,7.01-1.07,13.74-0.87,20.76c-0.07,1.64,0.23,3.47,0.21,5.14c0,0.51,0.11,1.06,0.18,1.11
						l-1.79,0.53c0.06-0.67,0.33-1.03,0.43-1.27c0.39-0.85,0.6-1.73,1.12-2.66c3.11-4.81,9.6-5.24,14.69-4.58
						c3.71,1.07,6.95,3.25,10.89,2.95c-3.7,1-7.62-0.88-11.11-1.61c-4.39-0.23-10.18,0.29-12.75,4.21
						c-0.35,0.67-1.01,2.64-1.29,3.07c0,0-1.79,0.53-1.79,0.53c-0.82-1.28-0.42-2.58-0.59-3.93
						C101.59,236.82,102.55,228.48,104.6,220.65L104.6,220.65z"/>
				</g>
				<g>
					<path d="M105.54,244.07c0.81,12.09-0.35,24.08-2.79,35.93c-0.5-5.21,0.28-12.74,0.66-18.02
						C103.91,255.99,104.31,249.98,105.54,244.07L105.54,244.07z"/>
				</g>
				<g>
					<path d="M198.53,229.16c2.8,6.05,5.69,12.01,8.15,18.19c1.66,4.66,3.66,9.27,5.13,14.02c0.39,1.6,1.33,3.08,1.69,4.68
						c-0.77-1.45-1.94-2.75-2.59-4.29c-2.55-5.22-5.06-10.5-6.94-16.02C201.68,240.41,199.72,234.85,198.53,229.16L198.53,229.16z"
						/>
				</g>
				<g>
					<path d="M76.38,171.43c-0.92-1.28,0.02-3.11-0.8-4.27c-0.79-1.83-2.84-2.76-3.29-4.76c-0.12-0.83,0.14-1.56,0.12-2.32
						c-0.06-0.8-0.92-1.25-1.41-1.88c-1.41-1.58,0.46-3.73,0.57-5.26c-0.01-0.91-0.13-1.93-0.69-2.61c-0.24-0.3-1.02-0.88-1.33-0.93
						c-0.56-0.03-0.66,0.34-1.17,0.74c-0.81,0.72-1.68,1.5-2.43,2.27c0,0-3.17,3.23-3.17,3.23l0.27-0.47
						c-0.48,1.99-1.01,3.94-1.36,5.92c-0.18,1.05-0.11,2.21,0.19,3.21c0.38,1.51,2.72,3.1,3.34,5.05c0.89,2.65,1.01,5.68,2.52,8.03
						c0.74,1.33,2.32,1.67,3.7,1.58c1.41-0.11,2.43-1.58,3.15-2.97C75.32,174.52,75.85,173,76.38,171.43L76.38,171.43z
						 M76.38,171.43c-0.7,2.95-1.32,7.62-4.78,8.53c-1.83,0.3-3.94-0.21-4.98-1.81c-1.5-2.1-2-4.72-2.68-7.1
						c-0.34-1.59-1.24-2.57-2.39-3.77c-1.64-1.58-2.17-4.27-1.78-6.5c0.35-2.14,0.9-4.3,1.43-6.36c0,0,0.2-0.2,0.2-0.2l3.2-3.19
						c0.8-0.79,1.68-1.61,2.56-2.31c0.58-0.61,1.76-1.4,2.73-1.11c2.41,0.65,3.56,3.11,3.33,5.4c-0.05,1.58-1.43,2.75-1.26,4.07
						c0.03,0.1,0.03,0.12,0.13,0.26c0.63,0.79,1.61,1.58,1.53,2.76c-0.04,1.06-0.61,2.12,0,3.03c0.75,1.22,1.93,2.41,2.44,3.82
						C76.83,168.51,75.64,170.07,76.38,171.43L76.38,171.43z"/>
				</g>
				<g>
					<path d="M77.75,153.36c-2.2-3.06-4.82-6.51-4-10.55c0.47-2.4,3.17-2.65,4.52-0.85c1.04,1.32,1.1,2.93,1.76,4.32
						c1.67,3.21,3.52,6.5,5.83,9.28c1.49,1.68,2.86,3.36,4.56,4.78c0.69,0.56,2.01,1.52,2.69,2.13c0.89,0.93,1.44,1.92,2.06,3.05
						c1.23,2.85,2.83,5.18,4.16,8c2.65,5.36,6.62,9.94,9.97,14.86c-3.55-3.92-7.26-7.72-10.17-12.14c-1.88-3.22-3.96-6.49-5.64-9.83
						c-0.73-1.21-1.25-2.31-2.53-3.17c-3.73-2.69-6.89-6.34-9.26-10.22c-1.45-2.7-3.28-5.33-3.86-8.36c-0.26-1.14-0.77-2.54-2-2.57
						c-0.43,0.01-0.8,0.4-0.99,1.02C73.87,146.77,76.12,150.21,77.75,153.36L77.75,153.36z"/>
				</g>
				<g>
					<path d="M103.97,178.34c-0.95-0.61-1.85-1.63-2.08-2.79c-0.07-0.73,0.03-1.19,0.05-1.84c0.93-3.12,4.67-2.7,7.15-2.37
						c1.78,0.39,3.59,0.94,5.09,2.05c-1.45-0.12-2.87-0.14-4.26-0.25l-1.06-0.06c-1.76,0.22-4.17-0.56-5.3,1.08
						c-0.08,0.29-0.28,1.04-0.36,1.34C103.14,176.5,103.56,177.37,103.97,178.34L103.97,178.34z"/>
				</g>
				<path class="st2" d="M106.23,172.53c-0.59,1.27-1.09,2.59-1.63,3.89c-0.27,0.65-0.5,1.35-0.71,2.02
					c-0.19,0.61-0.41,1.26-0.51,1.88c0-0.02,0.01-0.04,0.01-0.05"/>
				<g>
					<path d="M75.13,175.98c2.48,5.67,4.16,11.54,6.41,17.31c0.88,3.07,2.04,5.76,2.84,8.83c0.16,0.58,0.27,1.2,0.69,1.66
						c-1.08-0.69-1.41-2.08-2.11-3.09c-1.18-2.04-2.38-4.52-3.18-6.7C77.31,188.32,75.72,182.13,75.13,175.98L75.13,175.98z"/>
				</g>
				<g>
					<path d="M74.26,147.24c1.16,2.98,2.36,6.38,3.26,9.25c2.78,6.01,4.66,12.34,7.09,18.51c1.85,4.34,3.24,8.92,4.95,13.3
						c1.62,3.42,3.42,6.69,5.16,10.06c0,0-1.72-2.27-1.72-2.27c-1.67-2.33-3.29-4.72-4.7-7.21c-1.31-2.55-2.22-5.26-3.32-7.87
						c-0.62-1.22-1.1-2.68-1.61-3.95c-1.41-3.04-2.29-6.21-3.5-9.35c-1-3.21-2.34-7.63-3.53-10.81
						C75.72,154.1,74.79,150.05,74.26,147.24L74.26,147.24z"/>
				</g>
				<g>
					<path d="M84.86,203.01c0.64,0.68,0.96,1.75,1.87,1.85c0.21,0,0.61,0.02,0.9,0.03c2.3-0.36,4.73-1.63,6.06-3.59
						c0.31-0.36,0.49-1.23,0.67-1.7c0.21-0.61,0.35-1.2-0.07-1.83c0.76,0.25,1.03,1.23,1.04,1.95c0,0,0,1.11,0,1.11
						c-0.23,2.77-2.9,4.84-5.45,5.42c-0.85,0.23-1.97,0.39-2.93,0.04c-0.19-0.05-0.34-0.08-0.59-0.18
						C85.08,205.6,84.96,204.1,84.86,203.01L84.86,203.01z"/>
				</g>
				<g>
					<path d="M74.84,150.06c-2.27-5.85-4.14-11.8-5.95-17.79c-0.62-1.75-1.25-6.5-3.85-4.83c-0.59,0.56-0.83,1.39-1,2.25
						c-0.64,2.94-0.06,5.96,0.98,8.76c0.89,3.06,1.72,6.06,2.2,9.14c-1.11-2.96-2.29-5.86-3.44-8.72c-1.41-2.86-2.17-6.28-1.6-9.51
						c0.22-2.7,2.67-5.46,5.6-3.75c2.19,1.59,2.24,3.96,2.94,6.15C72.26,137.82,73.75,143.88,74.84,150.06L74.84,150.06z"/>
				</g>
				<g>
					<path d="M66.81,125.67c-0.43-3.55-0.82-7.1-1.2-10.65c-0.09-2.32-1.18-2.56-3.2-1.9c-1.7,0.49-3.39,1.03-5.05,1.66
						c-13.25,4.89-24.72,14.41-31.86,26.58c-3.56,6.07-6.07,12.73-7.47,19.62l-1.79-0.61c8.96-17.73,26.08-29.62,44.19-36.68
						c0,0,0.26-0.11,0.26-0.11l0.07,0.27c0.75,2.84,1.48,5.68,2.2,8.53c-0.9-2.79-1.8-5.59-2.67-8.4l0.33,0.16
						c-8.77,4-17.25,8.81-24.66,14.98c-7.34,6.13-13.77,13.5-18.01,22.1c0,0-3.13,6.33-3.13,6.33l1.34-6.94
						c3.32-17.82,14.95-33.96,30.96-42.5c4.75-2.59,9.82-4.58,15.09-5.8c0.85-0.19,1.86-0.5,2.88,0.01c0.97,0.53,1.05,1.72,1.1,2.65
						C66.41,118.54,66.62,122.1,66.81,125.67L66.81,125.67z"/>
				</g>
				<g>
					<path d="M92.87,209.22c-5.13-2.14-10.88,0.03-14.71,3.64c-3.81,4.07-4.42,9.8-6.1,14.95c-1.1,3.47-2.67,7.02-5.39,9.55
						l-0.07-0.07c2.21-2.93,3.44-6.33,4.45-9.8c1.07-3.45,1.96-7.06,3.73-10.33c1.74-3.24,4.18-6.16,7.43-8.06
						C85.29,207.33,90.15,206.91,92.87,209.22L92.87,209.22z"/>
				</g>
				<g>
					<path d="M87.58,212.41c-3.04,0.02-5.55,1.68-7.88,3.44c-2.42,1.72-4.6,3.83-6.4,6.2c-3.65,4.74-6.72,9.76-9.27,15.19
						c0,0-0.09-0.03-0.09-0.03c1.39-5.89,4.73-11.24,8.95-15.52c3.32-3.05,5.84-7.17,10.17-8.93c1.44-0.56,3.05-0.81,4.54-0.45
						L87.58,212.41L87.58,212.41z"/>
				</g>
				<g>
					<path class="st3" d="M167.14,56.12c3.08,2.72,5.03,6.8,5.21,10.9C170.79,63.2,169.14,59.73,167.14,56.12L167.14,56.12z"/>
				</g>
				<g>
					<path class="st3" d="M171.64,55.56c2.92,2.7,4.81,6.57,5.12,10.54C175.08,62.47,173.46,59.12,171.64,55.56L171.64,55.56z"/>
				</g>
				<g>
					<path d="M97.94,53.59c-0.55-5.68,3.92-11.6,9.54-12.62C102.43,43.45,98.95,48.05,97.94,53.59L97.94,53.59z"/>
				</g>
				<g>
					<path d="M102.85,56.41c0.03-4.04,2.97-8.06,6.83-9.29C106.54,49.66,104.33,52.66,102.85,56.41L102.85,56.41z"/>
				</g>
				<g>
					<path d="M189.31,38.32c3.53,1.42,6.51,4.26,8.09,7.72C194.66,43.37,192.1,40.92,189.31,38.32L189.31,38.32z"/>
				</g>
				<g>
					<path d="M193,36.12c3.33,1.13,6.16,3.79,7.5,7.04C197.99,40.68,195.64,38.47,193,36.12L193,36.12z"/>
				</g>
				<g>
					<path d="M83.47,175.05c2,0,3.02,2.19,4.08,3.56c1.02,1.53,2.02,3.09,2.9,4.71c3.6,6.43,6.21,13.34,8.61,20.27
						c0.54,1.39,1.12,3.72,1.98,4.92c0.97,1.41,2.54,2.45,4.33,2.86c-1.85,0.03-3.75-0.8-5.09-2.24c-1.27-1.45-1.87-3.28-2.67-4.97
						c-2.94-6.69-5.5-13.51-8.55-20.14c-1.14-2.46-2.31-4.96-3.62-7.33C84.99,175.96,84.4,175.21,83.47,175.05L83.47,175.05z"/>
				</g>
				<ellipse class="st4" cx="145.71" cy="82.03" rx="2.58" ry="4.47"/>
				<ellipse class="st4" cx="128.24" cy="82.18" rx="2.49" ry="4.32"/>
				<g>
					<path class="st3" d="M170,126.17c-0.87,3.57-3.62,6.72-7.04,8.05C165.62,131.67,167.84,129.15,170,126.17L170,126.17z"/>
				</g>
				<g>
					<path class="st3" d="M172,128.56c-0.41,2.56-2.17,4.87-4.53,5.94C168.94,132.34,170.31,130.55,172,128.56L172,128.56z"/>
				</g>
			</g>
		</g>
		<g>
			<path class="st0" d="M223.32,232.57c-3.7-10.33,0.17-22.88,9.03-29.33c1.48-1.08,3.36-2.03,5.08-1.41
				c1.23,0.45,2.09,1.64,2.41,2.91c0.32,1.27,0.19,2.61-0.05,3.9C238,218.19,230.67,225.59,223.32,232.57z"/>
			<path d="M223.3,232.67c-2.92-5.82-2.73-13.01-0.07-18.91c1.74-3.7,4.37-6.78,7.34-9.48c1.12-0.89,2.62-2.24,3.99-2.75
				c2.69-1.3,5.63,0.59,6.16,3.43c0.38,1.77,0.09,3.48-0.26,5.04C238.4,219.68,230.86,226.9,223.3,232.67L223.3,232.67z
				 M223.34,232.48c3.93-4.77,8.38-9.32,11.57-14.61c2.21-3.77,4.47-8.2,4.22-12.61c-1.23-6.15-7.37-1.75-9.83,1.13
				c-2.08,2.33-3.5,5.15-4.54,8.02C222.53,220.14,222.11,226.46,223.34,232.48L223.34,232.48z"/>
		</g>
		<g>
			<path class="st0" d="M239.38,168.11c1.01-7.02,7.02-13.01,14.03-14.01c1.17-0.17,2.53-0.14,3.33,0.73
				c0.57,0.63,0.69,1.57,0.5,2.39c-0.2,0.82-0.68,1.55-1.21,2.21C252.11,164.35,245.69,166.35,239.38,168.11z"/>
			<path d="M239.31,168.19c-0.2-4.28,2.14-8.52,5.51-11.07c2.62-1.85,5.68-2.78,8.75-3.38c5.03-0.91,5.61,3.87,2.66,6.89
				C252.15,165.66,245.51,167.54,239.31,168.19L239.31,168.19z M239.44,168.04c1.51-0.79,3.93-1.77,5.51-2.46
				c4.23-1.99,9.1-4.16,11.44-8.36c0.82-1.96-0.8-3.05-2.74-2.81c-3.01,0.21-5.7,1.95-7.77,3.99
				C242.94,161.01,240.83,164.37,239.44,168.04L239.44,168.04z"/>
		</g>
		<g>
			<path class="st0" d="M63.86,241.71c0.03-0.21-1.22-1.4-1.4-1.63c-0.47-0.63-0.9-1.3-1.29-1.99c-2.31-4.16-3.08-9.74-1.37-14.26
				c0.59-1.56,2.23-2.5,3.55-1.13c1.37,1.41,1.6,3.75,1.69,5.61C65.27,232.82,64.5,237.27,63.86,241.71z"/>
			<path d="M63.76,241.7c-0.59-0.54-1.57-1.1-2.03-1.77c-3.28-3.52-4.11-8.65-2.99-13.2c0.47-1.85,0.47-4.05,2.45-5.1
				c2.34-0.98,4.08,1.84,4.47,3.74c1.24,5.53-0.03,11.13-1.7,16.36C63.96,241.73,63.76,241.7,63.76,241.7L63.76,241.7z M63.76,241.7
				c-0.12-3.67,0.24-7.26,0.25-10.77c-0.04-2.5,0.28-5.19-0.96-7.35c-0.88-1.66-2.54-0.86-3.03,0.68c-1.07,2.46-0.73,5.27-0.06,7.77
				c0.73,3.17,1.82,6.3,3.7,8.98c0.14,0.26,0.27,0.38,0.31,0.72C63.96,241.73,63.76,241.7,63.76,241.7L63.76,241.7z"/>
		</g>
		<g>
			<path class="st0" d="M81.06,139.69c0.13-0.1,0.09-1.37,0.13-1.59c0.08-0.58,0.21-1.16,0.37-1.72c0.97-3.4,3.5-6.74,6.77-8.21
				c1.13-0.51,2.48-0.14,2.46,1.27c-0.02,1.46-1.13,2.82-2.06,3.84C86.47,135.76,83.73,137.69,81.06,139.69z"/>
			<path d="M81,139.61c-0.71-2.7,0.15-5.77,1.92-7.9c1.45-1.59,3.24-2.66,5.04-3.74c3.29-1.78,4.52,1.69,2.84,4.21
				c-2.23,3.66-5.9,5.91-9.68,7.59C81.12,139.77,81,139.61,81,139.61L81,139.61z M81,139.61c1.77-2.13,3.81-3.87,5.62-5.71
				c1.05-1.14,4.3-3.76,3.18-5.31c-0.35-0.26-0.99-0.3-1.55-0.02c-1.87,0.69-3.09,2.43-3.98,4.09c-0.96,1.59-1.89,3.36-2.48,5.12
				c-0.33,0.66-0.24,1.35-0.67,1.98C81.12,139.77,81,139.61,81,139.61L81,139.61z"/>
		</g>
		<path class="st5" d="M168.45,252.12c0.03,0.03,0.07,0.05,0.1,0.08c0.49,0.32,1.1,0.36,1.69,0.37c6.18,0.13,12.45-1.29,17.85-4.33
			c0.45-0.25,0.91-0.53,1.21-0.95c0.71-1.01-0.21-3.1-0.46-4.17c-0.38-1.61-0.78-3.22-1.2-4.82c-0.23-0.89-0.72-3.62-1.99-2.54
			c-5.32,4.51-11.81,6.38-18.68,6.49c-2.91,0.04,0.03,7.4,0.64,8.67C167.82,251.36,168.06,251.82,168.45,252.12z"/>
	</g>
	<ellipse class="st3" cx="143.5" cy="79.88" rx="1.5" ry="1.88"/>
	<ellipse class="st3" cx="125.5" cy="79.88" rx="1.5" ry="1.88"/>
</g>
</svg>
