<svg width="30" height="30" viewBox="0 0 30 30" fill="none" xmlns="http://www.w3.org/2000/svg">
<g id="Actions / Operations / search / 16">
<path id="Fill" fill-rule="evenodd" clip-rule="evenodd" d="M28.125 26.8125L20.0625 18.75C23.625 14.4375 23.0625 7.87503 18.75 4.31253C14.4375 0.750026 7.87503 1.31253 4.31253 5.62503C0.750026 9.93753 1.31253 16.5 5.62503 20.0625C9.37503 23.25 15 23.25 18.75 20.0625L26.8125 28.125L28.125 26.8125ZM3.75003 12.1875C3.75003 7.50003 7.50003 3.75003 12.1875 3.75003C16.875 3.75003 20.625 7.50003 20.625 12.1875C20.625 16.875 16.875 20.625 12.1875 20.625C7.50003 20.625 3.75003 16.875 3.75003 12.1875Z" fill="#3B4B54"/>
</g>
</svg>
