<?xml version="1.0" encoding="utf-8"?>
<!-- Generator: Adobe Illustrator 27.7.0, SVG Export Plug-In . SVG Version: 6.00 Build 0)  -->
<svg version="1.1" id="레이어_1" xmlns="http://www.w3.org/2000/svg" xmlns:xlink="http://www.w3.org/1999/xlink" x="0px"
	 y="0px" viewBox="0 0 281 281" style="enable-background:new 0 0 281 281;" xml:space="preserve">
<style type="text/css">
	.st0{fill:#4CBFB1;}
	.st1{fill:#00D9BF;}
	.st2{clip-path:url(#SVGID_00000026143766279373346440000005223346701233611709_);fill:#00D9BF;}
	.st3{clip-path:url(#SVGID_00000026143766279373346440000005223346701233611709_);}
	.st4{clip-path:url(#SVGID_00000026143766279373346440000005223346701233611709_);fill:#4CBFB1;}
	.st5{fill:#FFFFFF;}
	.st6{clip-path:url(#SVGID_00000026143766279373346440000005223346701233611709_);fill:#FFFFFF;}
</style>
<path class="st0" d="M354,125"/>
<g>
	<g>
		<path d="M241.52,119c7-0.31,17.09-0.37,24.2-0.41c2.01,0.01,4.03-0.04,6.04-0.01c1.86,0.02,3.72,0.04,5.3-0.73
			c2.64-1.24,0.7-4.13-1.53-4.57c-0.97-0.3-1.9-0.3-2.93-0.41c0,0-4.36-0.78-4.36-0.78l4.32-0.51c1.74-0.24,1.86-2.76,1.04-4.02
			c-1.72-2.41-5.18-2.08-7.85-2.53c-3.42-0.43-6.63-2.71-5.88-6.54c1.91-6.78,4.31-15.62-2.71-20.28c-6.23-3.91-14.7-1.67-18.3,4.88
			c-1.86,3.15-2.71,6.95-2.48,10.71c0.18,2.84,1.62,6.83-1.4,8.76c-0.89,0.61-1.92,0.87-2.92,0.97c-0.17,0.02-0.23-0.25-0.05-0.3
			c5.35-1.55,3.38-5.02,2.55-9.23c-0.64-4.09-0.06-8.45,1.91-12.25c6.54-13.56,28.07-10.71,28.02,5.31c0,3.18-0.8,6.19-1.98,9.07
			c-0.66,1.65-1.55,3.42-0.88,5.1c1.87,3.65,6.88,2.52,10.23,3.91c2.15,0.67,3.63,2.83,3.27,5.11c-0.12,1.13-1.01,2.34-2.28,2.61
			l-0.03-1.29c1.81-0.02,4.35-0.11,6.24,1.63c1.47,1.18,2.06,3.85,0.71,5.5c-3.25,3.8-9.63,2.28-14.05,2.48
			c-8.09-0.21-16.17-0.73-24.19-1.88C241.33,119.28,241.34,119.01,241.52,119L241.52,119z"/>
	</g>
	<g>
		<path d="M90.85,6.97c-8.6-5.6-20.15-0.64-21.57,9.61c-1.14,6.18,3.39,11.06,4.88,16.81c1.48,5.22-1.64,12.86-8,11.86
			c-3.88-0.71-6.53-3.53-9.92-5.13c-5.79-3.22-13.84-4.38-18.65,0.86c-3.05,3.59-2.87,8.79,0.89,11.86
			c2.45,2.57,0.13,5.48-2.69,6.11c-2.37,0.64-4.85-0.15-7,0.93c-2.13,1.03-2.12,3.84-0.98,5.64c1.1,2,3.45,2.84,5.73,3.03
			c11.92-0.19,23.97-1.5,35.96-1.34c9.63-0.04,19.27,0.27,28.88,0.9c4.38,0.15,9.42,1.31,13.27-0.83c1.73-0.98,3.01-2.71,2.97-4.31
			c-0.04-1.64-1.41-3.09-3.07-3.17c-1.85-0.13-2.02-2.76-0.26-3.17c5.65-1.42,8.76-8.73,5.31-13.68c-4.29-6.9-11.17-3.15-17.38-5.7
			c-3.4-1.41-6.4-6.17-3.33-9.33c1.34-1.39,2.97-1.96,4.2-2.92c1.23-0.92,2.02-2.35,2.29-3.9C103.44,13.26,96.55,10.28,90.85,6.97
			L90.85,6.97z M91.02,6.72c5.98,3.34,12.9,6.31,12.21,14.53c-0.2,1.73-1.02,3.5-2.42,4.66c-1.35,1.15-2.93,1.86-3.85,2.98
			c-2.11,2.5,0.6,5.59,3.08,6.5c1.3,0.53,2.91,0.57,4.51,0.55c5.71-0.4,11.03,0.11,14.51,5.42c4.72,6.55,0.7,16.52-7.05,18.41
			c0,0-0.25-3.17-0.25-3.17c3.24,0.16,6.01,3.02,6.05,6.28c0.04,3.15-2.04,5.72-4.6,7.16c-4.84,2.6-10.06,1.28-15.05,1.01
			c-4.77-0.38-9.55-0.69-14.33-0.93c-4.78-0.26-9.57-0.46-14.36-0.57c-9.58-0.27-19.17-0.31-28.76,0.02
			c-3.56,0.03-7.5,0.68-10.9-0.98c-2.35-1.09-3.94-3.71-3.66-6.33c0.13-1.33,1.02-2.59,2.2-3.19c3.37-1.67,7.54,0.4,9.76-2.84
			c0.96-1.53-0.72-2.82-1.81-3.83c-1.39-1.4-2.18-3.32-2.33-5.27c-0.71-8.76,8.68-13.39,16.33-11.82c3.76,0.67,7.17,2.31,10.36,4.28
			c2.57,1.51,5.52,4.14,8.51,2.57c3.6-2.25,3.35-7.94,1.74-11.53c-1.75-4.39-4.15-9.36-2.92-14.28C70.03,5.83,82.18,0.89,91.02,6.72
			L91.02,6.72z"/>
	</g>
	<g>
		<path class="st1" d="M6.97,84.02c0,0,22.26-0.15,30.15,16.42c0,0,14.77,15.11,30.33-20.16l2.38-2.6c0,0-3.71,21.06,8.24,36.69
			c0,0,0.91,10.75-18.57,19.69c0,0-17.45,5.7-11.97-10.18c0,0,1.94-6.64-8.79-3.76c0,0-10.14,7.42-12.43-4.85
			C26.29,115.27,20.94,96.04,6.97,84.02z"/>
		<g>
			<path d="M68.82,77.67c-1,9.69,0.63,19.53,4.86,28.26c1.29,3.23,3.61,5.37,4.45,8.95c0.32,1.87-0.52,3.68-1.35,5.22
				c-2.33,4.5-5.83,8.35-9.98,11.24c-5.58,3.75-16.91,8.73-21.85,1.76c-1.77-2.31-0.58-6.02-0.03-8.12c0.3-1.44,0.16-2.42-0.65-3.18
				c-2.17-1.9-5.04-0.8-7.5,0.36c-6.42,3.39-11.46,1.97-12.69-5.64c-3.18-13.62-11.72-25.7-23.05-33.87c0,0,3.73,0.09,3.73,0.09
				c19.53,0.15,28.44,6.01,34.87,24.58c1.77,4.75,3.38,9.55,5.85,13.99c-6.76-10.29-8.52-24.46-19.34-31.63
				c-6.32-4.05-14-4.43-21.4-4.42c0,0,0.78-2.25,0.78-2.25c10.58,8.07,18.3,19.84,21.43,32.83c0.6,2.18,0.74,4.11,2.67,4.88
				c3.81,0.98,6.98-2.69,11-2.84c4.47-0.52,8.39,3.04,7.12,7.69c-0.71,3.03-1.95,5.4,0.87,7.32c4.65,2.76,12.61-0.93,16.81-3.58
				c3.91-2.57,7.26-6.08,9.53-10.19c0.79-1.39,1.47-2.72,1.29-3.98c-0.57-2.81-2.97-5.73-3.98-8.57
				C68.39,97.54,67.12,87.32,68.82,77.67L68.82,77.67z"/>
		</g>
		<g>
			<defs>
				<circle id="SVGID_1_" cx="140.5" cy="140.5" r="140.5"/>
			</defs>
			<clipPath id="SVGID_00000165228899780358931900000017486392196295527832_">
				<use xlink:href="#SVGID_1_"  style="overflow:visible;"/>
			</clipPath>
			<path style="clip-path:url(#SVGID_00000165228899780358931900000017486392196295527832_);fill:#00D9BF;" d="M141.16,179.23
				c2.52,7.77,1.11,16.18-0.5,24.19c-1.99,9.85-4.32,19.78-9.03,28.65c-1.05,1.97-2.24,3.92-3.96,5.34
				c-2.81,2.32-6.61,2.92-10.21,3.44c13.61-20.38,17.89-46.73,11.69-70.56c2.62,0.95,4.41,3.41,6.76,4.89
				c0.73,0.46,1.51,0.83,2.23,1.31c0.83,0.56,1.56,1.26,2.29,1.95C140.71,178.72,141.04,178.86,141.16,179.23z"/>
			<g style="clip-path:url(#SVGID_00000165228899780358931900000017486392196295527832_);">
				<path d="M165,80c2.55-0.85,5.81,1.35,7.44,3.11c4.54,4.92,8.69,10.2,12.4,15.77c1.67,2.51,2.19,5.26,3.15,8.11
					c0.76,2.26,2.16,4.55,1.83,6.9c-0.17,1.19,0.04,2.39,0.34,3.56c0.05,0.2,0.1,0.41,0.13,0.62c0.09,0.53,0.11,1.07,0.11,1.61
					c0.03,2.17-0.12,4.35-0.43,6.5c-0.11,0.77-0.24,1.53-0.3,2.3c-0.08,1.13,0.13,2.22-0.26,3.28c5.2-3.15,7.12-9.79,7.39-15.87
					c0.56-12.61-2.49-24.39-11.32-33.4c-0.01-0.01-0.02-0.01-0.02-0.02c-2.48-3.48-6.08-3.96-9.66-4.48
					c-19.44-2.86-39.95,4.09-53.82,17.95c-0.17,0.17-0.34,0.37-0.5,0.56c-4.1,5.24-5.21,8.22-7.71,14.39
					c-2.5,6.17-3.17,13.41-0.25,19.4c2.7,5.55,8.12,9.35,13.79,11.79c-1.74,4.15-3.49,8.35-4.19,12.8s-0.27,9.23,2.12,13.04
					c2.73,4.35,7.54,6.85,12.01,9.4c4.47,2.54,9.09,5.66,10.84,10.49c1.78,4.89-0.14,10.86-4.43,13.8c0.21-0.16,0.4-0.35,0.61-0.51
					c0.19-0.15,0.39-0.29,0.56-0.46c0.35-0.34,0.63-0.75,1-1.06c0.09-0.08,0.09-0.15,0.17-0.24c4.6-5.04,8.44-10.93,10.2-17.53
					c1.76-6.6,1.26-13.95-2.23-19.82c-2.46-4.12-6.2-7.27-9.33-10.9c-3.05-3.53-5.64-7.93-5.32-12.55c0.03-0.45-0.12-1.12-0.37-1.5
					c-1.18-1.73-2.43-3.47-3.61-5.2c-0.69,2.71-3.88,4.28-6.65,3.84c-2.77-0.44-5.07-2.43-6.71-4.7c-2.11-2.93-3.39-6.45-3.64-10.05
					c-0.21-3.05,0.59-6.64,3.94-7.5c0.8-0.21,1.65-0.19,2.46,0c2.64,0.64,4.41,2.74,5.57,5.03c0.05,0.11,0.18,0.26,0.22,0.37
					c0.53,1.38,1.23,2.78,2.05,4.03c1.16,1.75,2.62,3.3,4.3,4.56c0.84,0.63,1.73,1.19,2.67,1.67c0.47,0.24,0.95,0.45,1.43,0.65
					c0.35,0.14,1.17,0.25,1.43,0.5c-3.32-3.19-4.78-8.19-3.69-12.67c0.92-3.8,3.49-7.02,6.43-9.6s6.29-4.65,9.38-7.05
					s6-5.21,7.62-8.78c1.62-3.56,1.73-8-0.51-11.21"/>
				<path d="M165,80c5.35-1.13,9.04,5.11,12.2,8.48c3.21,4.08,6.7,8.08,9.02,12.75c1.03,2.42,1.51,5,2.55,7.38
					c0.49,1.2,1.02,2.42,1.21,3.74c0.18,1.32-0.23,2.58,0.1,3.88c1.01,3.8,0.39,7.85-0.1,11.68c-0.25,1.26,0.14,2.58-0.34,3.93
					l-0.34-0.28c4.84-3.01,6.71-8.94,7.16-14.35c1.02-13.39-2.6-26.23-12.3-35.79c-2.69-2.64-6.73-2.88-10.3-3.33
					c-7.4-0.85-14.98-0.28-22.19,1.57c-10.84,2.73-20.97,8.32-28.96,16.15c-1.33,1.26-2.34,2.88-3.37,4.37
					c-9.71,16.33-12.05,32.75,8.17,41.46c0,0,0.43,0.19,0.43,0.19l-0.18,0.43c-3.44,7.96-7.04,17.86-1.82,25.81
					c3.46,5.08,9.49,7.35,14.51,10.63c5.24,3.15,10.06,8.95,8.49,15.46c-0.61,3.1-2.4,5.98-5.02,7.8l-0.5-0.7l0.95-0.78
					c0.43-0.3,0.76-0.88,1.22-1.23c8.21-8.98,14.19-21.23,9.76-33.54c-3.54-10.22-17.03-15.54-16.35-27.5
					c-0.02-0.72-0.66-1.51-1.05-2.06c0,0-2.87-4.13-2.87-4.13l0.58-0.1c-0.76,2.86-3.92,4.4-6.71,4.11
					c-7.73-1.13-12.8-12.94-10.22-19.82c1.05-2.76,4.49-3.97,7.1-2.71c2.6,1.1,4.25,3.58,5.29,6.09c1.93,4.56,5.7,8.44,10.42,10.07
					c0.33,0.1,0.66,0.12,1.04,0.42l-0.32,0.33c-3.7-3.6-5.08-9.38-3.3-14.22c3.7-10,15.43-12.93,21.4-21.09
					c3.01-3.95,4.22-9.83,1.29-14.15c2.97,4.31,1.8,10.23-1.2,14.22c-4.51,6.26-12,9.27-17.18,14.82c-5.62,5.6-6.58,14.34-0.7,20.1
					c0,0-0.32,0.33-0.32,0.33c-2.45-0.75-5.04-2.14-6.95-3.96c-2.02-1.84-3.59-4.14-4.67-6.64c-1.02-2.41-2.59-4.79-5.02-5.79
					c-2.39-1.12-5.41-0.08-6.37,2.43c-1.76,4.95,0.3,10.79,3.35,14.85c1.6,2.06,3.83,3.82,6.42,4.11c2.75,0.32,5.81-1.46,6.18-4.34
					c0,0,0.41,0.59,0.41,0.59l2.88,4.13l0.72,1.03c0.79,1.18,0.27,2.57,0.52,3.84c1.45,10.43,13.04,15.15,16.32,24.79
					c2.38,6.43,1.89,13.66-0.58,19.95c-2.14,5.54-5.66,10.46-9.64,14.79c-0.26,0.27-0.54,0.67-0.9,0.94l-0.99,0.82l-0.5-0.7
					c2.41-1.68,4.08-4.37,4.64-7.26c2.04-10.11-8.86-14.9-16.03-19.16c-13.44-7.82-10.63-20.88-5.17-32.93c0,0,0.25,0.62,0.25,0.62
					c-3.47-1.52-6.8-3.47-9.58-6.1c-9.6-9-6.78-21.15-1.64-31.7c1.35-3.02,3.18-5.83,5.23-8.42c2.89-3.14,6.29-5.76,9.78-8.18
					c12.51-8.41,28.02-12.43,43.02-10.68c3.7,0.46,7.85,0.75,10.67,3.53c0.68,0.68,1.17,1.42,1.87,2.12
					c7.2,7.61,10.51,18.2,10.66,28.52c0.13,5.61-0.34,11.57-3.5,16.4c-1.18,1.78-2.81,3.26-4.67,4.32c0.72-1.36,0.33-2.88,0.58-4.45
					c0.51-3.85,1.16-7.77,0.19-11.58c-0.32-1.28,0.09-2.63-0.07-3.9c-0.17-1.27-0.67-2.47-1.16-3.68c-1.03-2.41-1.5-5.01-2.5-7.4
					c-2.28-4.65-5.74-8.68-8.9-12.77C173.95,85.14,170.39,78.94,165,80L165,80z"/>
			</g>
			<path style="clip-path:url(#SVGID_00000165228899780358931900000017486392196295527832_);fill:#00D9BF;" d="M239.05,270.83
				c-0.88-0.63-1.76-1.26-2.71-1.77c-0.95-0.51-1.95-0.9-2.89-1.41c-1.09-0.6-2.08-1.36-3.06-2.12c-1.57-1.21-3.22-2.4-4.79-3.61
				c-2.43-0.32-4.14-2.52-5.38-4.65c-3.33-5.71-5.31-12.2-5.73-18.8c0.98-0.79,1.97-1.83,2.71-2.85c0.31-0.42,0.57-0.88,0.93-1.26
				c0.43-0.45,0.98-0.78,1.52-1.1c0.42-0.25,0.94-0.84,0.99-1.33c2.87,13.85,13.12,25.94,26.32,31.03c0.92,0.36,1.94,0.22,2.89,0.46
				c0.53,0.14,1.07,0.27,1.6,0.41c-1.96,0.9-3.72,1.81-5.68,2.71c-0.81,0.37-1.62,0.75-2.39,1.2c-0.76,0.45-1.47,0.98-2.18,1.51
				C240.54,269.76,239.72,270.34,239.05,270.83z"/>
			<path style="clip-path:url(#SVGID_00000165228899780358931900000017486392196295527832_);fill:#00D9BF;" d="M214.32,226.98
				c-8.46-15.51-16.33-31.34-23.56-47.46c-3.97-8.83-8.22-18.32-16.26-24.14c7.07,0.3,13.73,3.82,18.88,8.67
				c5.16,4.84,8.96,10.94,12.27,17.2c4.26,8.07,7.78,16.54,10.5,25.25c1.11,3.55,2.1,7.19,2.18,10.92
				C218.42,221.14,217.54,225,214.32,226.98z"/>
			<path style="clip-path:url(#SVGID_00000165228899780358931900000017486392196295527832_);fill:#00D9BF;" d="M121.86,252.57
				l10.15-4.93c0,0,2.45,5.39,6.96,5.63C138.98,253.27,126.23,264.64,121.86,252.57z"/>
			<path style="clip-path:url(#SVGID_00000165228899780358931900000017486392196295527832_);fill:#4CBFB1;" d="M151.5,222.5
				c0,0,5.62,19.08-15.69,34.04c0,0,17.45-4.64,23.57-14.34c6.12-9.7,6.12-24.7,6.12-24.7L151.5,222.5z"/>
			<path style="clip-path:url(#SVGID_00000165228899780358931900000017486392196295527832_);fill:#4CBFB1;" d="M39,120.69l5.18,10.8
				C44.19,131.49,50.01,116.38,39,120.69z"/>
			<g style="clip-path:url(#SVGID_00000165228899780358931900000017486392196295527832_);">
				<path d="M185.04,98.83c4.07,8.41,7.15,17.77,5.97,27.27c-1.73,16.03-15.17,25.44-30.86,23.34
					c-14.18-1.96-26.55-13.77-28.55-27.99c3.1,13.5,15.08,24.4,28.79,26.11c14.71,1.76,26.98-6.75,29.07-21.68
					C190.9,116.71,188.32,107.41,185.04,98.83L185.04,98.83z"/>
			</g>
			<g style="clip-path:url(#SVGID_00000165228899780358931900000017486392196295527832_);">
				<path d="M170.93,147.89c1.69,6.32,0.1,13.58-4.09,18.6C168.48,160.28,169.82,154.23,170.93,147.89L170.93,147.89z"/>
			</g>
			<g style="clip-path:url(#SVGID_00000165228899780358931900000017486392196295527832_);">
				<path d="M170.49,157.64c4.49,0.8,8.58,5.46,6.71,10.18c-2.04,4.23-6.99,5.81-11.06,7.17c-2.77,0.75-5.74,1.28-8.58,0.74
					c5.51-0.77,10.77-3.02,15.41-5.96C178.46,166.31,175.45,160.1,170.49,157.64L170.49,157.64z"/>
			</g>
			<g style="clip-path:url(#SVGID_00000165228899780358931900000017486392196295527832_);">
				<path d="M172.25,112.08c1.7,3.25,4.56,5.45,5.43,9.21c1.14,4.17-2.39,7.82-6.43,7.78c5.82-2.94,5.47-6.74,2.61-11.88
					C173.08,115.63,172.27,113.9,172.25,112.08L172.25,112.08z"/>
			</g>
			<g style="clip-path:url(#SVGID_00000165228899780358931900000017486392196295527832_);">
				<path d="M157.47,132.4c6.22,3.93,13.87,4.3,20.44,1C172.79,139.46,161.97,138.92,157.47,132.4L157.47,132.4z"/>
			</g>
			<g style="clip-path:url(#SVGID_00000165228899780358931900000017486392196295527832_);">
				<path d="M158.54,108.56c-1.59,0.77-3.33-0.93-2.56-2.54C157.52,106.19,158.35,107.02,158.54,108.56L158.54,108.56z"/>
			</g>
			<g style="clip-path:url(#SVGID_00000165228899780358931900000017486392196295527832_);">
				<path d="M165.31,96.87c-5,1.57-9.45,3.69-13.84,6.56C153.82,98.51,160,95.59,165.31,96.87L165.31,96.87z"/>
			</g>
			<g style="clip-path:url(#SVGID_00000165228899780358931900000017486392196295527832_);">
				<path d="M177.63,97.27c3.84-0.56,7.94,2.47,8.51,6.32c-1.37-0.95-2.92-2.22-4.23-3.19C180.6,99.42,178.95,98.3,177.63,97.27
					L177.63,97.27z"/>
			</g>
			<g style="clip-path:url(#SVGID_00000165228899780358931900000017486392196295527832_);">
				<path d="M177.83,165.21c2.11,17.67-0.95,36.21-8.68,52.24c1.97-9.77,4.03-19.43,5.57-29.26
					C175.91,180.55,176.81,172.92,177.83,165.21L177.83,165.21z"/>
			</g>
			<g style="clip-path:url(#SVGID_00000165228899780358931900000017486392196295527832_);">
				<path d="M171.05,156.15c1.7-1,3.84-0.54,4.95,1.09C174.31,158.25,172.17,157.77,171.05,156.15L171.05,156.15z"/>
			</g>
			<g style="clip-path:url(#SVGID_00000165228899780358931900000017486392196295527832_);">
				<path d="M129.15,171.3c7.45,23.72,3.32,50.72-10.45,71.39c0,0-1.46-2.31-1.46-2.31c6.53-0.79,10.38-2.12,13.34-8.36
					c4.19-7.81,6.56-16.59,8.6-25.24c1.99-8.68,4.31-17.68,1.99-26.55c0.52,1.41,0.94,2.87,1.24,4.36
					c1.42,7.51,0.01,15.18-1.32,22.59c-1.67,8.96-5.98,28.9-14.26,33.57c-4.05,2.24-8.31,2.36-12.53,3.11
					C129.22,223.17,134.36,196.2,129.15,171.3L129.15,171.3z"/>
			</g>
			<g style="clip-path:url(#SVGID_00000165228899780358931900000017486392196295527832_);">
				<path d="M121.46,250.83c0.17,5.28,6.08,7.91,10.65,6.43c4.64-1.31,8.18-5.07,11.14-8.73c5.9-7.42,8.67-17.68,5.86-26.85
					c0,0-0.49-1.62-0.49-1.62c6.52-0.82,12.84-2.99,18.58-6.19c0.22,10.35-0.92,21.63-7.72,30c-6.25,7.72-15.87,10.8-24.93,13.64
					c4.05-1.88,8.79-3.75,12.78-6.06c13.8-7.49,17.23-20.39,16.94-35.17c0,0,2.14,1.29,2.14,1.29c-4.88,2.6-10.21,4.36-15.68,5.15
					c0,0,1.19-1.88,1.19-1.88c3.04,10.11-0.19,21.31-6.98,29.09c-3.37,3.82-7.37,7.57-12.54,8.65
					C127.34,259.8,121.04,256.52,121.46,250.83L121.46,250.83z"/>
			</g>
			<g style="clip-path:url(#SVGID_00000165228899780358931900000017486392196295527832_);">
				<path d="M122.73,161.13c-19.69,3.08-21.81,7.86-29.98,24.97c-6.11,12.85-11.2,26.54-20.26,37.71
					c6.92-12.29,11.61-26.23,17.54-38.99C98.14,167.95,102.67,160.96,122.73,161.13L122.73,161.13z"/>
			</g>
			<g style="clip-path:url(#SVGID_00000165228899780358931900000017486392196295527832_);">
				<path d="M71.95,232.08c-1.96-2.22-1.64-5.62-0.19-8.06c1.5-2.59,4.35-4.13,7.16-4.82c11.06-2.25,22.8,1.14,31.82,7.64
					c4.25,2.89,9.66,8.57,6.47,14.04c1.68-5.7-3.49-9.5-7.78-12.1c-4.51-2.73-9.38-4.86-14.5-6.11c-6.29-1.42-17.37-3.39-21.96,2.17
					C71.43,226.76,70.63,229.61,71.95,232.08L71.95,232.08z"/>
			</g>
			<g style="clip-path:url(#SVGID_00000165228899780358931900000017486392196295527832_);">
				<path d="M123.09,192.17c-3.16,3.49-6.58,6.7-10.07,9.84c0,0-0.67-1.66-0.67-1.66c2.72-0.23,5.4-0.8,7.97-1.69
					c0.74-0.31,1.54,0.49,1.24,1.22c-0.91,2.46-2.36,4.69-4.18,6.52c-1.83,1.81-4.03,3.25-6.42,4.03c4.08-2.69,7.27-6.59,8.79-11.18
					l1.24,1.22c-2.73,1.04-5.64,1.65-8.56,1.77c-0.88,0.07-1.32-1.14-0.63-1.66C115.45,197.62,119.15,194.74,123.09,192.17
					L123.09,192.17z"/>
			</g>
			<g style="clip-path:url(#SVGID_00000165228899780358931900000017486392196295527832_);">
				<path d="M79.73,220.13C73.37,234.39,65.76,248.08,57,261C63.35,246.74,70.97,233.05,79.73,220.13L79.73,220.13z"/>
			</g>
			<g style="clip-path:url(#SVGID_00000165228899780358931900000017486392196295527832_);">
				<path d="M117.11,236.86c-1.94,7.73-5.26,15-9.09,21.96c-3.92,6.9-8.45,13.49-14.02,19.19c3.1-6.14,8.04-14.58,11.41-20.65
					C108.86,251.28,113.48,242.74,117.11,236.86L117.11,236.86z"/>
			</g>
			<g style="clip-path:url(#SVGID_00000165228899780358931900000017486392196295527832_);">
				<path d="M169.63,160.03c2.09-0.44,4.07,0.17,5.53,1.73C173.23,162.9,170.57,162.06,169.63,160.03L169.63,160.03z"/>
			</g>
			<g style="clip-path:url(#SVGID_00000165228899780358931900000017486392196295527832_);">
				<path d="M130.31,118.47c-1.77-3.03-5.76-5.92-9.03-3.77c-2.83,2.24-2.14,6.78-1.27,9.96c1.02,3.5,2.99,6.99,5.96,9.14
					c2.93,2.26,7.83,1.78,9.37-1.95c-0.82,4.48-6.79,5.62-10.21,3.27c-3.61-2.19-5.84-5.97-7.05-9.9
					c-1.03-3.86-1.52-9.31,2.36-11.82C124.5,111.02,129.12,114.6,130.31,118.47L130.31,118.47z"/>
			</g>
			<g style="clip-path:url(#SVGID_00000165228899780358931900000017486392196295527832_);">
				<path d="M160.65,79.94c5.43,6.9,0.18,15.93-5.78,20.56c-3.85,3.23-8.24,5.79-11.61,9.4c-5.18,5.08-6.28,13-1.09,18.56
					c0,0,3.04,3.21,3.04,3.21l-4.1-1.4c-2.66-0.91-5.13-2.47-6.96-4.56c-1.85-2.08-3.05-4.62-3.65-7.22
					c1.13,2.42,2.65,4.61,4.58,6.29c1.93,1.68,4.23,2.81,6.66,3.42l-1.06,1.81c-6.68-6.1-5.82-16.01,0.41-22.16
					c5.25-5.6,12.72-8.38,17.51-14.33C161.67,89.83,163.09,84.41,160.65,79.94L160.65,79.94z"/>
			</g>
			<g style="clip-path:url(#SVGID_00000165228899780358931900000017486392196295527832_);">
				<path class="st5" d="M142.54,90.57c-1.99,2.21-4.38,4.2-6.6,6.14c-0.77,0.64-1.54,1.29-2.46,1.9c0.48-2.12,1.78-3.91,3.37-5.33
					C138.45,91.88,140.37,90.8,142.54,90.57L142.54,90.57z"/>
			</g>
			<g style="clip-path:url(#SVGID_00000165228899780358931900000017486392196295527832_);">
				<path class="st5" d="M145.87,93.64c-2.4,3.04-5.1,5.55-8.31,7.72C138.54,97.51,141.97,94.35,145.87,93.64L145.87,93.64z"/>
			</g>
			<g style="clip-path:url(#SVGID_00000165228899780358931900000017486392196295527832_);">
				<path class="st5" d="M151.36,168.98c-2.45-1.69-4.73-3.81-6.93-5.76c-0.73-0.68-1.48-1.37-2.2-2.2c2.17,0.2,4.1,1.27,5.72,2.66
					C149.54,165.09,150.85,166.86,151.36,168.98L151.36,168.98z"/>
			</g>
			<g style="clip-path:url(#SVGID_00000165228899780358931900000017486392196295527832_);">
				<path class="st5" d="M148.74,172.67c-3.32-2-6.16-4.35-8.72-7.26C143.96,165.9,147.54,168.89,148.74,172.67L148.74,172.67z"/>
			</g>
			<g style="clip-path:url(#SVGID_00000165228899780358931900000017486392196295527832_);">
				<path d="M163.5,80.5c0.86-0.64,2.02-0.7,3.06-0.68c3.36-0.09,6.24,2.02,8.42,4.34c3,2.89,5.72,6.07,8.23,9.39
					c3.59,5.01,7.71,10.51,8.29,16.94c0.14,2.15-0.14,4.36-1.08,6.24c1.07-8.54-5.15-14.92-9.6-21.4c-2.4-3.29-4.93-6.48-7.47-9.7
					c-1.31-1.6-2.46-3.22-4.09-4.18C167.55,80.69,165.4,79.86,163.5,80.5L163.5,80.5z"/>
			</g>
			<g style="clip-path:url(#SVGID_00000165228899780358931900000017486392196295527832_);">
				<path d="M183.67,80.52c7.51,5.96,12.3,14.97,13.98,24.35c1.23,8.07,1.07,17.88-5.23,23.94c-0.91,0.81-1.92,1.46-3,1.95
					c1.82-1.51,3.17-3.37,4.06-5.44c2.65-6.25,2.27-13.36,1.22-19.94C193.18,96.35,189.17,87.87,183.67,80.52L183.67,80.52z"/>
			</g>
			<g style="clip-path:url(#SVGID_00000165228899780358931900000017486392196295527832_);">
				<path d="M124.55,94.15c-4.13,5.96-8.46,11.91-10.59,18.86c-3.97,13.12,1.67,22.64,13.94,27.73c0,0,1.33,0.57,1.33,0.57
					l-0.56,1.34c-3.27,7.74-6.91,17.2-2,24.93c3.3,4.93,9.22,7.28,14.1,10.63c3.84,2.59,7.7,6.34,8.41,11.2
					c0.74,4.67-1.51,9.78-5.51,12.2c4.86-3.81,5.99-11.22,2.51-15.88c-1.65-2.38-4.03-4.19-6.56-5.75
					c-5.24-3.22-11.48-5.46-15.23-10.86c-5.79-8.46-2.18-19.18,1.57-27.6c0,0,0.77,1.91,0.77,1.91
					c-16.96-7.07-20.6-22.48-11.18-37.68C118.15,101.54,121.33,97.8,124.55,94.15L124.55,94.15z"/>
			</g>
			<g style="clip-path:url(#SVGID_00000165228899780358931900000017486392196295527832_);">
				<path d="M139.36,138.17c0.3,9.33,9.06,14.11,14.29,20.82c1.88,2.4,3.32,5.26,4.12,8.23c1.57,5.98,0.94,12.37-1.39,17.91
					c-2.29,5.57-6.01,10.35-10.37,14.22c3.44-4.71,6.44-9.67,8.17-15.03c2.57-7.78,2.21-16.9-2.8-23.63
					C146.51,154.05,137.65,147.53,139.36,138.17L139.36,138.17z"/>
			</g>
			<g style="clip-path:url(#SVGID_00000165228899780358931900000017486392196295527832_);">
				<path class="st1" d="M126,141.28c2.01-3.35,6.28-4.95,10.09-4.33c1.27,0.21,2.84,1.18,2.84,2.61
					C136.69,136.86,128.82,140.12,126,141.28L126,141.28z"/>
			</g>
			<g style="clip-path:url(#SVGID_00000165228899780358931900000017486392196295527832_);">
				<path class="st1" d="M125,142.9c2.8-4.94,10.75-5.7,14.56-1.54C134.58,140.04,129.57,140.46,125,142.9L125,142.9z"/>
			</g>
			<g style="clip-path:url(#SVGID_00000165228899780358931900000017486392196295527832_);">
				<path d="M214.32,226.98c-8.85-14.75-16.85-30.01-24.13-45.6c-4.21-9.01-8.33-18.78-16.57-24.8c0,0-3.93-2.87-3.93-2.87
					l4.86,0.19c16.69,0.81,27.43,16.18,33.76,29.92c3.33,6.95,6.11,14.17,8.27,21.57C218.4,211.98,221.33,222.5,214.32,226.98
					L214.32,226.98z M214.32,226.98c8.6-6.27-0.34-23.89-3.31-31.77c-7.22-16-16.88-36.82-36.58-38.34c0,0,0.93-2.68,0.93-2.68
					c8.71,6.37,13,16.61,17.16,26.15C199.36,195.97,206.76,211.7,214.32,226.98L214.32,226.98z"/>
			</g>
			<g style="clip-path:url(#SVGID_00000165228899780358931900000017486392196295527832_);">
				<path d="M214.05,226.88c-0.02,3.57,0.47,7.01,1.75,10.26c0,0-2.31-0.45-2.31-0.45c1.85-2.46,4.05-4.54,6.23-6.5l-0.34,0.5
					c0.8-1.8,1.16-3.84,1.05-5.91c-0.03-2.15-0.88-4.35-1.75-6.19c0,0-0.09,0.1-0.09,0.1l0.03-0.13l0.01-0.04l0.04,0.03
					c4.07,3,5.2,8.89,3.3,13.5c-2.16,2.18-4.41,4.21-6.42,6.36l-1.7,1.82C212.45,235.93,212.01,231.02,214.05,226.88L214.05,226.88z
					"/>
			</g>
			<g style="clip-path:url(#SVGID_00000165228899780358931900000017486392196295527832_);">
				<path d="M214.92,237.47c1.61,9.46,6.25,18.06,12.59,25.12c2.88,3.43,6.51,5.95,10.86,6.88c1.46,0.23,3.49-1.64,4.9-2.51
					c2.32-1.45,4.68-2.85,7.02-4.26c0,0,0.21,2.68,0.21,2.68c-7.54-2.72-14.37-7.37-19.66-13.37c-5.23-5.91-9.03-13.27-10.2-21.07
					c4.45,14.74,16.45,26.59,30.85,31.68c0,0,2.9,1.03,2.9,1.03c-2.88,1.74-5.91,3.67-8.78,5.38c-2.56,1.44-5.09,4.18-8.36,3.16
					c-4.65-1.12-8.79-4.27-11.64-7.98C219.49,256.67,215.14,247.25,214.92,237.47L214.92,237.47z"/>
			</g>
			<g style="clip-path:url(#SVGID_00000165228899780358931900000017486392196295527832_);">
				<path d="M170.59,156.04c0.76-1.92,3.55-2.36,4.85-0.75C173.95,156.43,172.36,156.67,170.59,156.04L170.59,156.04z"/>
			</g>
			<g style="clip-path:url(#SVGID_00000165228899780358931900000017486392196295527832_);">
				<path d="M180.75,156.46c9.39-2.94,17.21,5.15,25.44,8.23C197.01,164.28,190.07,156.36,180.75,156.46L180.75,156.46z"/>
			</g>
			<g style="clip-path:url(#SVGID_00000165228899780358931900000017486392196295527832_);">
				<path d="M191.28,158.11c12.11-1.6,24.48-1.51,36.55,0.53c4.03,0.7,8.05,1.59,11.98,2.85c0.68,0.22,1.05,0.94,0.84,1.62
					c-0.16,0.49-0.59,0.83-1.07,0.89c-3.75,0.6-8.29,2.67-10.01,6.09c-6.21,12.92,0.14,39.37,12.37,47.18
					c5.75,3.9,12.61,0.06,14.31-6.24c2-6.54-0.83-13.07-2.67-19.39c1.65,4.17,3.68,8.25,4.36,12.84
					c1.35,6.95-2.34,15.58-10.08,16.53c-7.62,0.63-13.16-6.02-16.72-11.88c-6.27-11.4-9.85-28.01-4.15-40.25
					c2.39-4.49,7.43-6.7,12.23-7.46c0,0-0.23,2.51-0.23,2.51c-3.78-1.27-7.65-2.33-11.58-3.14
					C215.56,158.37,203.38,157.59,191.28,158.11L191.28,158.11z"/>
			</g>
			<g style="clip-path:url(#SVGID_00000165228899780358931900000017486392196295527832_);">
				<path d="M217.52,209.75c9.39,2.09,18.38,5.45,26.81,10.08C234.69,219.18,225.21,215.6,217.52,209.75L217.52,209.75z"/>
			</g>
			<g style="clip-path:url(#SVGID_00000165228899780358931900000017486392196295527832_);">
				<path d="M210.7,182.54c3.18,1.34,5.91,3.51,8.28,5.99c2.33,2.51,4.33,5.37,5.47,8.63c-1.26-1.19-2.39-2.42-3.53-3.63
					C217.75,190.07,213.77,186.07,210.7,182.54L210.7,182.54z"/>
			</g>
			<g style="clip-path:url(#SVGID_00000165228899780358931900000017486392196295527832_);">
				<path d="M231.02,165.76c4.1-2.95,9.3-4.4,14.34-3.95C240.87,164.07,236.03,165.4,231.02,165.76L231.02,165.76z"/>
			</g>
			<g style="clip-path:url(#SVGID_00000165228899780358931900000017486392196295527832_);">
				<path d="M221.68,105.58c-2.29-1.3-4.77-1.68-7.29-2.02c-0.76-0.02-2.87-0.67-3.21,0.24c0.03,0.5,0.44,0.74,1.09,1.07
					c4.67,2.26,9.15,5.18,12.75,8.97c0,0-6.79-3.72-6.79-3.72c-2.27-1.2-4.51-2.36-6.85-3.46c-0.6-0.31-1.43-0.77-1.88-1.69
					c-0.83-1.53,0.39-3.3,2.03-3.41c1.12-0.11,2.13,0.25,3.15,0.48C217.19,102.66,219.91,103.61,221.68,105.58L221.68,105.58z"/>
			</g>
			<g style="clip-path:url(#SVGID_00000165228899780358931900000017486392196295527832_);">
				<path d="M73.67,123.88c8.3,11.4,14.93,23.99,19.57,37.31C84.92,149.8,78.32,137.19,73.67,123.88L73.67,123.88z"/>
			</g>
			<g style="clip-path:url(#SVGID_00000165228899780358931900000017486392196295527832_);">
				<path d="M77.06,116.94c4.42,6.54,8.11,13.83,11.55,20.92c3.37,7.23,6.53,14.53,8.84,22.2c-4.46-6.65-8.1-13.73-11.55-20.92
					C82.59,131.98,79.31,124.51,77.06,116.94L77.06,116.94z"/>
			</g>
			<g style="clip-path:url(#SVGID_00000165228899780358931900000017486392196295527832_);">
				<path d="M52.99,244.36c-18.66-20.94-4.52-34,9.66-51.34c3.1-3.72,6.05-7.49,8.68-11.5c2.68-3.99,5.16-8.26,8.37-12.08
					c5.9-7.6,17.08-13.74,26.21-7.98c-9.32-4.31-18.99,1.9-24.38,9.43c-2.85,3.8-5.22,8-7.82,12.16
					c-5.21,8.31-11.98,15.47-18.09,23.02C43.86,220.02,42.58,229,52.99,244.36L52.99,244.36z"/>
			</g>
			<g style="clip-path:url(#SVGID_00000165228899780358931900000017486392196295527832_);">
				<path d="M87.4,150.42c-7.14,1.42-7.52,11.73-9.6,17.46c0,0-1.49,5.12-1.49,5.12c-0.99,3.58-2.24,7.79-6.05,9.61
					c-3.02,1.57-6.8,0.14-8.78-2.41c-1.84-2.23-2.71-5.09-3.63-7.66c-1.75-5.14-3.08-10.76-2.47-16.29
					c0.65-6.16,4.03-12.14,9.72-14.93c1.99,8.24,6.68,15.67,13.32,21c-7.05-4.22-12.48-11.2-15.04-19.03c0,0,1.61,0.62,1.61,0.62
					c-8.95,6.17-7.66,18.62-4.31,27.67c1.06,2.99,1.95,6.52,4.67,8.2c4.89,2.8,7.65-3.57,8.79-7.48c0.86-2.52,2.65-7.55,3.56-10.05
					C79.36,157.51,81.42,150.74,87.4,150.42L87.4,150.42z"/>
			</g>
			<g style="clip-path:url(#SVGID_00000165228899780358931900000017486392196295527832_);">
				<path d="M67.88,181.43c1.93-1.72,3.85-2.19,6.35-1.51C73.77,182.87,69.61,183.85,67.88,181.43L67.88,181.43z"/>
			</g>
			<g style="clip-path:url(#SVGID_00000165228899780358931900000017486392196295527832_);">
				<path d="M109.92,162.85c-2.64-1.61-3.63-4.83-5.26-7.24c-2.62-3.72-7.2-5.96-11.72-5.93c0,0,0.01-2.93,0.01-2.93
					c10.33,0.13,20.78,2.37,29.97,7.18c-9.9-2.26-19.89-3.92-30.03-4.25c0,0,0.01-2.93,0.01-2.93c2.24,0,4.41,0.52,6.37,1.45
					c2.94,1.34,5.5,3.62,6.95,6.52C107.56,157.45,107.82,160.56,109.92,162.85L109.92,162.85z"/>
			</g>
			<g style="clip-path:url(#SVGID_00000165228899780358931900000017486392196295527832_);">
				<path d="M98.16,159.61c2.89-0.71,5.81-0.75,8.71-0.08C103.98,160.24,101.07,160.27,98.16,159.61L98.16,159.61z"/>
			</g>
			<g style="clip-path:url(#SVGID_00000165228899780358931900000017486392196295527832_);">
				<path d="M-21.18,253.67c-1,9.69,0.63,19.53,4.86,28.26c1.29,3.23,3.61,5.37,4.45,8.95c0.32,1.87-0.52,3.68-1.35,5.22
					c-2.33,4.5-5.83,8.35-9.98,11.24c-5.58,3.75-16.91,8.73-21.85,1.76c-1.77-2.31-0.58-6.02-0.03-8.12
					c0.3-1.44,0.16-2.42-0.65-3.18c-2.17-1.9-5.04-0.8-7.5,0.36c-6.42,3.39-11.46,1.97-12.69-5.64
					c-3.18-13.62-11.72-25.7-23.05-33.87c0,0,3.73,0.09,3.73,0.09c19.53,0.15,28.44,6.01,34.87,24.58
					c1.77,4.75,3.38,9.55,5.85,13.99c-6.76-10.29-8.52-24.46-19.34-31.63c-6.32-4.05-14-4.43-21.4-4.42c0,0,0.78-2.25,0.78-2.25
					c10.58,8.07,18.3,19.84,21.43,32.83c0.6,2.18,0.74,4.11,2.67,4.88c3.81,0.98,6.98-2.69,11-2.84c4.47-0.52,8.39,3.04,7.12,7.69
					c-0.71,3.03-1.95,5.4,0.87,7.32c4.65,2.76,12.61-0.93,16.81-3.58c3.91-2.57,7.26-6.08,9.53-10.19c0.79-1.39,1.47-2.72,1.29-3.98
					c-0.57-2.81-2.97-5.73-3.98-8.57C-21.61,273.54-22.88,263.32-21.18,253.67L-21.18,253.67z"/>
			</g>
			<g style="clip-path:url(#SVGID_00000165228899780358931900000017486392196295527832_);">
				<path d="M36.12,100.34c3.73,4.41,10.73,4.22,15.15,1.01c4.73-3.33,7.36-8.43,10.26-13.49c1.95-3.44,4.1-7.01,7.16-9.67
					c-2.07,3.45-3.48,7.06-5.06,10.71c-2.3,5.5-5.44,11.49-10.81,14.82C47.63,107.15,38.82,106.58,36.12,100.34L36.12,100.34z"/>
			</g>
			<g style="clip-path:url(#SVGID_00000165228899780358931900000017486392196295527832_);">
				<path d="M38.69,120.15c2.66,3.18,4.56,6.95,5.5,10.99C41.97,127.63,40.17,124.03,38.69,120.15L38.69,120.15z"/>
			</g>
			<g style="clip-path:url(#SVGID_00000165228899780358931900000017486392196295527832_);">
				<path d="M122.53,95.41c13.26-14.63,34.81-21.97,54.18-17.64c2.74,0.77,5.42,1.96,7.52,3.85c-2.37-1.52-5.01-2.46-7.73-2.9
					C157.2,76.09,137.31,82.96,122.53,95.41L122.53,95.41z"/>
			</g>
			<g style="clip-path:url(#SVGID_00000165228899780358931900000017486392196295527832_);">
				<path d="M157.23,54.28c-14.47-1.73-27.56,6.82-36.1,17.83c-2.96,3.69-5.62,7.67-8.3,11.71c1.57-4.59,3.7-9,6.41-13.09
					C126.94,58.49,142.75,48.89,157.23,54.28L157.23,54.28z"/>
			</g>
			<g style="clip-path:url(#SVGID_00000165228899780358931900000017486392196295527832_);">
				<path d="M180.06,56.68c2.14-3.02,7.18-3.5,9.84-0.91C186.47,55.98,183.47,56.25,180.06,56.68L180.06,56.68z"/>
			</g>
			<g style="clip-path:url(#SVGID_00000165228899780358931900000017486392196295527832_);">
				<path d="M180,61.07c1.35-1.45,3.25-2.17,5.17-2.4c1.92-0.19,3.94,0.09,5.57,1.22c-0.98,0.23-1.87,0.34-2.75,0.46
					C185.45,60.63,182.57,61.06,180,61.07L180,61.07z"/>
			</g>
			<g style="clip-path:url(#SVGID_00000165228899780358931900000017486392196295527832_);">
				<path d="M212.99,72.19c1.91,0.31,2.93,2.58,1.88,4.21C213.3,75.49,212.62,73.96,212.99,72.19L212.99,72.19z"/>
			</g>
			<g style="clip-path:url(#SVGID_00000165228899780358931900000017486392196295527832_);">
				<path d="M216.64,71.91c2.03,0.87,2.66,3.74,1.16,5.37C216.54,75.68,216.16,73.89,216.64,71.91L216.64,71.91z"/>
			</g>
			<g style="clip-path:url(#SVGID_00000165228899780358931900000017486392196295527832_);">
				<path d="M99.2,96.41c0.61-3.55,5.24-5.77,8.38-4C104.77,93.49,101.81,94.89,99.2,96.41L99.2,96.41z"/>
			</g>
			<g style="clip-path:url(#SVGID_00000165228899780358931900000017486392196295527832_);">
				<path d="M102.03,98.12c0.53-2.79,4.18-4.42,6.6-2.94C106.46,96.55,104.49,97.41,102.03,98.12L102.03,98.12z"/>
			</g>
			<g style="clip-path:url(#SVGID_00000165228899780358931900000017486392196295527832_);">
				<path d="M214.86,97.42c-3.89,5.9-10.71,9.78-17.68,10.66C203.18,104.56,209.07,101.28,214.86,97.42L214.86,97.42z"/>
			</g>
			<g style="clip-path:url(#SVGID_00000165228899780358931900000017486392196295527832_);">
				<path d="M111.9,117.75c-4.68-0.54-9.22-2.28-13.09-5c-8.05-5.48-15.08-16.99-5.79-24.83c7.45-6.69,18.62-4.42,27.37-6.52
					c13.68-3.68,21.45-15.9,31.74-25.3c10.59-9.68,25.01-16.26,39.64-14.93c19.79,1.08,37.43,19.02,32.84,39.32
					c-1.06,4.64-3.22,8.96-6.1,12.64c2.54-3.92,4.29-8.32,5.02-12.85c1.52-9.04-1.85-18.39-8.09-24.93
					c-9.29-9.98-24.34-12.8-37.23-9.38c-8.7,2.25-16.71,6.96-23.38,13.09c-6.76,6.07-12.54,13.69-20.41,19.43
					c-3.91,2.84-8.34,5.2-13.21,6.31c-4.88,1.13-9.68,0.86-14.21,1.16c-8.28,0.07-19.16,5.4-15.58,15.2
					C94.71,109.72,102.99,115.88,111.9,117.75L111.9,117.75z"/>
			</g>
			<g style="clip-path:url(#SVGID_00000165228899780358931900000017486392196295527832_);">
				<path d="M246.16,171.31c0.55-16.39-4.43-32.93-14.31-46.02c0,0,0.32,0.22,0.32,0.22c-2-0.6-3.57-2.05-4.68-3.67
					c-3.03-4.88-3.24-10.81-6.18-15.71c-3.31-6.48-9.61-11.37-16.91-12.06c0,0,0.57-0.13,0.57-0.13c-0.46,0.29-1.06,0.32-1.48,0.17
					c-1.33-0.38-1.92-2.05-1.17-3.19c0.71-1.26,2.29-1.64,3.56-1.51c10.51,0.87,20.8,5.67,27.24,14.19
					c2.61,3.33,4.54,7.18,5.77,11.22c5.63,5.78,13.55,16.04,19.1,23.96c5.94,8.5,11.34,17.35,16.11,26.57
					c4.74,8.32,1.19,15.93-7.04,19.98c-11.84,5.01-24.6,8.21-36.95,11.76c9.86-3.07,19.67-6.27,29.38-9.78
					c6.74-2.23,15.25-6.17,15.46-14.28c-0.01-2.42-0.98-4.78-2.15-7.02c-2.43-4.51-5.05-8.96-7.76-13.33
					c-8.14-13.19-17.52-25.63-27.95-37.09c-3.43-11.68-13.52-20.84-25.4-23.38c-1.94-0.45-3.99-0.8-5.93-1
					c-0.92-0.08-1.61,0.13-1.88,0.61c-0.16,0.22-0.08,0.49,0.16,0.57c0.06,0.02,0.02,0,0,0.02l0.57-0.13
					c3.9,0.42,7.64,1.92,10.79,4.22c6.39,4.56,9.39,12.31,11.16,19.6c0.9,3.35,2.54,7.06,6.01,8.21
					C242.69,137.34,247.26,154.91,246.16,171.31L246.16,171.31z"/>
			</g>
			<g style="clip-path:url(#SVGID_00000165228899780358931900000017486392196295527832_);">
				<path d="M115.6,240.46c0.46,3.95,1.46,8.22,3.78,11.39c2.1-0.88,4.41-1.99,6.62-2.9c2.14-0.91,4.3-1.79,6.46-2.64l-0.48,1.02
					c-0.96-3.7-1.88-7.4-2.52-11.19c0.8,1.74,1.5,3.52,2.19,5.32c0.78,2.01,1.49,4.05,2.21,6.09c-2.34,1.11-4.7,2.2-7.07,3.23
					c-2.17,0.95-4.24,1.83-6.47,2.71c-0.33,0.12-0.85,0.27-1.43,0.09c-1.25-0.47-1.49-1.59-1.96-2.6
					C115.57,247.67,115.06,243.96,115.6,240.46L115.6,240.46z"/>
			</g>
			<path style="clip-path:url(#SVGID_00000165228899780358931900000017486392196295527832_);fill:#4CBFB1;" d="M27,124"/>
			<g style="clip-path:url(#SVGID_00000165228899780358931900000017486392196295527832_);">
				<path d="M121.46,251.99c3.58-1.82,7.26-3.44,10.97-4.96c1.59,2.5,3.66,5.12,6.62,5.86c0.34,0.06,0.36,0.07,0.63-0.1
					c2.89-2.53,4.94-5.97,7.16-9.1c1.29-2.02,2.72-3.99,3.67-6.2c-1.88,4.43-4.67,8.44-7.43,12.38c-0.93,1.2-1.82,2.49-3.05,3.45
					c-0.17,0.12-0.45,0.28-0.71,0.27c-3.34-0.22-5.85-3.08-7.5-5.7c0,0,0.6,0.2,0.6,0.2C128.81,249.52,125.17,250.85,121.46,251.99
					L121.46,251.99z"/>
			</g>
			<g style="clip-path:url(#SVGID_00000165228899780358931900000017486392196295527832_);">
				<path d="M124.94,119.65c4.22,0.51,7.72,4.99,7.17,9.21C131.09,124.81,128.62,121.62,124.94,119.65L124.94,119.65z"/>
			</g>
			<g style="clip-path:url(#SVGID_00000165228899780358931900000017486392196295527832_);">
				<path d="M129.79,123.17c-1.92,0.56-3.08,1.43-4.17,3.11C125.12,124.14,127.89,122.09,129.79,123.17L129.79,123.17z"/>
			</g>
			
				<ellipse style="clip-path:url(#SVGID_00000165228899780358931900000017486392196295527832_);" cx="161.33" cy="111" rx="3.33" ry="5"/>
			
				<ellipse style="clip-path:url(#SVGID_00000165228899780358931900000017486392196295527832_);" cx="180" cy="111.5" rx="3" ry="4.5"/>
			
				<ellipse style="clip-path:url(#SVGID_00000165228899780358931900000017486392196295527832_);fill:#FFFFFF;" cx="181.5" cy="109.12" rx="1.5" ry="1.88"/>
			
				<ellipse style="clip-path:url(#SVGID_00000165228899780358931900000017486392196295527832_);fill:#FFFFFF;" cx="163.5" cy="108.12" rx="1.5" ry="1.88"/>
			<g style="clip-path:url(#SVGID_00000165228899780358931900000017486392196295527832_);">
				<path d="M182.48,108.92c0.19-1.41,0.67-1.73,2.03-1.3C185.13,109.05,183.5,110.08,182.48,108.92L182.48,108.92z"/>
			</g>
			<g style="clip-path:url(#SVGID_00000165228899780358931900000017486392196295527832_);">
				<path d="M108.63,257.43c0.65,10.35-2.24,20.58-6.13,30.07C103.72,277.29,106.55,267.48,108.63,257.43L108.63,257.43z"/>
			</g>
		</g>
	</g>
</g>
</svg>
