<?xml version="1.0" encoding="utf-8"?>
<!-- Generator: Adobe Illustrator 27.7.0, SVG Export Plug-In . SVG Version: 6.00 Build 0)  -->
<svg version="1.1" id="레이어_1" xmlns="http://www.w3.org/2000/svg" xmlns:xlink="http://www.w3.org/1999/xlink" x="0px"
	 y="0px" viewBox="0 0 281 281" style="enable-background:new 0 0 281 281;" xml:space="preserve">
<style type="text/css">
	.st0{fill:#4CBFB1;}
	.st1{fill:#00D9BF;}
	.st2{clip-path:url(#SVGID_00000016790765876282224260000013407160654620645258_);}
	.st3{fill:#221F1F;}
	.st4{fill:none;}
	.st5{clip-path:url(#SVGID_00000016790765876282224260000013407160654620645258_);fill:#221F1F;}
	.st6{clip-path:url(#SVGID_00000016790765876282224260000013407160654620645258_);fill:#FFFFFF;}
	.st7{fill:none;stroke:#221F1F;stroke-linecap:round;stroke-miterlimit:10;}
	.st8{fill:#FFFFFF;}
</style>
<g>
	<path class="st0" d="M242.74,0"/>
	<path d="M200.73,137.19c0.04,0,0.07,0,0.11,0c3.85,6.69,3.25,15.31-0.07,22.31c-3.32,7.01-9.05,12.6-15.23,17.28
		s-12.92,8.59-19.14,13.22c-2.81,2.1-5.56,4.39-7.45,7.34s-2.83,6.69-1.77,10.03c-5.4-10.16-8.07-21.93-6.14-33.23
		c1.94-11.31,8.9-22.01,19.24-26.97c9.09-4.35,19.95-4.13,28.74-9.06c9.57-5.37,15.18-16.44,15.43-27.4
		c0.26-10.97-4.34-21.67-11.21-30.22s-15.9-15.13-25.36-20.67c-5.13-3.01-10.5-5.77-16.31-7.06c-5.81-1.29-12.15-0.99-17.36,1.88
		c-6.4,3.52-10.23,10.29-15.59,15.26c-3.65,3.39-8.01,5.92-11.75,9.2s-6.98,7.63-7.25,12.6c-0.39,7.48,5.79,13.48,11.46,18.37
		c0,0,4.89-29.11,10.73-33.27c8.92-0.26,17.72-3.64,24.53-9.4c2.44-2.07,4.66-4.45,7.39-6.11c2.74-1.66,6.21-2.53,9.15-1.26
		c0,0,2.88,0.34,1.8,7.98c-1.08,7.64,3.15,20.21,6.53,23.91s2.88,4.2,2.88,4.2s11.43,14.37-5.71,21.58c-3.62,1.52,0,0,0,0
		l-2.88,1.29c-1.8,0.81-3.73,1.23-5.73,1.23l0,0l-2,1h2c0,0,18.3,8.62,26.2-10.9c0.52-1.29,0.77-3.09,0.77-3.09v-1l0,0
		c0.72-0.13,8.62-4.73,8.99,8.99l0,0c0,1.36-0.54,2.66-1.52,3.6c-3,2.88-10.08,8.37-18.11,5.26c0,0-3.74,4.42-6.11,6.45
		c0,0-1.87,5.1,0.38,13.05c0,0,6.88,1.66,20.04-6.18c-5.01-1.22-10.31-0.62-15.07,1.32c-2.1,0.86-4.26,2.16-4.97,4.31"/>
	<path class="st1" d="M264.17,79.19c0,0-0.11,0.09-0.31,0.28c-2.25,2.06-15.83,15.25-9.31,27.94l1.02,1.57
		C255.58,108.98,256.72,95.09,264.17,79.19z"/>
	<path class="st1" d="M267.12,153.17c0,0-22.28,17.67-34.44,21.97c0,0,1.05,4.25-2.58,11.77c0,0,12.78-2.27,31.54-17.85"/>
	<g>
		<path d="M226.95,189.84c2.98-4.87,4.58-10.36,4.34-16.02c0,0-0.06-1.08-0.06-1.08c10.39-3.42,19.99-8.87,28.18-16.1
			c3.88-3.32,7.84-7.84,11.28-11.62c-1.64,3.83-3.5,8.74-5.23,12.32c0,0,0.06,0.54,0.06,0.54c-0.01-0.01-0.22-0.5-0.23-0.51
			c0.2-1.33,0.44-2.65,0.68-3.97c0.24-1.31,0.52-2.62,0.78-3.93l1.7,0.87c-0.73,1.17-2.3,3.43-3.13,4.52
			c-7.94,10.17-19.47,17.61-32.05,20.47c0,0,1.14-1.49,1.14-1.49C234.09,179.84,231.42,185.87,226.95,189.84L226.95,189.84z"/>
	</g>
	<g>
		<path d="M229.79,187.69c10.92-5.67,22.31-12.56,32.42-19.57C253.56,177.49,242.1,184.39,229.79,187.69L229.79,187.69z"/>
	</g>
	<g>
		<path d="M265.91,138.35c-1.98-5.49,0.95-11.86-0.89-17.24c-0.8-2.58-3.09-4.17-5.39-6.13c-8.18-6.47-11.29-15.15-6.92-25
			c3.36-7.38,10.11-11.9,16.82-15.63c-5.98,11.28-13.41,22.66-13.37,35.89c-1.71-11.6,3.6-22.79,8.69-32.88c0,0,1.89,1.76,1.89,1.76
			c-4.75,3.09-9.03,7.08-11.3,12.11c-3.93,8.78-1.13,15.92,5.76,22.02c2.16,2.02,4.86,4.23,5.55,7.35
			C268.37,126.74,264.76,132.29,265.91,138.35L265.91,138.35z"/>
	</g>
	<g>
		<path d="M252.33,97.83c2.4,14.55,6.96,28.36,13.89,41.39C255.72,128.55,250.5,112.65,252.33,97.83L252.33,97.83z"/>
	</g>
	<g>
		<path d="M266.17,154.96c-5.45,28.36-32.08,49.99-60.96,50.04c-11.54,0.45-22.94-2.7-33.44-7.29c0,0,5.72-1.47,5.72-1.47
			c14.46-3.59,27.78-11.22,38.39-21.69c5.42,8.59,12.72,19.29,24.23,17.73c-2.5,0.69-5.22,0.61-7.77-0.08
			c-7.84-2.04-13.13-8.85-17.67-15.1c0,0,1.84,0.16,1.84,0.16c-7.62,8.2-17.09,14.73-27.42,19.08c-3.46,1.46-7.01,2.7-10.65,3.64
			l0.23-3.66c8.41,3.28,17.45,4.87,26.45,4.76C232.95,201.15,258.13,181.47,266.17,154.96L266.17,154.96z"/>
	</g>
	<path class="st1" d="M215.67,176.41c0,0-16.01,18.2-37.69,21.7c0,0,37.8,13.08,58.49-3.7l1.91-1.17
		C238.37,193.25,224.11,193.15,215.67,176.41z"/>
	<g>
		<defs>
			<circle id="SVGID_1_" cx="140.31" cy="140.69" r="140.31"/>
		</defs>
		<clipPath id="SVGID_00000054267469719218384600000001419784695525995425_">
			<use xlink:href="#SVGID_1_"  style="overflow:visible;"/>
		</clipPath>
		<g style="clip-path:url(#SVGID_00000054267469719218384600000001419784695525995425_);">
			<path d="M126.79,126.54c11.01,11.77,31.61,15.02,46.02,8.29c4.96-2.34,9.43-5.85,12.83-10.45c-2.31,5.26-6.64,9.64-11.75,12.52
				C159.32,145.33,135.76,141.33,126.79,126.54L126.79,126.54z"/>
		</g>
		<g style="clip-path:url(#SVGID_00000054267469719218384600000001419784695525995425_);">
			<path d="M140.16,65.38c-6.94,10.53-12.53,21.97-15.6,34.22c-1.87,7.28-3.1,14.79-1.15,22.27c-4.95-9.37-2.59-20.79,0.44-30.42
				C127.22,81.68,132.62,72.49,140.16,65.38L140.16,65.38z"/>
		</g>
		<g style="clip-path:url(#SVGID_00000054267469719218384600000001419784695525995425_);">
			<path d="M121.24,110.7c-12.26-9.6-17.25-20.58-3.76-32.11c4.95-4.1,10.36-7.42,14.4-12.47c4.17-4.88,8.28-10.46,14.57-12.86
				c6.3-2.46,13.34-1.9,19.54,0.18c6.21,2.07,11.84,5.37,17.37,8.79c13.7,8.55,26.36,20.64,30.97,36.6
				c3.9,12.72,1.13,27.72-8.75,37.04c-7.16,7.14-18.09,8.33-27.15,10.63c-6.06,1.5-11.65,4.25-15.98,8.77
				c-13.69,13.79-12.93,35.95-4.17,52.25c0,0-1.99,0.83-1.99,0.83c-1.22-4.03,0.08-8.34,2.46-11.61c2.35-3.25,5.52-5.59,8.6-7.79
				c6.22-4.4,12.76-8.2,18.76-12.71c5.95-4.5,11.45-9.9,14.66-16.7c3.14-6.72,3.88-15.02,0.21-21.71c0.01,0-0.11,0-0.11,0
				c0,0,0.11,0,0.11,0c3.96,6.61,3.5,15.11,0.46,22.02c-3.09,7.04-8.57,12.72-14.51,17.46c-5.96,4.77-12.51,8.63-18.54,13.09
				c-3.02,2.22-5.98,4.53-8.03,7.48c-2.04,2.87-3.05,6.62-2.01,9.82l-1.99,0.83c-3.09-5.73-5.34-11.96-6.43-18.43
				c-3.6-19.99,7.01-41.65,27.75-46.34c6.29-1.7,12.66-2.54,18.28-5.05c11.4-4.9,17.83-17.85,17.16-29.96
				c-0.28-6.2-2.12-12.28-4.96-17.79c-5.76-11.26-15.62-19.82-26.18-26.57c-5.36-3.39-10.82-6.75-16.72-8.8
				c-8.74-3.24-19.11-2.51-25.77,4.56c-4.52,4.44-8.25,9.99-13.55,13.7c-5.07,3.77-10.78,7.05-13.96,12.66
				C106.43,95.85,114.34,104.76,121.24,110.7L121.24,110.7z"/>
		</g>
		<g style="clip-path:url(#SVGID_00000054267469719218384600000001419784695525995425_);">
			<path d="M131.97,77.44c7.53-1.05,14.74-3.58,20.95-7.93c4.8-3.1,8.46-8.37,14.36-9.57c1.95-0.39,4.07-0.24,5.76,0.72
				c-1.86-0.55-3.77-0.38-5.51,0.22c-3.61,1.2-6.2,3.99-8.93,6.55C151.59,74.18,141.62,78.15,131.97,77.44L131.97,77.44z"/>
		</g>
		<g style="clip-path:url(#SVGID_00000054267469719218384600000001419784695525995425_);">
			<path d="M175.47,64.79c-1.51,8.51,0.22,17.51,4.83,24.81c1.48,2.42,3.48,4.51,5.15,7.02c3.81,5.09,3.28,12.39-0.46,17.37
				c-3.66,5-9.74,7.57-15.72,8.23c0,0,0.32-1.75,0.32-1.75c11.72,6.1,26.59-1.64,27.15-15.22c0.63,14.57-15.43,23.23-28,16.88
				c0,0-2.68-1.35-2.68-1.35c3.72-0.44,7.69-1.03,11.01-2.76c6.14-2.89,10.63-9.93,8.66-16.73c-1.26-4.15-4.58-7.05-6.72-10.89
				C174.51,82.77,173.17,73.26,175.47,64.79L175.47,64.79z"/>
		</g>
		<g style="clip-path:url(#SVGID_00000054267469719218384600000001419784695525995425_);">
			<path d="M196.73,106.24c1.15-1.28,3.17-1.21,4.75-0.91c5.65,1.5,5.75,9.32,3.06,13.47c-3.45,6.07-11.79,8.1-17.93,5.42
				c6.14,0.87,12.99-0.96,16.22-6.44c2.19-3.45,2.77-9.72-1.59-11.63C199.84,105.68,198.04,105.29,196.73,106.24L196.73,106.24z"/>
		</g>
		<g style="clip-path:url(#SVGID_00000054267469719218384600000001419784695525995425_);">
			<path d="M179.76,132.4c0.84,3.44,1.06,6.78,0.64,10.29C178.11,139.85,177.85,135.5,179.76,132.4L179.76,132.4z"/>
		</g>
		<g style="clip-path:url(#SVGID_00000054267469719218384600000001419784695525995425_);">
			<path class="st3" d="M144.95,138.5c-0.23,6.23-0.33,12.24-0.32,18.48C141.86,151.27,142,144.1,144.95,138.5L144.95,138.5z"/>
		</g>
		<g style="clip-path:url(#SVGID_00000054267469719218384600000001419784695525995425_);">
			<path d="M143.01,146.54c-1.56,2.68-5.06,4.04-6.58,6.58c-1.58,2.54,0.16,4.64,2.41,6.01c5.25,3.04,11.7,3.47,17.66,1.75
				c-5.38,4.14-13.34,4.26-19.23,0.8c-3.45-1.93-5.78-6.48-2.72-9.94C136.88,148.92,140.26,148.58,143.01,146.54L143.01,146.54z"/>
		</g>
		<g style="clip-path:url(#SVGID_00000054267469719218384600000001419784695525995425_);">
			<path d="M127.54,69.28c-10.43-2.55-18.37-12.28-19.32-22.96c-1.26-13.92,10.61-27.22,24.5-28.09
				c13.95-0.88,26.17,8.26,34.94,18.13c7.01,7.73,13.14,16.05,21.06,22.8c3.85,3.36,8,6.39,12.33,9.12
				c4.33,2.73,8.88,5.12,13.59,7.14c7.02,3.02,15.68,5.24,20.93,11.6c5.31,6.45,6.2,15.99,2.76,23.46
				c-4.64,9.92-16.45,15.01-26.89,12.73c5.14,0.69,10.44-0.31,15.01-2.67c14.54-7.15,15.89-28.48,1.18-36.09
				c-4.37-2.38-9.39-3.75-14.33-5.79c-4.92-2-9.69-4.39-14.23-7.15c-9.08-5.52-17.24-12.63-24.13-20.65
				c-3.45-3.98-6.71-8.05-10.15-11.87c-6.69-7.48-14.7-14.35-24.56-16.71c-9.83-2.57-20.08,1.58-25.79,9.91
				C104.87,45.14,112.42,64.35,127.54,69.28L127.54,69.28z"/>
		</g>
		<g style="clip-path:url(#SVGID_00000054267469719218384600000001419784695525995425_);">
			<path d="M163.53,35.39c19.45-5.57,41.64,4.99,50.13,23.29c2.91,5.97,4.48,12.61,4.26,19.13c-1.04-6.43-3.18-12.54-6.33-18.04
				C202.21,42.79,182.7,33.5,163.53,35.39L163.53,35.39z"/>
		</g>
		<g style="clip-path:url(#SVGID_00000054267469719218384600000001419784695525995425_);">
			<path d="M165.6,90.17c1.85-0.12,3.32,0.03,5.08,0.61C169.04,91.6,167,91.36,165.6,90.17L165.6,90.17z"/>
		</g>
		<g style="clip-path:url(#SVGID_00000054267469719218384600000001419784695525995425_);">
			<path d="M142.16,81.8c-1.2-0.94-1.5-2.71-0.68-3.99C142.07,79.22,142.24,80.27,142.16,81.8L142.16,81.8z"/>
		</g>
		<g style="clip-path:url(#SVGID_00000054267469719218384600000001419784695525995425_);">
			<path class="st3" d="M148.62,92.55c-1.49,2.73-4.74,3.69-7.15,5.24c-5.21,3.16-3.21,7.2,0.52,10.74
				c-1.83-0.77-3.69-1.89-4.79-3.87c-1.21-1.95-0.88-4.86,0.73-6.5C140.91,94.81,145.28,95.1,148.62,92.55L148.62,92.55z"/>
		</g>
		<g style="clip-path:url(#SVGID_00000054267469719218384600000001419784695525995425_);">
			<path class="st3" d="M135.02,115.74c6.08,4.89,14.48,5.48,21.19,1.51C151.06,124.02,139.18,123.16,135.02,115.74L135.02,115.74z"
				/>
		</g>
		<g style="clip-path:url(#SVGID_00000054267469719218384600000001419784695525995425_);">
			<path d="M114.57,159.87c-7.27,9.78-10.2,16.14-10.68,28.45c-1.05,17.41,2.4,35.43-3.1,52.4c-4.32,9.35-13.85,15.86-24.06,16.82
				c-6.02,0.55-13.96-0.72-16.29-7.22c-1.41-4.06-0.42-8.19,0.37-12.14c2.51-11.45,6.82-22.57,12.84-32.6
				c-5.12,10.44-8.83,21.55-10.83,33c-0.91,5-2.08,11.65,3.12,14.58c3.09,1.79,6.99,1.93,10.52,1.61
				c9.17-1.01,17.74-6.95,21.64-15.28c0.74-2.37,1.8-6.61,2.21-9.75c2.46-17.17-0.81-34.97,3.5-51.97
				C105.61,170.87,110.03,165.15,114.57,159.87L114.57,159.87z"/>
		</g>
		<g style="clip-path:url(#SVGID_00000054267469719218384600000001419784695525995425_);">
			<path class="st4" d="M217.54,179.15"/>
		</g>
		<g style="clip-path:url(#SVGID_00000054267469719218384600000001419784695525995425_);">
			<path d="M202.26,154.56c4.59-4.21,11.91-0.05,13.66,5.17c2.08,5.15,1.34,10.43,0.82,15.72c-0.97-2.47-1.34-5.09-1.79-7.56
				c-0.65-3.62-1.33-7.08-3.46-9.98C209.36,155.2,205.94,153.45,202.26,154.56L202.26,154.56z"/>
		</g>
		<g style="clip-path:url(#SVGID_00000054267469719218384600000001419784695525995425_);">
			<path d="M172.67,200.51c-1.22,4.94-2.17,9.93-2.72,14.97c0,0-0.84-1.04-0.84-1.04c6.31,0.13,12.64,0.39,18.97,1.21
				c7.93,1.04,15.88,2.99,23.01,6.74c2.91,1.58,5.92,3.23,7.88,6.09c3.55,5,1.25,11.14-4.77,12.39c-3.26,0.71-6.44-0.16-9.52-1.07
				c3.03,0.37,6.27,0.82,9.18-0.15c4.54-1.45,6.2-5.98,3.17-9.76c-1.81-2.29-4.57-3.7-7.21-5c-12.66-6.16-26.95-7.17-40.82-8.65
				l-1.01-0.11C168.96,210.77,170.51,205.51,172.67,200.51L172.67,200.51z"/>
		</g>
		<g style="clip-path:url(#SVGID_00000054267469719218384600000001419784695525995425_);">
			<path d="M218.96,201.32c2.51,11.02,2.98,22.48,1.36,33.67C217.79,223.97,217.34,212.51,218.96,201.32L218.96,201.32z"/>
		</g>
		<g style="clip-path:url(#SVGID_00000054267469719218384600000001419784695525995425_);">
			<path d="M102.91,208.97c4.99-3.17,11.48-2.45,17-1.32c8.38,1.82,16.58,3.53,25.02,4.74c8.43,1.31,16.84,2.12,25.37,3.01
				c-14.26,1.55-28.76,0.13-42.68-3.21C119.49,210.4,111.27,206.14,102.91,208.97L102.91,208.97z"/>
		</g>
		<g style="clip-path:url(#SVGID_00000054267469719218384600000001419784695525995425_);">
			<path d="M101.2,233.11c3.63-0.08,6.27-2.66,8.98-4.77c2.8-2.37,6.6-3.8,10.35-3.31c7.71,4.37,15.81,8.03,24.22,10.81
				c16.55,5.29,34.46,8,51.76,5.88c8.22-1.03,17.69-7.71,15.16-16.96c2.88,6.69-2.24,13.94-8.27,16.77
				c-6.15,3.08-13.26,3.36-19.93,3.53c-13.46,0.18-26.93-2.1-39.64-6.54c-8.44-3.02-16.54-6.97-24.04-11.87c0,0,0.35,0.12,0.35,0.12
				c-1.59-0.26-3.26-0.16-4.85,0.24C110.35,228.24,106.68,233.64,101.2,233.11L101.2,233.11z"/>
		</g>
		<g style="clip-path:url(#SVGID_00000054267469719218384600000001419784695525995425_);">
			<path class="st3" d="M127.82,148.79c4.49-2.92,10.12-4.23,15.44-3.58C137.93,145.97,132.93,147.12,127.82,148.79L127.82,148.79z"
				/>
		</g>
		<g style="clip-path:url(#SVGID_00000054267469719218384600000001419784695525995425_);">
			<path d="M133.71,155.25c0.9,11.69,0.89,23.3-0.08,34.98C130.45,178.89,130.49,166.58,133.71,155.25L133.71,155.25z"/>
		</g>
		<g style="clip-path:url(#SVGID_00000054267469719218384600000001419784695525995425_);">
			<path d="M117.27,175.92c-2.44,10.18-5.57,20-9.5,29.7C107.61,195.08,111.04,184.42,117.27,175.92L117.27,175.92z"/>
		</g>
		<g style="clip-path:url(#SVGID_00000054267469719218384600000001419784695525995425_);">
			<path d="M85.75,175.28c-3.34,6.18-7.42,11.84-11.7,17.37c-2.57,3.48-5.74,6.25-6.35,10.35c-0.24,2.38,0.53,4.95,2.84,6.23
				c-2.86-0.34-4.68-3.51-4.8-6.26c-0.15-2.89,1.25-5.69,2.79-7.94C73.71,187.93,79.28,181.25,85.75,175.28L85.75,175.28z"/>
		</g>
		<g style="clip-path:url(#SVGID_00000054267469719218384600000001419784695525995425_);">
			<path d="M66.51,201.77c1.09-5.09,7.99-7.96,12.36-5.12C74.45,198.23,70.75,199.74,66.51,201.77L66.51,201.77z"/>
		</g>
		<g style="clip-path:url(#SVGID_00000054267469719218384600000001419784695525995425_);">
			<path d="M208.12,240.46c2.02,10.4,1.99,21.17-0.12,31.56C205.96,261.61,206.02,250.84,208.12,240.46L208.12,240.46z"/>
		</g>
		<g style="clip-path:url(#SVGID_00000054267469719218384600000001419784695525995425_);">
			<path d="M95.09,246.07c0.47,10.29-1.72,20.77-6.45,29.94C89.36,265.75,91.49,255.7,95.09,246.07L95.09,246.07z"/>
		</g>
		<g style="clip-path:url(#SVGID_00000054267469719218384600000001419784695525995425_);">
			<path d="M108.85,136.79c4.5-1.17,9.36-7.06,14.06-2.91c1.62,1.74,2.73,4.45,3.93,6.42c0,0,1.76,3.22,1.76,3.22
				c0.69,1.17,1.36,2.81,0.77,4.25c-1.04,2.51-3.66,3.4-5.08,5.6c-5.6,8.99-12.13,4.9-20.13,7.51c0,0-0.33,0.13-0.33,0.13
				c-0.67-0.38-1.15-1.12-1.19-1.82c-0.39-3.02,3.2-3.89,3.81-6.34c0.17-0.89,0.02-1.98-0.81-2.58c0.9,0.47,1.3,1.62,1.19,2.63
				c-0.08,1.08-0.82,1.95-1.46,2.68c-0.65,0.74-1.34,1.44-1.55,2.25c-0.26,0.81-0.12,1.73,0.43,2.01l-0.58-0.05
				c5.84-2.8,12.54-0.19,16.87-4.78c1.17-1.28,2.15-3.01,3.43-4.33c1.08-1.18,3.09-2.26,3.59-3.57c0.35-0.94-0.15-1.79-0.6-2.71
				c0,0-1.66-3.27-1.66-3.27c-0.96-1.72-2.18-4.84-3.38-6.26C117.91,131.21,113.17,136.47,108.85,136.79L108.85,136.79z"/>
		</g>
		<g style="clip-path:url(#SVGID_00000054267469719218384600000001419784695525995425_);">
			<path d="M119.58,132.43c3.84-2.79,7.06-6.27,9.66-10.14c0.78-1.29,2.05-2.74,2.01-4.25c-0.3-1.34-1.73-0.5-2.73,0.36
				c-4.3,4.13-9.12,7.82-14.35,10.73c-3.07,1.78-6.43,3.13-9.55,4.71c-0.97,0.51-1.91,1.11-2.42,1.73l0.21-0.32
				c-2.63,5.7-3.64,12-5.49,18.06c-0.91,3.09-2.15,6.26-3.75,9.08c-1.65,2.8-2.51,5.35-2.97,8.58
				c-2.38,12.83-9.29,24.03-16.44,34.64c2.93-5.67,5.97-11.28,8.49-17.09c2.53-5.8,4.54-11.79,5.44-17.97
				c0.24-1.56,0.47-3.21,0.99-4.88c1.7-4.58,4.28-8.43,5.43-13.19c1.84-6.22,2.82-12.9,5.86-18.79c1.96-2.08,4.24-2.84,6.62-3.91
				c2.18-0.91,4.26-1.87,6.32-2.96c5.12-2.7,10-6.11,14.38-9.92c1.79-1.58,5.19-2.21,5.6,1.03c0,2.14-1.48,3.55-2.61,5.13
				C127.33,126.83,123.71,130.1,119.58,132.43L119.58,132.43z"/>
		</g>
		<g style="clip-path:url(#SVGID_00000054267469719218384600000001419784695525995425_);">
			<path d="M203.16,112.63c-4.11,0.59-7.43,2.8-9.8,6.19C194.32,114.73,199.04,111.67,203.16,112.63L203.16,112.63z"/>
		</g>
		<g style="clip-path:url(#SVGID_00000054267469719218384600000001419784695525995425_);">
			<path d="M197.5,114.27c2.16-0.34,3.91,2.59,2.68,4.36C199.76,116.71,199.08,115.47,197.5,114.27L197.5,114.27z"/>
		</g>
		
			<ellipse transform="matrix(0.467 -0.8842 0.8842 0.467 0.5575 171.6424)" style="clip-path:url(#SVGID_00000054267469719218384600000001419784695525995425_);fill:#221F1F;" cx="142.67" cy="85.36" rx="5.05" ry="3.43"/>
		
			<ellipse transform="matrix(0.467 -0.8842 0.8842 0.467 5.0268 192.144)" style="clip-path:url(#SVGID_00000054267469719218384600000001419784695525995425_);fill:#221F1F;" cx="161.91" cy="91.9" rx="5.34" ry="3.65"/>
		<g style="clip-path:url(#SVGID_00000054267469719218384600000001419784695525995425_);">
			<path d="M123.61,37.73c1.27-4.55,7.58-6.91,11.52-4.29C130.84,33.82,127.1,35.21,123.61,37.73L123.61,37.73z"/>
		</g>
		<g style="clip-path:url(#SVGID_00000054267469719218384600000001419784695525995425_);">
			<path d="M125.65,41.62c1.01-3.25,5.41-4.97,8.35-3.24c-1.33,0.59-2.87,1.12-4.17,1.63C128.51,40.51,127.03,41.15,125.65,41.62
				L125.65,41.62z"/>
		</g>
		<g style="clip-path:url(#SVGID_00000054267469719218384600000001419784695525995425_);">
			<path d="M226.18,97.6c2.45,1.92,3.37,5.59,2.08,8.43C226.78,103.41,226.1,100.61,226.18,97.6L226.18,97.6z"/>
		</g>
		<g style="clip-path:url(#SVGID_00000054267469719218384600000001419784695525995425_);">
			<path d="M229.52,97.7c2.43,1.62,3.34,5.15,1.98,7.74C230.09,103.03,229.45,100.49,229.52,97.7L229.52,97.7z"/>
		</g>
		<g style="clip-path:url(#SVGID_00000054267469719218384600000001419784695525995425_);">
			<path d="M152.43,75.91c-3.91-0.68-7.43-1.59-11.4-1.84C144.41,71.48,149.86,72.69,152.43,75.91L152.43,75.91z"/>
		</g>
		<g style="clip-path:url(#SVGID_00000054267469719218384600000001419784695525995425_);">
			<path d="M164.3,80.96c4.54-0.45,9.52,3.2,9.99,7.83C171.28,85.61,167.99,83.28,164.3,80.96L164.3,80.96z"/>
		</g>
		
			<ellipse transform="matrix(0.5 -0.866 0.866 0.5 -0.1194 164.7174)" style="clip-path:url(#SVGID_00000054267469719218384600000001419784695525995425_);fill:#FFFFFF;" cx="142.59" cy="82.46" rx="1.84" ry="1.47"/>
		
			<ellipse transform="matrix(0.5 -0.866 0.866 0.5 4.1952 184.1582)" style="clip-path:url(#SVGID_00000054267469719218384600000001419784695525995425_);fill:#FFFFFF;" cx="161.58" cy="88.45" rx="1.83" ry="1.46"/>
		<g style="clip-path:url(#SVGID_00000054267469719218384600000001419784695525995425_);">
			<path class="st1" d="M180.51,143.68c0.19-1.97,1.85-3.54,3.48-4.5c4.95-2.8,11.33-3.6,16.56-1.14c-1.89-0.02-3.7-0.01-5.49,0.15
				c-3.55,0.32-7.05,1.14-10.38,2.38C183.07,141.23,181.51,142.06,180.51,143.68L180.51,143.68z"/>
		</g>
	</g>
	<path class="st1" d="M16.78,61.13c0,0,18.9-1.23,18.8,26.93l63.46-31c0,0-4-9.41-20.26-14.62L16.78,61.13z"/>
	<g>
		<path d="M13.75,62.24c6.74-0.15,11.4,6.1,14.47,11.38c5.39,9.31,7.68,20.3,6.97,31.02c-0.59,8.6-3.06,17.13-7.46,24.58
			c-2.26,3.81-4.91,8.02-9.54,9.45c-5.61,1.97-11.51-2.68-9.56-8.76c5.34,0.61,11.9,0.2,16.62-0.87c0,0,0.14-0.01,0.14-0.01
			l0.08-0.01c-2.53,1.02-5.19,1.77-7.89,2.3c-2.68,0.49-5.42,0.78-8.18,0.79l1.08-0.83c-0.24,1.56,0.69,3.35,2.02,4.2
			c5.42,2.72,9.57-3.31,12.01-8.07c1.86-3.57,3.52-7.27,4.6-11.16c3.32-11.67,3.24-24.31-0.71-35.86
			C25.76,73.36,22.08,63.68,13.75,62.24L13.75,62.24z"/>
	</g>
	<g>
		<path d="M16.23,138.41c4.11-2.18,8.04-3.86,12.08-5.94c4.07-2.02,7.77-4.19,12-6.13C35.91,134.68,25.56,139.95,16.23,138.41
			L16.23,138.41z"/>
	</g>
	<g>
		<path d="M12.94,61.92c9.77,6.8,16.24,18.29,17.91,30.12c1.16,9.28,0.19,22.86-7.94,29.03c-3.73,2.74-9.27,3.55-13.18,0.59
			c-5.61-4.23-5.22-11.77-4.3-17.86c0,0,0.22-1.74,0.22-1.74l1.53,0.59c6.81,2.62,14.14,3.78,21.47,3.62
			c-7.36,1.48-15.09,0.99-22.32-1.1c0,0,1.75-1.15,1.75-1.15c-0.08,1.97-0.22,3.89-0.14,5.73c0.11,3.38,1.16,7.03,3.92,8.95
			c4.32,2.76,9.84-0.41,11.99-4.61C32.15,96.9,26.27,75.14,12.94,61.92L12.94,61.92z"/>
	</g>
	<g>
		<path d="M36.4,88.01c4.93-3.32,10.13-6.07,15.59-8.36c2.74-1.09,5.6-1.92,8.29-3.12c5.4-2.36,10.2-5.94,15.38-8.71
			c7.7-4.41,15.59-8.26,23.99-11.28c0.15-0.06,0.28,0.17,0.14,0.26c-4.7,3.68-9.74,6.77-14.9,9.64c-3.9,2.09-7.93,3.94-11.99,5.72
			c-4.09,1.68-8.31,3.14-12.21,5.24c-5.11,2.94-10.09,6.2-15.71,8.16c-2.76,1.06-5.55,2.04-8.48,2.72
			C36.37,88.33,36.26,88.1,36.4,88.01L36.4,88.01z"/>
	</g>
	<g>
		<path class="st3" d="M40.15,65.08c-0.99-5.56-4.44-16.33-10.76-16.66c-4.32,0.32-6.39,5.14-7.06,9.07
			c-0.55-1.56-0.73-3.25-0.54-4.99c0.4-3.72,3.21-7.32,7.24-7.85C38.74,44.07,42.86,57.5,40.15,65.08L40.15,65.08z"/>
	</g>
	<g>
		<path d="M63.08,46.95c-2.31-3.5-1.86-9.02,2.12-11.29c6.07-3.19,12.39,3.12,13.92,8.55c0.93,3.09,0.8,6.52-0.65,9.23
			c-0.37-5.57-2.9-10.7-7.3-13.73C65.75,36.06,62.82,42.05,63.08,46.95L63.08,46.95z"/>
	</g>
	<g>
		<path d="M36.43,59.28c-0.58,0.08-0.92,0.45-1.12,0.82c-1.12,2.53,4,4.52,5.9,4.76c1.09,0.15,2.24,0.2,3.1-0.16
			c0.15-0.07,0.25-0.11,0.36-0.29c0.23-0.4,0.17-1.28-0.19-2.11c-0.29-0.81-1.06-1.82-1.81-2.36c0,0-0.01-0.04-0.01-0.04l0-0.01
			c1.17-0.13,2.4,0.37,3.39,1.19c2.73,2.21,2.23,6.43-1.46,7.5c-4.61,1.62-12.4-2.22-11.36-7.64C33.63,59.6,35.24,58.48,36.43,59.28
			L36.43,59.28z"/>
	</g>
	<g>
		<path d="M74.43,47.25c-0.58,0.08-0.92,0.45-1.12,0.82c-1.12,2.53,4,4.52,5.9,4.76c1.09,0.15,2.24,0.2,3.1-0.16
			c0.15-0.07,0.25-0.11,0.36-0.29c0.23-0.4,0.17-1.28-0.19-2.11c-0.29-0.81-1.06-1.82-1.81-2.36c0,0-0.01-0.04-0.01-0.04l0-0.01
			c1.17-0.13,2.4,0.37,3.39,1.19c2.73,2.21,2.23,6.43-1.46,7.5c-4.61,1.62-12.4-2.22-11.36-7.64
			C71.62,47.56,73.24,46.44,74.43,47.25L74.43,47.25z"/>
	</g>
	<g>
		<path d="M18.21,122.4c3.98-2.96,8.53-5.06,13.4-6C27.98,119.81,23.18,121.99,18.21,122.4L18.21,122.4z"/>
	</g>
	<g>
		<path d="M36.61,106.55C58.92,94.49,81.68,82.96,104.6,72.1C82.28,84.16,59.53,95.69,36.61,106.55L36.61,106.55z"/>
	</g>
	<g>
		<path d="M42,123.68c20.49-12.4,41.44-24.29,62.6-35.52C84.11,100.55,63.15,112.44,42,123.68L42,123.68z"/>
	</g>
	<g>
		<path d="M53.31,137.08c5.71-4.41,11.78-8.25,18.22-11.49C65.83,130,59.75,133.83,53.31,137.08L53.31,137.08z"/>
	</g>
	<g>
		<path d="M47.66,86.33c-0.04,10.04,0.32,20.3,3.27,29.95c1.04,3.16,2.45,6.28,4.76,8.63c2.4,2.84,5.26,5.39,8.47,7.31
			c1.09,0.62,2.23,1.14,3.42,1.55c-1.23-0.29-2.42-0.74-3.56-1.3c-3.37-1.68-6.48-4.34-8.92-7c-2.52-2.45-3.98-5.68-5.09-8.89
			C46.98,106.84,46.79,96.42,47.66,86.33L47.66,86.33z"/>
	</g>
	<g>
		<path d="M58.97,80.68c0.77,11.09,1.45,31.68,9.13,39.9C59.17,112.8,58.41,91.91,58.97,80.68L58.97,80.68z"/>
	</g>
	<g>
		<path d="M70.68,74.98c0.7,10.15,1.11,29.33,8.1,36.86C70.54,104.76,70.05,85.25,70.68,74.98L70.68,74.98z"/>
	</g>
	<g>
		<path d="M81.59,69.55c0.62,8.7,0.73,27.59,7.45,33.39C81.06,97.51,80.91,78.43,81.59,69.55L81.59,69.55z"/>
	</g>
	<path class="st7" d="M91.59,64.05"/>
	<g>
		<path d="M91.59,64.05c1.92,5.56,3.32,11.3,3.85,17.17c0.21,2.12,0.05,4.49-0.23,6.62c-0.24,3.59,1.16,7.21,3.83,9.66
			c-3.06-2.09-4.82-5.95-4.71-9.69c0,0,0.17-2.21,0.17-2.21C94.77,78.34,92.94,71.14,91.59,64.05L91.59,64.05z"/>
	</g>
	<path class="st1" d="M71.85,119.88c0,0,0.19,13.71-4.84,17.76l47.12-36.18c0,0,8.19-8.51,7.64-16.88L71.85,119.88z"/>
	<g>
		<path d="M64.54,139.18c10.83-8.07,21.43-16.41,31.99-24.84c9.87-8.12,22.62-16.09,23.91-29.88c0,0,2.17,1.16,2.17,1.16
			c-8.05,6.3-16.27,12.37-24.72,18.11c-8.43,5.77-17.01,11.31-25.73,16.63l0.27-0.48c-0.11,7.93-1.64,18.12-10.15,21.24
			c-8.52,2.9-16.77-3.52-20.57-10.77c-9.54-17.17-4.16-37.96-10.11-55.92c-2.85-9.03-7.88-11.77-17.12-11.23
			c-0.48-0.01-0.94-0.12-1.43-0.3c-0.21-0.11-0.39-0.13-0.81-0.58c-0.24-0.28-0.43-0.76-0.4-1.14c0-0.76,0.51-1.21,0.87-1.5
			c2.24-1.32,4.7-1.72,7.1-2.45c2.79-0.75,5.57-1.43,8.35-2.09c15.95-4.02,34.09-7.55,49.09-14.13c0,0,0.44-0.21,0.44-0.21
			l0.43,0.09c5.77,1.26,11.2,3.91,15.72,7.64c9.1,7.36,14.06,19.4,13.03,30.99c-0.24,2.89-0.89,5.66-1.22,8.46
			c-0.34,2.82-0.38,5.76,0.72,8.42c0,0-0.27,0.12-0.27,0.12l-0.06-0.14c-2.48-5.35-0.51-11.39-0.34-16.94
			c0.22-5.58-0.89-11.18-3.18-16.23c-4.55-10.07-14.14-17.59-24.95-19.67c0,0,0.87-0.11,0.87-0.11
			c-15.76,7.29-32.81,10.63-49.54,14.8c-3.7,0.98-10.69,2.37-14.17,3.8c-0.12,0.05-0.23,0.12-0.24,0.12
			c0.02-0.02,0.02,0.01,0.18-0.2c0.29-0.3,0.28-1.23-0.09-1.58c-0.3-0.31-0.31-0.25-0.36-0.29c0.07,0.02,0.26,0.07,0.41,0.09
			c9.66-0.5,16.36,2.72,19.56,13.4c5.91,18.25-0.31,38.76,8.63,56.14c2.41,4.66,6.24,8.97,11.39,10.51
			c5.1,1.68,10.96-0.16,13.73-4.88c2.97-4.57,3.21-10.19,3.29-15.51c0,0,0.01-0.31,0.01-0.31l0.27-0.18
			c17.9-11.72,35.01-24.59,51.84-37.78c-0.16,16.58-13.69,25.45-25.6,34.37c-10.82,8.1-21.7,16.14-33.08,23.46
			c0,0-0.13,0.08-0.13,0.08l-0.16-0.24L64.54,139.18L64.54,139.18z"/>
	</g>
	<g>
		<path class="st8" d="M190.94,79.8c3.24,2.19,4.98,6.46,4.26,10.29C193.19,86.86,191.85,83.49,190.94,79.8L190.94,79.8z"/>
	</g>
	<g>
		<path class="st8" d="M194.62,79.27c3.1,2.16,4.79,6.22,4.19,9.95C196.72,86.18,195.37,82.89,194.62,79.27L194.62,79.27z"/>
	</g>
	<g>
		<path class="st8" d="M185.23,159.9c-0.71,4.98-4.63,9.49-9.47,10.86c1.38-1.7,3.33-3.78,4.76-5.41
			C181.95,163.71,183.74,161.51,185.23,159.9L185.23,159.9z"/>
	</g>
	<g>
		<path class="st8" d="M187.92,163.13c-0.08,3.56-2.67,6.99-6.09,8.02C183.38,168.05,185.36,165.45,187.92,163.13L187.92,163.13z"/>
	</g>
</g>
</svg>
