<svg width="30" height="30" viewBox="0 0 30 30" fill="none" xmlns="http://www.w3.org/2000/svg">
<g id="Actions / Navigation / home / 16">
<path id="Fill" fill-rule="evenodd" clip-rule="evenodd" d="M15.5719 2.07193C15.2311 1.80268 14.7501 1.80268 14.4094 2.07193L0.9375 12.5813L2.1 14.0626L3.75 12.7688V24.3751C3.75 25.4106 4.58947 26.2501 5.625 26.2501H24.375C25.4105 26.2501 26.25 25.4106 26.25 24.3751V12.7782L27.9 14.0626L29.0625 12.5907L15.5719 2.07193ZM16.875 24.3751H13.125V16.8751H16.875V24.3751ZM18.75 24.3751V16.8751C18.75 15.8395 17.9105 15.0001 16.875 15.0001H13.125C12.0895 15.0001 11.25 15.8395 11.25 16.8751V24.3751H5.625V11.3063L15 4.00318L24.375 11.3157V24.3751H18.75Z" fill="#3B4B54"/>
</g>
</svg>
