<svg width="12" height="13" viewBox="0 0 12 13" fill="none" xmlns="http://www.w3.org/2000/svg">
<g id="Planning / Travel / location / 16">
<path id="Fill" fill-rule="evenodd" clip-rule="evenodd" d="M1.875 5.26611C1.90586 3.01832 3.75219 1.22067 6 1.24986C8.24781 1.22067 10.0941 3.01832 10.125 5.26611C10.1241 6.13895 9.83394 6.98688 9.3 7.67736L6 12.4999L2.7 7.67736C2.16606 6.98688 1.87595 6.13895 1.875 5.26611ZM9.375 5.26611C9.3401 3.4343 7.83197 1.97477 6 1.99986C4.16803 1.97477 2.6599 3.4343 2.625 5.26611C2.62446 5.98693 2.8691 6.68649 3.31875 7.24986L6 11.1724L8.70375 7.21986C9.13895 6.6616 9.37521 5.97396 9.375 5.26611ZM6 4.24986C6.62132 4.24986 7.125 4.75354 7.125 5.37486C7.125 5.99618 6.62132 6.49986 6 6.49986C5.37868 6.49986 4.875 5.99618 4.875 5.37486C4.875 4.75354 5.37868 4.24986 6 4.24986ZM4.125 5.37486C4.125 4.33933 4.96447 3.49986 6 3.49986C7.03553 3.49986 7.875 4.33933 7.875 5.37486C7.875 6.4104 7.03553 7.24986 6 7.24986C4.96447 7.24986 4.125 6.4104 4.125 5.37486Z" fill="#0F7A9D"/>
</g>
</svg>
